<?xml version="1.0" standalone="no"?>
<!DOCTYPE svg PUBLIC "-//W3C//DTD SVG 20010904//EN"
 "http://www.w3.org/TR/2001/REC-SVG-20010904/DTD/svg10.dtd">
<svg version="1.0" xmlns="http://www.w3.org/2000/svg"
 width="720.000000pt" height="652.000000pt" viewBox="0 0 720.000000 652.000000"
 preserveAspectRatio="xMidYMid meet">

<g transform="translate(0.000000,652.000000) scale(0.100000,-0.100000)"
fill="#000000" stroke="none">
<path d="M6730 6343 c0 -4 14 -22 32 -40 l32 -33 -32 -33 c-18 -18 -32 -36
-32 -40 0 -17 28 -5 55 23 l29 30 31 -30 c17 -16 34 -30 38 -30 15 0 6 25 -20
52 l-27 28 27 28 c26 27 35 52 19 52 -5 0 -21 -14 -37 -30 l-29 -30 -31 30
c-29 28 -55 39 -55 23z"/>
<path d="M4152 6320 c-31 -29 -33 -81 -5 -112 21 -23 79 -24 87 -2 5 13 1 15
-20 10 -18 -5 -32 -2 -45 10 -23 21 -24 42 -4 71 13 18 20 21 39 13 27 -10 37
-5 29 16 -8 21 -56 17 -81 -6z"/>
<path d="M4250 6265 c0 -59 3 -75 14 -75 10 0 16 14 18 43 2 23 8 42 13 42 6
0 11 -19 13 -42 2 -29 8 -43 18 -43 10 0 14 12 14 43 0 45 -13 67 -41 67 -9 0
-19 9 -22 20 -3 11 -10 20 -16 20 -7 0 -11 -27 -11 -75z"/>
<path d="M4612 6329 c2 -6 8 -10 13 -10 5 0 11 4 13 10 2 6 -4 11 -13 11 -9 0
-15 -5 -13 -11z"/>
<path d="M4847 6333 c-4 -3 -7 -37 -7 -75 0 -54 3 -68 15 -68 12 0 15 15 15
75 0 69 -6 86 -23 68z"/>
<path d="M6004 6327 c-3 -8 -4 -39 -2 -68 l3 -54 70 0 70 0 0 65 0 65 -68 3
c-51 2 -69 -1 -73 -11z m131 -57 l0 -55 -60 0 -60 0 -3 44 c-5 68 0 72 65 69
l58 -3 0 -55z"/>
<path d="M3085 6320 c-4 -7 6 -25 24 -44 l31 -32 -30 -29 c-16 -16 -30 -32
-30 -37 0 -16 25 -7 52 19 l28 27 28 -27 c27 -26 52 -35 52 -20 0 4 -14 21
-30 38 l-30 31 30 29 c16 16 30 32 30 37 0 16 -25 7 -52 -19 l-28 -27 -34 33
c-23 22 -36 29 -41 21z"/>
<path d="M2354 6307 c-3 -8 -4 -41 -2 -73 l3 -59 70 0 70 0 0 70 0 70 -68 3
c-51 2 -69 -1 -73 -11z m130 -13 c10 -27 7 -89 -6 -102 -7 -7 -30 -12 -53 -12
-51 0 -65 13 -65 61 0 62 6 69 65 69 39 0 54 -4 59 -16z"/>
<path d="M503 6295 c-34 -24 -32 -87 3 -114 30 -24 54 -27 72 -9 20 20 14 25
-25 24 -36 -1 -38 1 -41 32 -4 45 14 65 51 58 20 -4 27 -2 25 7 -7 18 -60 20
-85 2z"/>
<path d="M600 6240 c0 -56 3 -70 15 -70 11 0 15 11 15 40 0 29 4 40 15 40 11
0 15 -11 15 -40 0 -29 4 -40 15 -40 11 0 15 12 15 44 0 46 -19 72 -45 62 -10
-4 -15 1 -15 14 0 11 -7 20 -15 20 -12 0 -15 -14 -15 -70z"/>
<path d="M960 6300 c0 -5 7 -10 15 -10 8 0 15 5 15 10 0 6 -7 10 -15 10 -8 0
-15 -4 -15 -10z"/>
<path d="M1197 6303 c-4 -3 -7 -35 -7 -70 0 -49 3 -63 15 -63 12 0 15 14 15
70 0 64 -6 81 -23 63z"/>
<path d="M4362 6288 c-7 -7 -12 -26 -12 -43 0 -17 5 -36 12 -43 17 -17 65 -15
72 3 4 12 -1 15 -21 13 -14 -2 -28 3 -30 10 -3 8 6 12 26 12 23 0 31 5 31 18
0 24 -19 42 -45 42 -12 0 -26 -5 -33 -12z m48 -18 c0 -5 -7 -10 -16 -10 -8 0
-12 5 -9 10 3 6 10 10 16 10 5 0 9 -4 9 -10z"/>
<path d="M4452 6248 c4 -64 26 -77 30 -17 4 60 28 64 28 5 0 -33 4 -46 14 -46
10 0 16 14 18 43 4 55 22 54 26 -1 4 -50 25 -53 30 -4 6 56 -9 69 -83 70 l-66
1 3 -51z"/>
<path d="M4614 6286 c-9 -24 0 -89 14 -94 8 -3 12 12 12 52 0 53 -14 74 -26
42z"/>
<path d="M4664 6274 c-16 -24 -16 -29 -3 -53 14 -24 20 -26 92 -28 l77 -3 0
44 c0 26 -6 48 -14 56 -19 15 -58 10 -64 -9 -3 -9 1 -11 16 -7 11 4 23 2 27
-4 3 -5 -2 -10 -13 -10 -10 0 -28 -11 -40 -25 -26 -30 -48 -32 -57 -6 -10 32
5 53 32 46 18 -4 24 -2 21 7 -3 7 -16 14 -31 16 -19 2 -30 -4 -43 -24z m130
-49 c-4 -8 -10 -15 -15 -15 -5 0 -9 7 -9 15 0 8 7 15 15 15 9 0 12 -6 9 -15z"/>
<path d="M5273 6278 c2 -9 27 -13 77 -13 50 0 75 4 78 13 3 9 -17 12 -78 12
-61 0 -81 -3 -77 -12z"/>
<path d="M717 6262 c-44 -48 16 -135 61 -90 20 20 14 28 -18 22 -22 -5 -30 -3
-30 8 0 8 10 14 27 13 31 0 43 26 23 50 -17 20 -44 19 -63 -3z m40 -18 c-3 -3
-12 -4 -19 -1 -8 3 -5 6 6 6 11 1 17 -2 13 -5z"/>
<path d="M825 6271 c-16 -7 -20 -18 -20 -51 0 -55 22 -66 27 -14 4 53 28 57
28 5 0 -30 4 -41 15 -41 11 0 15 11 15 40 0 29 4 40 15 40 11 0 15 -11 15 -40
0 -29 4 -40 15 -40 21 0 20 73 -1 94 -18 19 -26 20 -41 5 -8 -8 -13 -8 -17 0
-8 13 -23 13 -51 2z"/>
<path d="M1027 6262 c-26 -29 -22 -80 8 -94 18 -8 28 -8 39 1 10 9 20 9 33 3
10 -6 31 -8 46 -5 24 5 27 10 27 43 0 56 -38 88 -68 58 -19 -19 -14 -26 16
-22 15 2 20 1 12 -2 -8 -4 -27 -18 -42 -31 -32 -31 -63 -27 -63 7 0 21 5 25
28 25 20 -1 27 4 25 15 -5 22 -41 24 -61 2z m114 -65 c-13 -13 -26 -3 -16 12
3 6 11 8 17 5 6 -4 6 -10 -1 -17z"/>
<path d="M970 6220 c0 -27 5 -50 10 -50 6 0 10 23 10 50 0 28 -4 50 -10 50 -5
0 -10 -22 -10 -50z"/>
<path d="M1620 6250 c0 -6 33 -10 80 -10 47 0 80 4 80 10 0 6 -33 10 -80 10
-47 0 -80 -4 -80 -10z"/>
<path d="M3823 6243 c-14 -5 -18 -33 -5 -33 10 0 32 22 32 32 0 9 -8 9 -27 1z"/>
<path d="M167 6213 c-4 -3 -7 -12 -7 -20 0 -11 4 -11 20 -1 11 7 20 16 20 20
0 10 -24 10 -33 1z"/>
<path d="M5220 5630 c0 -33 4 -60 10 -60 6 0 10 16 10 35 0 24 5 35 15 35 10
0 15 -11 15 -35 0 -19 5 -35 11 -35 6 0 9 17 7 43 -3 36 -6 42 -25 41 -16 0
-23 5 -23 18 0 10 -4 18 -10 18 -6 0 -10 -27 -10 -60z"/>
<path d="M5743 5630 c0 -36 2 -50 4 -32 2 17 2 47 0 65 -2 17 -4 3 -4 -33z"/>
<path d="M5136 5664 c-21 -21 -20 -57 2 -77 21 -19 58 -22 68 -6 4 8 -1 9 -15
4 -27 -8 -51 10 -51 40 0 29 24 49 50 42 11 -3 18 -1 14 4 -9 14 -51 10 -68
-7z"/>
<path d="M1570 5610 c0 -62 16 -84 22 -28 4 46 28 49 28 4 0 -20 5 -36 11 -36
6 0 9 16 7 38 -2 30 -7 38 -25 40 -15 2 -23 10 -23 23 0 10 -4 19 -10 19 -6 0
-10 -27 -10 -60z"/>
<path d="M2093 5610 c0 -36 2 -50 4 -32 2 17 2 47 0 65 -2 17 -4 3 -4 -33z"/>
<path d="M1484 5635 c-9 -15 -14 -34 -10 -48 6 -27 48 -52 70 -44 27 11 18 24
-14 19 -25 -3 -30 0 -36 22 -9 39 1 56 36 56 18 0 29 4 25 10 -12 19 -54 10
-71 -15z"/>
<path d="M5322 5648 c-13 -13 -15 -37 -6 -62 6 -17 54 -23 54 -7 0 5 -7 8 -16
7 -9 0 -19 5 -21 12 -3 7 5 12 21 12 15 0 26 6 26 13 0 16 -20 37 -35 37 -6 0
-16 -5 -23 -12z m38 -18 c0 -5 -7 -10 -15 -10 -8 0 -15 5 -15 10 0 6 7 10 15
10 8 0 15 -4 15 -10z"/>
<path d="M5401 5611 c2 -44 2 -45 8 -11 4 22 12 36 24 38 14 3 17 -4 18 -35
l2 -38 6 35 c9 51 38 53 44 3 4 -34 4 -33 3 7 l-1 45 -52 1 -53 1 1 -46z"/>
<path d="M5543 5615 c0 -27 2 -38 4 -22 2 15 2 37 0 50 -2 12 -4 0 -4 -28z"/>
<path d="M5582 5648 c-27 -27 -7 -78 30 -78 10 0 18 4 18 9 0 5 -8 8 -17 7
-13 -1 -19 7 -21 27 -3 22 1 27 17 27 12 0 21 5 21 10 0 14 -33 13 -48 -2z"/>
<path d="M5655 5651 c3 -6 14 -11 23 -12 12 0 10 -3 -6 -10 -34 -13 -26 -53
11 -57 27 -3 28 -2 25 40 -3 39 -6 43 -32 46 -18 2 -26 0 -21 -7z m45 -45 c0
-20 -19 -31 -32 -18 -6 6 -7 15 -4 21 10 16 36 13 36 -3z"/>
<path d="M1664 5606 c-3 -14 -4 -33 0 -41 8 -21 35 -30 49 -16 8 8 5 11 -11
11 -29 0 -28 18 1 22 34 5 30 42 -5 46 -22 3 -29 -2 -34 -22z m46 4 c0 -5 -7
-10 -15 -10 -8 0 -15 5 -15 10 0 6 7 10 15 10 8 0 15 -4 15 -10z"/>
<path d="M1750 5590 c0 -22 5 -40 11 -40 6 0 10 10 9 23 -3 38 -1 47 15 47 10
0 15 -11 15 -35 0 -19 5 -35 11 -35 6 0 10 10 9 23 -3 38 -1 47 15 47 10 0 15
-11 15 -35 0 -19 5 -35 10 -35 12 0 13 50 2 66 -4 6 -31 12 -59 13 l-53 1 0
-40z"/>
<path d="M1893 5590 c0 -25 2 -35 4 -22 2 12 2 32 0 45 -2 12 -4 2 -4 -23z"/>
<path d="M1932 5618 c-7 -7 -12 -19 -12 -28 0 -23 36 -54 51 -44 9 5 6 10 -9
15 -29 11 -29 47 1 59 21 8 21 9 2 9 -12 1 -26 -4 -33 -11z"/>
<path d="M2025 5621 c28 -6 28 -7 8 -13 -28 -7 -39 -33 -24 -52 12 -14 47 -11
57 5 3 5 3 23 -1 39 -6 26 -11 30 -38 29 l-32 -1 30 -7z m25 -46 c0 -8 -6 -15
-14 -15 -17 0 -28 14 -19 24 12 12 33 6 33 -9z"/>
<path d="M5757 4965 c-4 -8 -2 -17 3 -20 6 -4 10 3 10 14 0 25 -6 27 -13 6z"/>
<path d="M5697 4883 c-3 -10 -14 -51 -23 -90 -11 -45 -24 -73 -32 -73 -22 0
-202 -64 -202 -72 0 -4 19 0 42 8 90 32 160 46 172 34 15 -15 2 -22 -105 -56
-49 -15 -89 -31 -89 -35 0 -7 113 22 178 47 l42 16 83 -77 c45 -43 83 -82 85
-86 2 -5 -6 -49 -17 -98 -23 -98 -26 -120 -12 -105 5 5 19 54 31 109 l21 100
-101 95 -101 95 21 98 c12 55 19 101 17 104 -3 2 -7 -4 -10 -14z"/>
<path d="M1644 4575 c-19 -29 -11 -60 22 -81 l24 -16 0 -230 c0 -193 -3 -234
-17 -261 -9 -18 -90 -160 -180 -316 -91 -156 -167 -298 -170 -316 -6 -37 13
-78 52 -115 l27 -25 446 -3 c419 -2 449 -1 481 16 45 24 74 76 68 123 -3 23
-69 148 -183 345 l-179 309 -3 237 -3 237 23 12 c42 22 51 64 20 92 -16 15
-46 17 -215 17 l-197 0 -16 -25z m393 -32 c2 -6 -7 -13 -22 -15 l-27 -3 1
-265 c2 -232 4 -269 19 -300 10 -19 63 -111 117 -205 252 -435 248 -423 200
-470 l-24 -25 -441 0 -441 0 -24 25 c-15 14 -25 36 -25 52 0 18 61 133 171
323 94 162 178 315 185 339 10 33 14 108 14 288 l0 243 -30 0 c-29 0 -38 9
-23 24 12 12 346 2 350 -11z"/>
<path d="M4301 4544 c0 -11 3 -14 6 -6 3 7 2 16 -1 19 -3 4 -6 -2 -5 -13z"/>
<path d="M4351 4544 c0 -11 3 -14 6 -6 3 7 2 16 -1 19 -3 4 -6 -2 -5 -13z"/>
<path d="M4513 4438 c48 -43 66 -65 62 -77 -8 -18 -45 -190 -45 -204 0 -27 13
10 34 97 25 104 31 115 47 99 9 -9 -8 -135 -27 -195 -3 -10 -1 -18 5 -18 6 0
11 8 11 18 0 9 11 59 24 111 l23 94 112 35 112 34 52 -48 c93 -87 139 -125
144 -120 5 4 -99 106 -164 160 l-32 27 -116 -36 c-64 -20 -122 -38 -129 -41
-8 -3 -47 24 -87 60 -41 36 -78 66 -84 66 -5 0 21 -28 58 -62z"/>
<path d="M1128 4409 c-51 -29 -44 -90 13 -120 l39 -19 0 -124 0 -124 -45 -26
c-63 -37 -114 -92 -144 -156 -38 -80 -37 -192 2 -271 49 -101 173 -189 267
-189 55 0 40 24 -24 37 -158 33 -266 187 -236 341 18 97 79 175 168 214 l42
19 -2 162 -3 162 -35 5 c-24 3 -36 11 -38 24 -7 37 24 46 158 46 134 0 165 -9
158 -46 -2 -13 -14 -21 -38 -24 l-35 -5 -3 -162 -2 -162 47 -21 c26 -11 66
-41 90 -66 40 -44 74 -53 54 -16 -17 32 -84 92 -122 109 l-38 18 -1 130 0 131
36 13 c21 8 39 22 45 38 13 35 12 41 -16 68 -23 24 -28 25 -172 25 -81 0 -156
-5 -165 -11z"/>
<path d="M5220 4311 c-63 -20 -110 -40 -105 -43 6 -3 57 9 115 28 l104 33 97
-90 c53 -49 105 -89 114 -89 28 0 215 62 215 71 0 11 12 14 -111 -25 l-107
-33 -89 81 c-49 44 -95 86 -103 92 -12 9 -41 4 -130 -25z"/>
<path d="M6262 4264 c-12 -50 -22 -101 -22 -112 0 -17 -18 -26 -116 -57 l-116
-36 -79 72 c-44 39 -82 69 -85 66 -5 -5 111 -119 146 -144 18 -13 34 -10 146
27 144 46 117 51 223 -43 75 -67 77 -50 1 19 -48 45 -60 62 -56 78 4 12 13 53
21 91 8 39 18 81 21 95 3 16 2 21 -4 15 -6 -5 -20 -54 -32 -107 -12 -54 -25
-98 -29 -98 -27 1 -28 19 -10 105 26 121 18 144 -9 29z"/>
<path d="M2164 4257 c-20 -17 -27 -33 -27 -57 0 -35 39 -80 69 -80 12 0 14
-30 14 -180 0 -162 2 -183 20 -212 l20 -33 0 233 0 232 -29 0 c-28 0 -61 22
-61 39 0 4 8 15 18 24 16 15 45 17 194 17 157 0 177 -2 191 -18 10 -10 17 -21
17 -25 0 -16 -35 -37 -60 -37 l-29 0 -3 -309 -3 -309 -25 -27 c-14 -15 -37
-33 -52 -39 -25 -11 -26 -14 -15 -30 12 -17 16 -17 43 -3 37 19 70 55 83 90 7
18 11 134 11 308 0 247 2 279 16 279 23 0 74 55 74 80 0 12 -13 35 -29 51
l-29 29 -191 0 c-185 0 -191 -1 -217 -23z"/>
<path d="M5770 4264 c0 -3 14 -19 30 -36 35 -35 41 -21 6 16 -22 25 -36 32
-36 20z"/>
<path d="M5080 4246 c0 -8 5 -18 10 -21 6 -3 10 1 10 9 0 8 -4 18 -10 21 -5 3
-10 -1 -10 -9z"/>
<path d="M5032 4106 c-12 -52 -22 -101 -22 -110 0 -8 44 -55 97 -105 l97 -90
-12 -68 c-6 -37 -15 -85 -21 -105 -5 -21 -5 -38 -1 -38 5 0 16 35 25 79 10 43
20 83 24 88 3 4 54 24 113 43 58 19 104 38 102 41 -2 4 -45 -6 -96 -22 -106
-33 -121 -35 -116 -13 2 11 34 27 98 48 103 33 105 34 99 40 -4 4 -166 -41
-209 -57 -10 -4 -45 22 -99 73 l-85 78 18 93 c10 51 20 98 23 106 3 7 1 13 -4
13 -5 0 -19 -42 -31 -94z"/>
<path d="M6506 3952 c-2 -4 -1 -14 3 -21 6 -10 10 -9 14 3 6 16 -8 32 -17 18z"/>
<path d="M5190 3535 c0 -8 5 -15 10 -15 6 0 10 7 10 15 0 8 -4 15 -10 15 -5 0
-10 -7 -10 -15z"/>
<path d="M5245 3541 c-3 -5 -1 -12 5 -16 5 -3 10 1 10 9 0 18 -6 21 -15 7z"/>
<path d="M977 2593 c-11 -11 -8 -193 3 -193 6 0 10 40 10 100 0 100 -1 106
-13 93z"/>
<path d="M4741 2522 l-1 -63 28 3 c23 3 27 8 30 41 2 21 -1 38 -7 39 -6 0 -17
1 -23 2 -7 1 -16 10 -20 21 -3 11 -6 -8 -7 -43z m44 -2 c10 -16 -5 -50 -21
-50 -8 0 -14 10 -14 23 0 34 21 50 35 27z"/>
<path d="M5343 2520 c0 -48 1 -56 6 -30 4 22 12 35 21 35 9 0 17 -13 21 -35
l6 -35 2 36 c1 37 -19 66 -38 55 -5 -4 -12 4 -14 16 -2 13 -4 -6 -4 -42z"/>
<path d="M5503 2520 c0 -36 2 -50 4 -32 2 17 2 47 0 65 -2 17 -4 3 -4 -33z"/>
<path d="M5544 2564 c9 -8 16 -23 17 -32 0 -10 3 -12 5 -5 7 15 -13 53 -27 53
-6 0 -3 -7 5 -16z"/>
<path d="M6048 2574 c15 -7 17 -124 2 -124 -5 0 -10 -5 -10 -11 0 -6 8 -9 17
-7 14 2 17 15 16 73 -1 60 -4 70 -20 72 -10 2 -12 0 -5 -3z"/>
<path d="M6810 2567 c0 -7 -10 -17 -22 -22 -18 -8 -23 -18 -23 -45 0 -32 3
-35 33 -38 l32 -3 0 60 c0 34 -4 61 -10 61 -5 0 -10 -6 -10 -13z m0 -67 c0
-20 -5 -30 -15 -30 -10 0 -15 10 -15 30 0 20 5 30 15 30 10 0 15 -10 15 -30z"/>
<path d="M4002 2513 c1 -51 2 -53 5 -15 2 23 8 40 14 37 11 -7 11 -3 3 19 -13
34 -24 13 -22 -41z"/>
<path d="M4060 2534 c0 -33 -2 -35 -17 -23 -15 13 -15 11 1 -18 9 -18 20 -33
24 -33 12 0 13 98 2 105 -6 4 -10 -9 -10 -31z"/>
<path d="M5288 2557 c-3 -6 -3 -31 0 -54 3 -32 8 -43 21 -42 10 0 11 2 4 6
-17 6 -17 60 -1 65 9 3 8 9 -4 21 -11 12 -17 13 -20 4z"/>
<path d="M6347 2557 c-2 -7 -2 -30 2 -52 5 -29 12 -41 26 -43 18 -2 19 -2 3 8
-21 13 -24 56 -6 62 9 3 8 9 -4 21 -12 12 -17 13 -21 4z"/>
<path d="M350 2495 c0 -34 4 -55 11 -55 8 0 10 12 6 34 -3 18 -1 38 5 44 11
11 3 32 -13 32 -5 0 -9 -25 -9 -55z"/>
<path d="M410 2508 c0 -31 -3 -39 -10 -28 -13 20 -13 4 0 -21 6 -10 15 -19 20
-19 13 0 13 97 0 105 -6 4 -10 -11 -10 -37z"/>
<path d="M4100 2540 c0 -5 10 -10 23 -11 14 0 17 -2 7 -6 -22 -8 -39 -33 -33
-49 3 -8 18 -14 34 -14 27 0 29 3 29 39 0 26 -5 41 -16 45 -24 9 -44 7 -44 -4z
m45 -51 c0 -7 -8 -15 -17 -17 -18 -3 -25 18 -11 32 10 10 28 1 28 -15z"/>
<path d="M4200 2542 c-9 -4 -17 -23 -19 -44 -3 -46 16 -51 21 -6 4 46 28 49
28 4 0 -44 18 -48 22 -4 4 46 28 49 28 4 0 -20 5 -36 10 -36 18 0 12 77 -7 84
-9 4 -19 2 -22 -3 -4 -6 -12 -6 -21 -1 -17 11 -19 11 -40 2z"/>
<path d="M4332 2538 c-29 -29 -3 -85 35 -75 14 4 13 5 -4 6 -29 1 -31 21 -3
21 25 0 36 25 20 45 -15 18 -32 19 -48 3z m38 -18 c0 -5 -7 -10 -15 -10 -8 0
-15 5 -15 10 0 6 7 10 15 10 8 0 15 -4 15 -10z"/>
<path d="M4600 2541 c0 -5 8 -12 18 -14 16 -4 16 -5 0 -6 -10 0 -18 -6 -18
-12 0 -5 5 -7 10 -4 15 9 30 -4 24 -20 -3 -8 -13 -16 -22 -18 -10 -3 -5 -5 11
-6 24 -1 27 2 27 32 0 18 -5 38 -12 45 -14 14 -38 16 -38 3z"/>
<path d="M4688 2543 c-13 -3 -18 -15 -18 -44 0 -21 5 -39 10 -39 6 0 10 14 10
30 0 18 6 33 15 36 8 4 15 10 15 15 0 9 -4 10 -32 2z"/>
<path d="M4831 2536 c-7 -8 -11 -27 -9 -43 3 -24 8 -28 33 -28 25 0 30 4 33
28 4 30 -12 57 -33 57 -7 0 -18 -6 -24 -14z m39 -36 c0 -20 -5 -30 -15 -30
-10 0 -15 10 -15 30 0 20 5 30 15 30 10 0 15 -10 15 -30z"/>
<path d="M4957 2532 c-13 -13 -19 -13 -29 -4 -20 20 -32 13 -13 -8 17 -19 17
-21 0 -40 -19 -21 -7 -28 13 -8 9 9 15 9 24 0 20 -20 33 -14 14 7 -16 17 -13
51 5 51 16 0 31 -43 26 -76 -9 -53 6 -40 30 26 12 33 18 60 13 60 -5 0 -13
-12 -18 -27 l-10 -28 -10 27 c-14 35 -25 40 -45 20z"/>
<path d="M5078 2543 c-13 -3 -18 -15 -18 -44 0 -21 5 -39 10 -39 6 0 10 16 10
35 0 24 5 35 15 35 10 0 15 -11 15 -35 0 -19 5 -35 10 -35 6 0 10 16 10 35 0
24 5 35 15 35 10 0 15 -11 15 -35 0 -19 5 -35 10 -35 15 0 12 53 -4 75 -11 16
-17 17 -29 7 -10 -9 -17 -10 -22 -2 -6 10 -9 11 -37 3z"/>
<path d="M5211 2536 c-7 -8 -11 -27 -9 -43 2 -23 8 -28 33 -30 18 -1 22 1 10
4 -35 9 -37 20 -6 26 24 5 29 10 24 24 -12 33 -34 41 -52 19z m39 -16 c0 -5
-9 -10 -21 -10 -11 0 -17 5 -14 10 3 6 13 10 21 10 8 0 14 -4 14 -10z"/>
<path d="M5605 2540 c-4 -6 6 -10 22 -11 28 -1 28 -1 3 -8 -37 -10 -35 -55 3
-59 25 -3 27 -1 27 36 0 27 -5 42 -16 46 -22 8 -32 8 -39 -4z m41 -41 c10 -17
-13 -36 -27 -22 -12 12 -4 33 11 33 5 0 12 -5 16 -11z"/>
<path d="M5708 2543 c-14 -4 -18 -14 -17 -46 l2 -42 6 35 c4 22 12 36 24 38
14 3 17 -4 18 -35 l2 -38 6 35 c4 22 12 35 21 35 9 0 17 -13 21 -35 l6 -35 2
41 c1 29 -4 44 -14 47 -8 4 -17 2 -20 -3 -4 -6 -13 -7 -23 -2 -9 5 -25 7 -34
5z"/>
<path d="M5878 2543 c-13 -3 -18 -15 -18 -44 0 -21 5 -39 10 -39 6 0 10 16 10
35 0 24 5 35 15 35 10 0 15 -11 15 -35 0 -19 5 -35 10 -35 14 0 12 64 -2 78
-7 7 -14 11 -17 11 -4 -1 -14 -3 -23 -6z"/>
<path d="M5962 2538 c-18 -18 -15 -68 4 -75 40 -15 68 35 38 68 -20 22 -26 23
-42 7z m36 -35 c-3 -30 -25 -42 -34 -19 -9 22 2 46 21 46 12 0 15 -8 13 -27z"/>
<path d="M6105 2540 c-4 -6 6 -10 22 -11 28 -1 28 -1 3 -8 -37 -10 -35 -55 3
-59 25 -3 27 -1 27 36 0 27 -5 42 -16 46 -22 8 -32 8 -39 -4z m45 -50 c0 -11
-6 -20 -14 -20 -21 0 -31 21 -15 31 22 14 29 11 29 -11z"/>
<path d="M6195 2526 c-22 -34 -5 -66 33 -65 l27 1 -25 7 c-34 9 -36 54 -2 59
12 2 20 8 17 13 -11 16 -34 9 -50 -15z"/>
<path d="M6272 2538 c-27 -27 -10 -79 27 -77 23 2 24 2 4 6 -29 5 -30 23 -3
23 25 0 36 25 20 45 -15 18 -32 19 -48 3z m38 -18 c0 -5 -7 -10 -15 -10 -8 0
-15 5 -15 10 0 6 7 10 15 10 8 0 15 -4 15 -10z"/>
<path d="M6445 2526 c-22 -34 -5 -66 33 -65 l27 1 -25 7 c-34 9 -36 54 -2 59
12 2 20 8 17 13 -11 16 -34 9 -50 -15z"/>
<path d="M6570 2540 c0 -5 10 -10 23 -10 22 0 21 -1 -3 -13 -37 -19 -33 -51 8
-55 30 -3 32 -2 32 30 0 19 -5 39 -12 46 -15 15 -48 16 -48 2z m40 -50 c0 -11
-7 -20 -15 -20 -15 0 -21 21 -8 33 12 13 23 7 23 -13z"/>
<path d="M6661 2536 c-7 -8 -11 -27 -9 -43 2 -22 9 -29 31 -31 15 -2 27 1 27
6 0 6 -8 8 -19 5 -10 -3 -22 0 -26 6 -11 19 5 51 26 51 11 0 17 5 14 10 -9 14
-31 12 -44 -4z"/>
<path d="M4420 2530 c0 -5 5 -10 10 -10 6 0 10 5 10 10 0 6 -4 10 -10 10 -5 0
-10 -4 -10 -10z"/>
<path d="M5426 2509 c10 -20 14 -43 10 -62 -8 -41 4 -26 26 31 21 54 23 82 3
37 l-13 -30 -11 28 c-6 15 -15 27 -21 27 -6 0 -4 -13 6 -31z"/>
<path d="M5820 2500 c0 -22 5 -40 10 -40 6 0 10 18 10 40 0 22 -4 40 -10 40
-5 0 -10 -18 -10 -40z"/>
<path d="M6403 2500 c0 -25 2 -35 4 -22 2 12 2 32 0 45 -2 12 -4 2 -4 -23z"/>
<path d="M6720 2506 c0 -19 5 -38 10 -41 6 -4 10 10 10 34 0 23 -4 41 -10 41
-5 0 -10 -15 -10 -34z"/>
<path d="M474 2513 l29 -5 -24 -12 c-26 -13 -37 -45 -19 -56 19 -12 60 1 60
19 -1 45 -12 61 -44 60 l-31 -2 29 -4z m26 -48 c0 -8 -6 -15 -14 -15 -17 0
-28 14 -19 24 12 12 33 6 33 -9z"/>
<path d="M541 2477 l2 -42 6 35 c4 22 12 35 21 35 9 0 17 -13 21 -35 l6 -35 4
35 c2 23 9 35 19 35 9 0 17 -13 21 -35 l6 -35 2 41 1 42 -55 1 -55 0 1 -42z"/>
<path d="M682 2508 c-18 -18 -15 -42 8 -63 13 -12 25 -15 37 -9 15 7 14 8 -9
12 -35 4 -37 22 -2 22 21 0 25 4 22 23 -3 25 -36 35 -56 15z m43 -8 c3 -5 -3
-10 -15 -10 -12 0 -18 5 -15 10 3 6 10 10 15 10 5 0 12 -4 15 -10z"/>
<path d="M770 2510 c0 -5 5 -10 10 -10 6 0 10 5 10 10 0 6 -4 10 -10 10 -5 0
-10 -4 -10 -10z"/>
<path d="M4420 2470 c0 -5 5 -10 10 -10 6 0 10 5 10 10 0 6 -4 10 -10 10 -5 0
-10 -4 -10 -10z"/>
<path d="M5561 2471 c-1 -8 -8 -23 -18 -33 -9 -10 -11 -18 -5 -18 15 0 35 38
28 53 -3 8 -5 7 -5 -2z"/>
<path d="M770 2450 c0 -5 5 -10 10 -10 6 0 10 5 10 10 0 6 -4 10 -10 10 -5 0
-10 -4 -10 -10z"/>
<path d="M940 2358 c0 -10 2287 -10 2293 0 3 4 -512 7 -1144 7 -632 0 -1149
-3 -1149 -7z"/>
<path d="M4012 2168 c-7 -7 -12 -26 -12 -43 0 -17 5 -36 12 -43 14 -14 68 -16
68 -3 0 4 -11 6 -25 4 -19 -4 -27 0 -37 22 -15 34 0 60 36 60 14 -1 26 3 26 7
0 13 -55 9 -68 -4z"/>
<path d="M4644 2154 c-24 -35 -9 -79 26 -79 34 0 41 48 11 67 -27 17 -26 26 2
31 l22 4 -22 2 c-14 0 -29 -9 -39 -25z m41 -34 c8 -13 -14 -42 -26 -34 -5 3
-9 14 -9 25 0 20 24 26 35 9z"/>
<path d="M4724 2156 c-14 -56 17 -104 50 -77 19 16 21 72 4 89 -20 20 -47 14
-54 -12z m44 -28 c-2 -24 -7 -43 -13 -43 -5 0 -11 19 -13 43 -3 33 0 42 13 42
13 0 16 -9 13 -42z"/>
<path d="M4874 2156 c-14 -56 17 -104 50 -77 19 16 21 72 4 89 -20 20 -47 14
-54 -12z m44 -28 c-2 -24 -7 -43 -13 -43 -5 0 -11 19 -13 43 -3 33 0 42 13 42
13 0 16 -9 13 -42z"/>
<path d="M4967 2173 c-4 -3 -7 -23 -7 -43 0 -65 51 -81 65 -21 3 16 1 39 -5
50 -10 20 -40 28 -53 14z m41 -45 c-3 -48 -23 -61 -32 -23 -9 34 1 65 20 65
12 0 14 -10 12 -42z"/>
<path d="M5123 2150 c-28 -35 -28 -40 -3 -40 11 0 24 -9 28 -19 7 -19 8 -18
19 5 6 13 7 24 2 24 -5 0 -9 14 -9 30 0 37 -9 37 -37 0z m27 -15 c0 -8 -7 -15
-15 -15 -16 0 -20 12 -8 23 11 12 23 8 23 -8z"/>
<path d="M360 2141 c-14 -26 -13 -64 2 -79 14 -14 64 -16 73 -2 4 6 -5 7 -24
4 -39 -8 -60 25 -40 63 11 20 19 24 42 19 17 -4 26 -2 22 4 -11 18 -64 11 -75
-9z"/>
<path d="M1003 2148 c-31 -41 -19 -102 20 -96 31 4 38 57 8 65 -27 7 -27 21 2
33 22 9 22 9 1 9 -12 1 -26 -5 -31 -11z m32 -63 c0 -28 -29 -25 -33 3 -3 19 0
23 15 20 10 -2 18 -12 18 -23z"/>
<path d="M1082 2148 c-17 -17 -15 -73 4 -89 23 -19 48 1 52 40 5 50 -27 78
-56 49z m38 -43 c0 -33 -4 -45 -15 -45 -11 0 -15 11 -15 38 0 21 3 42 7 45 16
16 23 4 23 -38z"/>
<path d="M1232 2148 c-17 -17 -15 -73 4 -89 23 -19 48 1 52 40 5 50 -27 78
-56 49z m38 -43 c0 -33 -4 -45 -15 -45 -11 0 -15 11 -15 38 0 21 3 42 7 45 16
16 23 4 23 -38z"/>
<path d="M1314 2136 c-14 -56 17 -104 50 -77 19 16 21 72 4 89 -20 20 -47 14
-54 -12z m46 -31 c0 -33 -4 -45 -15 -45 -11 0 -15 12 -15 45 0 33 4 45 15 45
11 0 15 -12 15 -45z"/>
<path d="M1476 2130 l-28 -34 26 -9 c14 -5 26 -15 26 -23 0 -9 5 -12 10 -9 6
4 8 10 5 15 -3 5 -1 12 5 15 7 4 8 11 1 18 -5 7 -11 23 -13 37 -3 24 -3 24
-32 -10z m24 -15 c0 -8 -7 -15 -16 -15 -14 0 -14 3 -4 15 7 8 14 15 16 15 2 0
4 -7 4 -15z"/>
<path d="M4100 2151 c0 -6 10 -11 23 -12 l22 0 -21 -9 c-12 -5 -25 -14 -29
-20 -10 -16 14 -40 42 -40 22 0 24 3 21 43 -3 38 -6 42 -30 45 -16 2 -28 -1
-28 -7z m50 -45 c0 -8 -5 -18 -11 -22 -14 -8 -33 11 -25 25 10 16 36 13 36 -3z"/>
<path d="M4190 2145 c-15 -18 -5 -35 21 -35 11 0 19 -7 19 -16 0 -11 -6 -15
-20 -11 -11 3 -20 1 -20 -4 0 -16 48 -10 54 7 8 21 -1 34 -25 34 -10 0 -19 5
-19 10 0 6 12 10 26 10 14 0 23 4 19 10 -9 15 -41 12 -55 -5z"/>
<path d="M4270 2145 c0 -8 5 -15 10 -15 6 0 10 7 10 15 0 8 -4 15 -10 15 -5 0
-10 -7 -10 -15z"/>
<path d="M450 2130 c0 -5 12 -10 28 -11 l27 -1 -25 -7 c-18 -5 -25 -14 -25
-31 0 -21 5 -25 30 -25 34 0 41 17 26 58 -8 20 -18 27 -36 27 -14 0 -25 -4
-25 -10z m50 -44 c0 -18 -16 -29 -30 -21 -13 8 -1 35 16 35 8 0 14 -6 14 -14z"/>
<path d="M547 2133 c-16 -15 -6 -43 18 -49 14 -3 22 -11 19 -16 -4 -5 -15 -8
-25 -5 -11 3 -19 1 -19 -5 0 -5 12 -8 28 -6 35 4 39 41 5 46 -31 5 -29 22 3
22 14 0 23 4 19 10 -7 11 -38 13 -48 3z"/>
<path d="M626 2131 c-4 -7 -5 -15 -2 -18 9 -9 19 4 14 18 -4 11 -6 11 -12 0z"/>
<path d="M4818 2123 c6 -2 18 -2 25 0 6 3 1 5 -13 5 -14 0 -19 -2 -12 -5z"/>
<path d="M5058 2123 c6 -2 18 -2 25 0 6 3 1 5 -13 5 -14 0 -19 -2 -12 -5z"/>
<path d="M1168 2103 c6 -2 18 -2 25 0 6 3 1 5 -13 5 -14 0 -19 -2 -12 -5z"/>
<path d="M1408 2103 c6 -2 18 -2 25 0 6 3 1 5 -13 5 -14 0 -19 -2 -12 -5z"/>
<path d="M4270 2080 c0 -5 5 -10 10 -10 6 0 10 5 10 10 0 6 -4 10 -10 10 -5 0
-10 -4 -10 -10z"/>
<path d="M620 2060 c0 -5 5 -10 10 -10 6 0 10 5 10 10 0 6 -4 10 -10 10 -5 0
-10 -4 -10 -10z"/>
<path d="M4210 1744 c0 -67 15 -81 22 -21 4 39 22 34 26 -8 4 -38 22 -39 22 0
0 36 -10 55 -31 55 -10 0 -19 6 -19 14 0 8 -4 18 -10 21 -6 4 -10 -19 -10 -61z"/>
<path d="M4760 1804 c0 -6 7 -17 15 -24 19 -16 19 -80 0 -106 -22 -29 -17 -43
5 -15 13 15 20 38 20 66 0 28 -7 51 -20 66 -10 13 -19 19 -20 13z"/>
<path d="M4841 1796 c-22 -26 -25 -90 -6 -125 9 -18 19 -31 21 -28 3 3 -2 19
-11 37 -17 32 -13 82 8 108 5 7 8 15 5 17 -3 3 -11 -1 -17 -9z"/>
<path d="M5440 1809 c0 -4 7 -20 15 -35 8 -16 15 -22 15 -13 0 14 -29 61 -30
48z"/>
<path d="M5512 1785 c-23 -49 -10 -135 20 -135 6 0 4 8 -5 18 -21 23 -22 95
-2 116 17 16 19 26 7 26 -5 0 -14 -11 -20 -25z"/>
<path d="M6110 1801 c0 -5 7 -14 15 -21 20 -17 19 -88 -2 -112 -9 -10 -11 -18
-5 -18 30 0 43 86 20 135 -11 24 -28 34 -28 16z"/>
<path d="M6186 1781 c-20 -38 -20 -62 -1 -108 21 -49 29 -37 9 14 -14 36 -14
43 0 78 20 46 14 59 -8 16z"/>
<path d="M6790 1806 c0 -2 7 -17 15 -32 19 -37 19 -58 -1 -95 -8 -17 -13 -33
-10 -36 8 -8 36 61 36 87 0 21 -26 80 -35 80 -3 0 -5 -2 -5 -4z"/>
<path d="M4005 1740 c0 -47 3 -60 15 -60 21 0 19 114 -1 118 -11 2 -14 -12
-14 -58z"/>
<path d="M5137 1793 c-14 -14 -6 -45 13 -50 31 -8 25 -41 -7 -45 -25 -4 -26
-5 -9 -13 26 -11 51 7 51 36 0 15 -8 28 -22 34 -30 13 -29 25 3 25 14 0 23 4
19 10 -7 11 -38 13 -48 3z"/>
<path d="M5367 1782 c-17 -19 -22 -57 -11 -86 9 -24 43 -19 53 7 10 26 -3 57
-24 57 -8 0 -15 5 -15 10 0 6 9 10 21 10 11 0 17 5 14 10 -9 15 -20 12 -38 -8z
m33 -63 c0 -14 -5 -19 -17 -17 -26 5 -29 38 -4 38 15 0 21 -6 21 -21z"/>
<path d="M5800 1790 c0 -5 11 -10 25 -10 30 0 31 -3 4 -46 -11 -19 -19 -40
-16 -47 2 -6 16 12 31 41 15 29 24 57 21 62 -8 13 -65 13 -65 0z"/>
<path d="M6031 1786 c-15 -18 2 -56 24 -56 8 0 15 -7 15 -15 0 -8 -7 -15 -15
-15 -8 0 -15 7 -15 15 0 8 -4 15 -10 15 -16 0 -12 -26 6 -41 25 -21 49 1 50
47 2 57 -27 84 -55 50z m39 -22 c0 -17 -22 -14 -28 4 -2 7 3 12 12 12 9 0 16
-7 16 -16z"/>
<path d="M6480 1785 c-17 -21 -9 -48 20 -62 l25 -13 -22 -6 c-25 -7 -31 -24
-10 -24 23 0 47 35 47 66 0 48 -34 70 -60 39z m40 -31 c0 -31 -23 -28 -28 4
-2 15 2 22 12 22 11 0 16 -9 16 -26z"/>
<path d="M6615 1790 c-4 -6 5 -10 19 -10 33 0 33 -14 1 -56 -14 -18 -25 -35
-25 -38 0 -3 16 -6 36 -6 21 0 33 4 29 10 -3 6 -16 10 -28 10 -19 1 -20 2 -6
13 26 20 38 51 28 70 -11 19 -44 23 -54 7z"/>
<path d="M6711 1786 c-18 -21 -10 -87 12 -100 23 -14 37 6 37 55 0 50 -25 74
-49 45z m39 -46 c0 -33 -3 -40 -20 -40 -16 0 -20 7 -20 33 0 36 6 47 27 47 9
0 13 -13 13 -40z"/>
<path d="M4610 1788 c-1 -2 -2 -27 -3 -55 -2 -46 0 -53 16 -53 13 0 17 5 13
16 -3 9 -6 33 -6 55 0 21 -4 39 -10 39 -5 0 -10 -1 -10 -2z"/>
<path d="M4683 1760 c-29 -36 -29 -40 1 -40 18 0 26 -6 29 -22 4 -23 4 -23 14
2 6 14 8 30 5 35 -4 6 -5 20 -3 33 4 31 -19 27 -46 -8z m24 -27 c-3 -3 -11 -2
-17 2 -8 5 -7 11 2 22 12 15 13 14 16 -1 2 -10 1 -20 -1 -23z"/>
<path d="M4893 1735 c0 -33 2 -48 4 -32 3 21 10 27 28 27 18 0 25 -6 28 -27 2
-16 4 -1 4 32 0 33 -2 50 -4 38 -3 -16 -11 -23 -28 -23 -17 0 -25 7 -28 23 -2
12 -4 -5 -4 -38z"/>
<path d="M5050 1780 c-10 -6 -11 -10 -2 -10 16 0 16 -62 0 -78 -9 -9 -6 -12
16 -12 22 0 27 4 22 16 -3 9 -6 33 -6 55 0 41 -5 45 -30 29z"/>
<path d="M5275 1781 c-3 -5 -1 -12 5 -16 13 -8 13 -65 0 -65 -5 0 -10 -4 -10
-10 0 -5 11 -10 25 -10 14 0 25 5 25 10 0 6 -4 10 -10 10 -5 0 -10 20 -10 45
0 42 -11 58 -25 36z"/>
<path d="M5560 1740 c0 -27 5 -50 10 -50 6 0 10 9 10 20 0 13 7 20 20 20 13 0
20 -7 20 -20 0 -11 5 -20 10 -20 6 0 10 23 10 50 0 28 -4 50 -10 50 -5 0 -10
-9 -10 -20 0 -13 -7 -20 -20 -20 -13 0 -20 7 -20 20 0 11 -4 20 -10 20 -5 0
-10 -22 -10 -50z"/>
<path d="M5725 1781 c-3 -5 -1 -12 5 -16 13 -8 13 -65 0 -65 -5 0 -10 -4 -10
-10 0 -5 11 -10 25 -10 14 0 25 5 25 10 0 6 -4 10 -10 10 -5 0 -10 20 -10 45
0 42 -11 58 -25 36z"/>
<path d="M5950 1780 c-12 -8 -12 -10 -1 -10 10 0 12 -11 9 -45 -5 -40 -3 -45
14 -45 14 0 18 5 14 16 -3 9 -6 33 -6 55 0 41 -5 45 -30 29z"/>
<path d="M6243 1735 c0 -33 2 -48 4 -32 3 21 10 27 28 27 18 0 25 -6 28 -27 2
-16 4 -1 4 32 0 33 -2 50 -4 38 -3 -16 -11 -23 -28 -23 -17 0 -25 7 -28 23 -2
12 -4 -5 -4 -38z"/>
<path d="M6400 1780 c-12 -8 -12 -10 -1 -10 10 0 12 -11 9 -45 -5 -43 -4 -45
20 -45 20 0 23 3 14 12 -7 7 -12 31 -12 55 0 44 -5 49 -30 33z"/>
<path d="M560 1720 c0 -33 4 -60 10 -60 6 0 10 16 10 35 0 24 5 35 15 35 10 0
15 -11 15 -35 0 -19 5 -35 10 -35 11 0 14 49 4 74 -3 9 -15 16 -25 16 -10 0
-19 7 -19 15 0 8 -4 15 -10 15 -6 0 -10 -27 -10 -60z"/>
<path d="M355 1715 c0 -42 3 -55 15 -55 12 0 15 13 15 55 0 42 -3 55 -15 55
-12 0 -15 -13 -15 -55z"/>
<path d="M4051 1723 c1 -26 3 -39 6 -28 2 11 6 30 9 43 7 35 28 21 35 -24 l7
-39 -2 45 c-1 41 -3 45 -28 48 -27 3 -28 2 -27 -45z"/>
<path d="M4140 1754 c-29 -34 22 -96 53 -65 8 8 3 11 -17 11 -24 0 -27 3 -24
28 2 19 8 27 21 26 9 -1 17 2 17 7 0 15 -37 10 -50 -7z"/>
<path d="M4303 1725 c0 -27 2 -38 4 -22 2 15 2 37 0 50 -2 12 -4 0 -4 -28z"/>
<path d="M4350 1760 c0 -5 5 -10 11 -10 5 0 7 5 4 10 -3 6 -8 10 -11 10 -2 0
-4 -4 -4 -10z"/>
<path d="M400 1703 c0 -51 16 -50 22 2 4 41 22 34 28 -12 6 -42 20 -34 15 9
-4 38 -13 48 -41 48 -22 0 -24 -4 -24 -47z"/>
<path d="M491 1728 c-17 -45 24 -89 53 -57 8 9 7 11 -6 6 -24 -8 -45 20 -31
41 6 10 18 16 28 14 10 -2 14 1 10 7 -11 19 -45 12 -54 -11z"/>
<path d="M650 1705 c0 -28 4 -44 10 -40 6 3 10 21 10 40 0 19 -4 37 -10 40 -6
4 -10 -12 -10 -40z"/>
<path d="M700 1734 c0 -8 5 -12 10 -9 6 3 10 10 10 16 0 5 -4 9 -10 9 -5 0
-10 -7 -10 -16z"/>
<path d="M4350 1694 c0 -8 5 -12 10 -9 6 4 8 11 5 16 -9 14 -15 11 -15 -7z"/>
<path d="M4991 1692 c-13 -25 -14 -32 -2 -32 9 0 23 41 16 48 -2 2 -8 -5 -14
-16z"/>
<path d="M5215 1689 c-9 -28 1 -36 14 -10 7 12 7 22 2 26 -5 3 -13 -4 -16 -16z"/>
<path d="M5453 1680 c-6 -17 -7 -30 -2 -30 9 0 24 48 17 55 -2 2 -9 -9 -15
-25z"/>
<path d="M5665 1689 c-9 -28 1 -36 14 -10 7 12 7 22 2 26 -5 3 -13 -4 -16 -16z"/>
<path d="M5891 1691 c-6 -11 -7 -22 -2 -25 5 -3 11 4 14 16 8 30 1 35 -12 9z"/>
<path d="M6347 1703 c-4 -3 -7 -16 -6 -27 0 -19 1 -19 10 3 10 24 8 36 -4 24z"/>
<path d="M6566 1694 c-11 -28 -6 -39 9 -20 8 11 15 23 15 28 0 14 -18 9 -24
-8z"/>
<path d="M700 1676 c0 -9 5 -16 10 -16 6 0 10 4 10 9 0 6 -4 13 -10 16 -5 3
-10 -1 -10 -9z"/>
<path d="M4253 1360 c0 -36 2 -50 4 -32 2 17 2 47 0 65 -2 17 -4 3 -4 -33z"/>
<path d="M4686 1398 c-9 -12 -16 -37 -16 -55 0 -35 18 -83 32 -83 5 0 2 13 -7
30 -19 37 -19 57 0 94 19 36 13 45 -9 14z"/>
<path d="M4946 1392 c-20 -39 -3 -132 25 -132 6 0 3 7 -5 16 -22 21 -21 102 1
126 9 10 11 18 5 18 -6 0 -18 -12 -26 -28z"/>
<path d="M5124 1395 c20 -31 21 -84 0 -113 -8 -12 -11 -22 -5 -22 16 0 31 35
31 74 0 39 -18 86 -33 86 -5 0 -2 -11 7 -25z"/>
<path d="M5415 1393 c19 -40 19 -66 0 -103 -9 -17 -12 -30 -7 -30 14 0 32 48
32 84 0 20 -9 44 -20 57 l-21 24 16 -32z"/>
<path d="M5672 1395 c-21 -46 -8 -135 19 -135 7 0 5 9 -5 25 -9 13 -16 38 -16
55 0 17 7 42 16 55 9 14 12 25 7 25 -5 0 -15 -11 -21 -25z"/>
<path d="M5842 1403 c9 -10 18 -25 21 -33 4 -10 6 -11 6 -2 1 20 -18 52 -31
52 -7 0 -5 -7 4 -17z"/>
<path d="M6132 1403 c9 -10 18 -27 21 -38 4 -17 5 -18 6 -2 1 24 -17 57 -31
57 -7 0 -5 -7 4 -17z"/>
<path d="M6400 1401 c-22 -42 -7 -141 22 -141 6 0 4 8 -5 18 -21 24 -22 90 -1
120 8 12 11 22 5 22 -6 0 -15 -9 -21 -19z"/>
<path d="M6574 1398 c9 -12 16 -38 16 -58 0 -20 -7 -46 -16 -58 -8 -12 -11
-22 -5 -22 17 0 31 36 31 80 0 44 -14 80 -31 80 -6 0 -3 -10 5 -22z"/>
<path d="M4641 1405 c-2 -5 -2 -20 -1 -33 1 -13 -3 -29 -9 -35 -6 -8 -6 -18
-1 -27 15 -24 21 -5 17 51 -2 30 -5 50 -6 44z"/>
<path d="M4744 1385 c-9 -15 -14 -34 -10 -48 6 -27 48 -52 70 -44 27 11 18 24
-14 19 -25 -3 -30 0 -36 22 -9 39 1 56 36 56 18 0 29 4 25 10 -12 19 -54 10
-71 -15z"/>
<path d="M4846 1388 c-22 -31 -20 -51 8 -77 24 -23 56 -25 63 -5 2 7 -8 9 -26
6 -26 -3 -31 0 -37 22 -9 39 1 56 36 56 18 0 29 4 25 10 -11 18 -53 11 -69
-12z"/>
<path d="M5012 1398 c-28 -28 -5 -108 32 -108 20 0 46 34 46 62 0 44 -50 74
-78 46z m53 -48 c0 -29 -4 -36 -22 -38 -17 -3 -24 3 -29 22 -9 37 2 58 28 54
19 -2 23 -9 23 -38z"/>
<path d="M5294 1385 c-21 -33 -11 -72 22 -87 23 -11 29 -9 45 11 23 28 24 49
3 79 -20 29 -50 28 -70 -3z m61 -35 c0 -31 -3 -35 -25 -35 -19 0 -26 6 -28 23
-5 36 5 54 30 50 19 -2 23 -9 23 -38z"/>
<path d="M5477 1392 c-22 -24 -21 -65 1 -85 21 -19 48 -22 57 -7 4 6 -5 10
-20 10 -17 0 -28 7 -34 23 -12 30 4 57 34 57 14 0 25 5 25 10 0 17 -46 11 -63
-8z"/>
<path d="M5577 1392 c-22 -24 -21 -65 1 -85 22 -20 46 -22 60 -4 8 9 3 12 -21
12 -30 0 -32 2 -32 35 0 31 3 35 28 38 15 2 27 8 27 13 0 16 -46 10 -63 -9z"/>
<path d="M5737 1392 c-23 -25 -21 -65 3 -87 42 -38 93 22 66 77 -15 29 -47 34
-69 10z m59 -17 c4 -8 3 -27 0 -41 -5 -19 -12 -25 -29 -22 -22 3 -34 35 -23
64 7 19 45 18 52 -1z"/>
<path d="M6026 1394 c-31 -30 -9 -104 31 -104 19 0 43 37 43 66 0 50 -41 71
-74 38z m60 -29 c11 -46 -35 -75 -56 -35 -8 14 -8 26 0 40 15 29 48 26 56 -5z"/>
<path d="M6202 1398 c-18 -18 -14 -73 6 -91 21 -19 48 -22 57 -7 3 6 -4 10
-18 10 -32 0 -51 24 -43 55 5 20 13 25 37 25 18 0 28 4 24 10 -9 14 -48 13
-63 -2z"/>
<path d="M6302 1398 c-18 -18 -14 -73 6 -91 21 -19 48 -22 57 -7 3 6 -4 10
-18 10 -32 0 -51 24 -43 55 5 20 13 25 37 25 18 0 28 4 24 10 -9 14 -48 13
-63 -2z"/>
<path d="M6462 1398 c-28 -28 -3 -108 35 -108 18 0 43 36 43 63 0 46 -49 74
-78 45z m53 -48 c0 -28 -4 -36 -22 -38 -14 -2 -23 3 -28 17 -10 34 4 63 28 59
18 -2 22 -10 22 -38z"/>
<path d="M6752 1398 c-7 -7 -12 -29 -12 -50 0 -31 5 -41 25 -50 21 -9 28 -8
45 7 25 23 26 67 2 88 -22 20 -43 22 -60 5z m53 -48 c0 -29 -4 -36 -22 -38
-17 -3 -24 3 -29 22 -9 37 2 58 28 54 19 -2 23 -9 23 -38z"/>
<path d="M600 1341 c0 -34 3 -61 8 -61 11 0 13 108 2 115 -6 4 -10 -17 -10
-54z"/>
<path d="M4007 1373 c-15 -14 -6 -34 21 -45 l27 -12 -27 -4 c-31 -4 -39 -22
-10 -22 42 0 56 46 17 56 -14 3 -25 11 -25 16 0 6 11 8 25 6 14 -3 25 -1 25 3
0 10 -44 12 -53 2z"/>
<path d="M4070 1340 c0 -47 17 -54 22 -8 4 46 28 49 28 4 0 -44 18 -48 22 -4
4 46 28 49 28 4 0 -20 5 -36 11 -36 6 0 9 16 7 37 l-3 38 -57 3 -58 2 0 -40z"/>
<path d="M4210 1340 c0 -22 5 -40 10 -40 6 0 10 18 10 40 0 22 -4 40 -10 40
-5 0 -10 -18 -10 -40z"/>
<path d="M4292 1368 c-15 -15 -15 -38 2 -60 15 -20 41 -24 51 -8 4 6 -5 10
-19 10 -14 0 -26 5 -26 10 0 6 12 10 26 10 21 0 25 4 22 23 -3 25 -36 35 -56
15z m43 -8 c3 -5 -3 -10 -15 -10 -12 0 -18 5 -15 10 3 6 10 10 15 10 5 0 12
-4 15 -10z"/>
<path d="M4375 1370 c-8 -13 13 -40 31 -40 26 0 14 -19 -13 -22 -25 -4 -26 -5
-9 -13 22 -10 51 5 51 26 0 8 -10 18 -22 24 -28 12 -30 29 -3 22 11 -3 20 -1
20 4 0 13 -47 11 -55 -1z"/>
<path d="M4460 1370 c0 -5 5 -10 10 -10 6 0 10 5 10 10 0 6 -4 10 -10 10 -5 0
-10 -4 -10 -10z"/>
<path d="M4600 1375 c0 -5 5 -17 10 -25 5 -8 10 -10 10 -5 0 6 -5 17 -10 25
-5 8 -10 11 -10 5z"/>
<path d="M5198 1363 c12 -2 32 -2 45 0 12 2 2 4 -23 4 -25 0 -35 -2 -22 -4z"/>
<path d="M5923 1363 c15 -2 37 -2 50 0 12 2 0 4 -28 4 -27 0 -38 -2 -22 -4z"/>
<path d="M6648 1363 c12 -2 32 -2 45 0 12 2 2 4 -23 4 -25 0 -35 -2 -22 -4z"/>
<path d="M354 1345 c-8 -20 4 -35 27 -35 10 0 19 -4 19 -10 0 -5 -11 -10 -25
-10 -14 0 -25 -4 -25 -10 0 -16 47 -11 54 6 10 25 7 32 -14 39 -11 3 -20 11
-20 17 0 6 9 8 20 5 11 -3 20 -1 20 4 0 15 -50 10 -56 -6z"/>
<path d="M426 1344 c-9 -24 -7 -64 3 -64 6 0 11 14 13 32 4 46 28 49 28 4 0
-44 18 -48 22 -4 4 46 28 49 28 4 0 -20 5 -36 11 -36 6 0 9 16 7 37 l-3 38
-52 2 c-38 2 -53 -1 -57 -13z"/>
<path d="M560 1320 c0 -22 5 -40 10 -40 6 0 10 18 10 40 0 22 -4 40 -10 40 -5
0 -10 -18 -10 -40z"/>
<path d="M640 1335 c-7 -18 -6 -31 3 -45 13 -21 42 -27 52 -10 4 6 -5 10 -19
10 -14 0 -26 5 -26 10 0 6 12 10 26 10 21 0 25 4 22 23 -5 34 -45 36 -58 2z
m45 6 c7 -12 -12 -24 -25 -16 -11 7 -4 25 10 25 5 0 11 -4 15 -9z"/>
<path d="M725 1350 c-8 -13 13 -40 31 -40 26 0 14 -19 -13 -22 -25 -4 -26 -5
-9 -13 22 -10 51 5 51 26 0 8 -10 18 -22 24 -28 12 -30 29 -3 22 11 -3 20 -1
20 4 0 13 -47 11 -55 -1z"/>
<path d="M810 1350 c0 -5 5 -10 10 -10 6 0 10 5 10 10 0 6 -4 10 -10 10 -5 0
-10 -4 -10 -10z"/>
<path d="M5866 1322 c-4 -18 -14 -39 -23 -47 -8 -9 -10 -15 -3 -15 13 0 43 67
37 83 -2 7 -7 -3 -11 -21z"/>
<path d="M5198 1323 c12 -2 32 -2 45 0 12 2 2 4 -23 4 -25 0 -35 -2 -22 -4z"/>
<path d="M5923 1323 c15 -2 37 -2 50 0 12 2 0 4 -28 4 -27 0 -38 -2 -22 -4z"/>
<path d="M6151 1316 c0 -11 -8 -28 -18 -38 -9 -10 -11 -18 -5 -18 16 0 34 37
29 58 -4 14 -5 14 -6 -2z"/>
<path d="M6648 1323 c12 -2 32 -2 45 0 12 2 2 4 -23 4 -25 0 -35 -2 -22 -4z"/>
<path d="M4460 1310 c0 -5 5 -10 10 -10 6 0 10 5 10 10 0 6 -4 10 -10 10 -5 0
-10 -4 -10 -10z"/>
<path d="M810 1290 c0 -5 5 -10 10 -10 6 0 10 5 10 10 0 6 -4 10 -10 10 -5 0
-10 -4 -10 -10z"/>
<path d="M5840 995 c0 -9 -11 -20 -24 -25 -48 -18 -41 -90 9 -90 24 0 25 3 25
65 0 36 -2 65 -5 65 -3 0 -5 -7 -5 -15z m-5 -66 c0 -15 -7 -25 -17 -27 -13 -3
-18 3 -18 21 0 13 3 27 7 31 13 12 28 -1 28 -25z"/>
<path d="M6101 948 c-1 -66 0 -68 24 -68 52 0 59 80 7 88 -12 2 -23 12 -25 25
-2 12 -5 -8 -6 -45z m47 -21 c3 -22 -1 -27 -17 -27 -21 0 -26 15 -15 45 9 23
29 13 32 -18z"/>
<path d="M5069 984 c-16 -20 -1 -48 30 -52 34 -5 26 -32 -10 -32 -17 0 -28 -4
-24 -10 10 -15 51 -12 66 6 16 20 2 46 -30 54 -30 7 -28 24 4 28 14 2 23 8 20
13 -9 14 -41 11 -56 -7z"/>
<path d="M5470 945 c0 -59 17 -76 22 -23 4 46 28 49 28 4 0 -20 5 -36 11 -36
6 0 9 16 7 38 -2 30 -7 38 -25 40 -13 2 -23 10 -23 18 0 8 -4 14 -10 14 -5 0
-10 -25 -10 -55z"/>
<path d="M2190 971 c0 -12 -8 -21 -21 -23 -47 -7 -41 -88 6 -88 24 0 25 2 25
65 0 36 -2 65 -5 65 -3 0 -5 -9 -5 -19z m0 -65 c0 -28 -8 -36 -26 -29 -17 6
-19 50 -1 56 18 7 27 -2 27 -27z"/>
<path d="M5958 979 c-2 -7 -1 -30 2 -53 4 -30 10 -42 25 -44 16 -3 18 -1 8 9
-16 16 -17 69 -2 69 6 0 4 7 -5 15 -18 18 -23 19 -28 4z"/>
<path d="M1424 966 c-15 -12 -17 -18 -8 -33 6 -10 21 -19 33 -21 34 -5 26 -32
-10 -32 -17 0 -28 -4 -24 -10 10 -15 51 -12 66 6 16 20 1 48 -30 52 -11 2 -21
10 -21 19 0 11 8 14 30 11 32 -5 41 6 14 16 -22 9 -28 8 -50 -8z"/>
<path d="M1823 928 c-1 -64 10 -87 17 -35 6 46 24 53 28 12 6 -51 24 -55 20
-5 -3 39 -6 45 -25 44 -16 0 -23 5 -23 18 0 10 -4 18 -8 18 -5 0 -9 -24 -9
-52z"/>
<path d="M2450 920 c0 -57 1 -60 25 -60 53 0 58 81 6 88 -15 2 -21 9 -17 18 3
8 1 14 -4 14 -6 0 -10 -27 -10 -60z m48 -13 c3 -22 -1 -27 -17 -27 -21 0 -26
15 -15 45 9 23 29 13 32 -18z"/>
<path d="M2309 958 c-5 -50 9 -98 28 -98 13 0 14 3 5 12 -15 15 -16 68 -1 68
6 0 4 7 -5 15 -18 18 -26 19 -27 3z"/>
<path d="M5172 958 c-27 -27 -7 -78 30 -78 10 0 18 5 18 10 0 6 -9 10 -20 10
-11 0 -20 5 -20 10 0 6 11 10 25 10 14 0 25 6 25 13 0 16 -20 37 -35 37 -6 0
-16 -5 -23 -12z m38 -19 c0 -5 -7 -9 -15 -9 -15 0 -20 12 -9 23 8 8 24 -1 24
-14z"/>
<path d="M5270 961 l25 -7 -23 -13 c-33 -18 -26 -55 11 -59 27 -3 28 -2 25 40
-3 40 -5 43 -33 45 -28 2 -28 1 -5 -6z m30 -46 c0 -8 -9 -15 -20 -15 -20 0
-26 11 -13 23 12 13 33 7 33 -8z"/>
<path d="M5341 920 c1 -25 3 -36 6 -25 2 11 6 30 8 42 3 12 13 24 23 26 9 3 5
4 -10 4 -26 -1 -28 -4 -27 -47z"/>
<path d="M5404 945 c-3 -14 -4 -32 0 -40 8 -21 35 -30 49 -16 8 8 5 11 -11 11
-13 0 -25 7 -28 15 -8 19 15 48 33 41 7 -3 13 -1 13 4 0 6 -11 10 -25 10 -18
0 -26 -7 -31 -25z"/>
<path d="M5610 925 c0 -28 4 -44 10 -40 6 3 10 21 10 40 0 19 -4 37 -10 40 -6
4 -10 -12 -10 -40z"/>
<path d="M5651 923 c1 -26 3 -39 6 -28 2 11 6 30 9 43 7 35 28 21 35 -24 l7
-39 -2 45 c-1 41 -3 45 -28 48 -27 3 -28 2 -27 -45z"/>
<path d="M5899 962 l24 -7 -27 -13 c-30 -13 -32 -38 -5 -55 30 -19 51 -1 47
40 -3 34 -6 38 -33 40 -27 2 -27 1 -6 -5z m21 -47 c0 -8 -7 -15 -15 -15 -8 0
-15 7 -15 15 0 8 7 15 15 15 8 0 15 -7 15 -15z"/>
<path d="M6034 961 l30 -6 -28 -13 c-39 -18 -33 -57 9 -57 25 0 30 4 33 28 4
36 -13 57 -47 56 -25 -1 -25 -1 3 -8z m26 -46 c0 -8 -7 -15 -15 -15 -8 0 -15
7 -15 15 0 8 7 15 15 15 8 0 15 -7 15 -15z"/>
<path d="M6209 963 l24 -5 -29 -23 c-25 -20 -27 -25 -15 -39 7 -9 24 -16 38
-16 22 0 24 3 21 43 -3 39 -5 42 -33 44 -23 1 -25 0 -6 -4z m31 -43 c0 -12
-28 -25 -36 -17 -9 9 6 27 22 27 8 0 14 -5 14 -10z"/>
<path d="M6282 958 c-14 -14 2 -38 24 -38 26 0 14 -19 -13 -22 -25 -4 -26 -5
-9 -13 20 -9 47 3 54 23 2 7 -8 16 -22 22 -31 11 -36 35 -6 27 11 -3 20 -1 20
4 0 13 -34 11 -48 -3z"/>
<path d="M6354 943 c-4 -14 -2 -33 3 -42 12 -18 53 -28 53 -12 0 6 -11 11 -25
11 -14 0 -25 5 -25 10 0 6 11 10 23 10 31 0 38 9 26 31 -15 29 -47 24 -55 -8z
m43 -9 c-3 -4 -14 -3 -24 0 -15 6 -15 8 -3 16 16 10 39 -4 27 -16z"/>
<path d="M1522 938 c-27 -27 -7 -78 30 -78 10 0 18 5 18 10 0 6 -9 10 -20 10
-11 0 -20 5 -20 10 0 6 11 10 25 10 14 0 25 6 25 13 0 16 -20 37 -35 37 -6 0
-16 -5 -23 -12z m38 -19 c0 -5 -7 -9 -15 -9 -15 0 -20 12 -9 23 8 8 24 -1 24
-14z"/>
<path d="M1618 943 c28 -5 29 -19 1 -26 -15 -4 -20 -12 -17 -29 2 -18 9 -23
33 -23 28 0 30 2 27 35 -5 46 -8 50 -40 49 -24 -2 -24 -2 -4 -6z m32 -47 c0
-8 -4 -17 -8 -20 -13 -8 -35 11 -28 23 10 16 36 14 36 -3z"/>
<path d="M1692 900 c1 -36 2 -39 5 -13 3 19 14 39 26 48 22 15 22 15 -6 13
-25 -2 -27 -5 -25 -48z"/>
<path d="M1754 923 c-4 -14 -2 -33 3 -42 12 -18 53 -28 53 -12 0 6 -9 11 -20
11 -11 0 -23 7 -26 15 -8 19 15 48 33 41 7 -3 13 -1 13 4 0 6 -11 10 -25 10
-18 0 -26 -7 -31 -27z"/>
<path d="M1960 905 c0 -28 4 -44 10 -40 6 3 10 21 10 40 0 19 -4 37 -10 40 -6
4 -10 -12 -10 -40z"/>
<path d="M2000 905 c0 -25 4 -44 9 -41 5 3 7 15 4 26 -6 22 14 53 28 44 5 -3
9 -21 9 -40 0 -19 4 -33 8 -30 5 3 6 22 3 43 -5 32 -10 38 -34 41 -26 3 -27 2
-27 -43z"/>
<path d="M2248 943 c24 -5 31 -23 8 -23 -7 0 -19 -7 -26 -15 -17 -20 3 -45 37
-45 22 0 24 3 21 43 -3 39 -5 42 -33 44 -20 1 -23 0 -7 -4z m22 -53 c0 -13 -5
-18 -15 -14 -8 4 -15 12 -15 20 0 8 7 14 15 14 8 0 15 -9 15 -20z"/>
<path d="M2390 940 l25 -7 -28 -12 c-21 -8 -28 -17 -25 -34 2 -17 10 -22 33
-22 25 0 30 4 33 28 4 34 -13 57 -42 56 -19 -1 -18 -2 4 -9z m20 -45 c0 -8 -7
-15 -15 -15 -8 0 -15 7 -15 15 0 8 7 15 15 15 8 0 15 -7 15 -15z"/>
<path d="M2558 943 c24 -5 31 -23 8 -23 -7 0 -19 -7 -26 -15 -17 -20 3 -45 37
-45 22 0 24 3 21 43 -3 39 -5 42 -33 44 -20 1 -23 0 -7 -4z m32 -47 c0 -8 -4
-17 -8 -20 -13 -8 -35 11 -28 23 10 16 36 14 36 -3z"/>
<path d="M2632 938 c-14 -14 2 -38 24 -38 26 0 14 -19 -13 -22 -25 -4 -26 -5
-9 -13 20 -9 47 3 54 23 2 7 -8 16 -23 22 -15 6 -23 15 -20 21 4 6 13 8 21 5
8 -3 14 -1 14 4 0 14 -34 12 -48 -2z"/>
<path d="M2704 923 c-4 -14 -2 -33 3 -42 12 -18 53 -28 53 -12 0 6 -9 11 -20
11 -11 0 -20 5 -20 10 0 6 11 10 25 10 28 0 29 3 15 31 -16 28 -48 24 -56 -8z
m43 -9 c-3 -4 -14 -3 -24 0 -15 6 -15 8 -3 16 16 10 39 -4 27 -16z"/>
<path d="M5580 545 c-15 -18 1 -42 39 -56 28 -11 19 -25 -19 -31 -23 -4 -23
-5 -6 -13 47 -21 70 40 24 63 -37 17 -35 32 3 32 17 0 28 4 24 10 -9 15 -51
12 -65 -5z"/>
<path d="M1932 524 c-16 -18 -2 -41 35 -55 33 -12 28 -27 -9 -31 -28 -3 -30
-5 -14 -13 25 -11 51 6 51 36 0 16 -7 25 -24 29 -38 9 -38 30 -1 30 18 0 29 4
25 10 -9 15 -48 11 -63 -6z"/>
<path d="M5700 521 c25 -7 25 -7 3 -13 -13 -3 -26 -14 -29 -23 -9 -23 16 -46
44 -38 20 5 23 11 20 42 -3 32 -6 36 -33 38 -28 2 -28 1 -5 -6z m20 -46 c0 -8
-7 -15 -15 -15 -8 0 -15 7 -15 15 0 8 7 15 15 15 8 0 15 -7 15 -15z"/>
<path d="M5750 526 c0 -15 32 -76 40 -76 14 0 13 4 -11 44 -19 32 -29 43 -29
32z"/>
<path d="M5805 510 c-4 -12 -5 -24 -2 -27 3 -2 8 5 12 17 4 12 5 24 2 27 -3 2
-8 -5 -12 -17z"/>
<path d="M5838 505 c-10 -22 -9 -29 9 -47 15 -15 27 -18 40 -12 15 7 14 8 -9
12 -35 4 -37 22 -2 22 21 0 25 4 22 23 -5 34 -45 35 -60 2z m47 5 c3 -5 -3
-10 -15 -10 -12 0 -18 5 -15 10 3 6 10 10 15 10 5 0 12 -4 15 -10z"/>
<path d="M2050 501 c25 -7 25 -7 3 -13 -13 -3 -26 -14 -29 -23 -9 -23 16 -46
44 -38 20 5 23 11 20 42 -3 32 -6 36 -33 38 -28 2 -28 1 -5 -6z m24 -46 c-4
-8 -12 -15 -20 -15 -8 0 -14 7 -14 15 0 8 9 15 20 15 13 0 18 -5 14 -15z"/>
<path d="M2100 507 c0 -16 32 -77 40 -77 13 0 13 1 -6 38 -13 28 -34 51 -34
39z"/>
<path d="M2155 489 c-10 -30 0 -33 13 -4 6 14 7 25 2 25 -5 0 -12 -9 -15 -21z"/>
<path d="M2190 484 c-9 -23 -8 -31 9 -47 14 -14 25 -17 38 -11 15 7 14 8 -9
12 -35 4 -37 22 -2 22 21 0 25 4 22 23 -5 35 -45 36 -58 1z m45 6 c3 -5 -3
-10 -15 -10 -12 0 -18 5 -15 10 3 6 10 10 15 10 5 0 12 -4 15 -10z"/>
</g>
</svg>
