<?xml version="1.0" standalone="no"?>
<!DOCTYPE svg PUBLIC "-//W3C//DTD SVG 20010904//EN"
 "http://www.w3.org/TR/2001/REC-SVG-20010904/DTD/svg10.dtd">
<svg version="1.0" xmlns="http://www.w3.org/2000/svg"
 width="622.000000pt" height="427.000000pt" viewBox="0 0 622.000000 427.000000"
 preserveAspectRatio="xMidYMid meet">

<g transform="translate(0.000000,427.000000) scale(0.100000,-0.100000)"
fill="#000000" stroke="none">
<path d="M5990 4194 c0 -4 8 -13 17 -19 17 -12 17 -14 -1 -34 -22 -24 -16 -27
14 -8 17 10 22 9 30 -3 5 -8 12 -11 16 -7 4 3 1 14 -6 22 -10 12 -10 19 -2 27
20 20 13 32 -7 14 -16 -15 -19 -15 -31 -1 -13 15 -30 20 -30 9z"/>
<path d="M229 4174 c-18 -22 1 -48 39 -52 25 -3 31 1 35 20 4 21 4 21 6 2 1
-17 8 -21 39 -22 26 0 31 2 18 7 -19 7 -19 8 2 13 16 5 22 2 23 -10 1 -10 4
-7 9 8 8 24 8 24 9 3 1 -13 5 -23 10 -23 5 0 12 10 14 23 l4 22 2 -22 c0 -13
6 -23 12 -23 6 0 9 12 7 28 -3 28 -26 36 -59 21 -9 -5 -21 -3 -27 3 -8 8 -15
8 -24 0 -9 -7 -18 -6 -32 4 -26 19 -70 18 -87 -2z m51 -19 c0 -25 -23 -35 -35
-15 -10 16 2 40 20 40 9 0 15 -9 15 -25z"/>
<path d="M580 4155 c0 -19 5 -35 10 -35 6 0 10 16 10 35 0 19 -4 35 -10 35 -5
0 -10 -16 -10 -35z"/>
<path d="M630 4155 c0 -34 13 -47 23 -22 4 10 6 10 6 0 1 -8 14 -13 34 -13 21
0 28 3 19 9 -11 7 -11 9 0 13 7 3 19 3 27 0 10 -3 11 -6 1 -12 -7 -5 12 -8 43
-8 43 1 57 5 60 17 4 13 5 13 6 -1 0 -10 5 -18 11 -18 5 0 14 8 19 18 10 16
10 16 11 0 0 -12 8 -18 23 -18 16 0 18 3 9 9 -11 7 -11 9 2 14 10 4 16 1 16
-8 0 -8 5 -15 10 -15 6 0 10 6 10 14 0 8 3 22 7 31 5 15 3 16 -15 6 -11 -6
-23 -7 -26 -2 -7 11 -56 1 -56 -12 0 -5 -8 0 -19 11 -22 26 -31 28 -31 6 0
-13 -3 -14 -14 -5 -11 9 -17 8 -29 -4 -20 -19 -28 -19 -21 0 7 17 -7 20 -23 4
-7 -7 -13 -7 -17 0 -4 5 -13 8 -20 5 -8 -3 -17 -1 -21 5 -3 6 -15 11 -26 11
-15 0 -19 -7 -19 -35z m170 -11 c0 -8 -4 -12 -10 -9 -5 3 -10 10 -10 16 0 5 5
9 10 9 6 0 10 -7 10 -16z"/>
<path d="M1009 4181 c11 -7 10 -13 -4 -35 l-17 -26 36 0 c20 0 36 4 36 9 0 4
-12 6 -27 4 -24 -4 -25 -3 -10 7 26 16 22 50 -5 50 -17 0 -19 -3 -9 -9z"/>
<path d="M1065 4171 c-8 -26 4 -51 25 -51 10 0 21 7 24 16 10 25 -3 54 -24 54
-10 0 -21 -8 -25 -19z m31 -28 c-11 -11 -19 6 -11 24 8 17 8 17 12 0 3 -10 2
-21 -1 -24z"/>
<path d="M5633 4158 c2 -29 6 -33 32 -34 27 -1 27 0 3 3 -20 3 -28 11 -32 34
-6 28 -6 27 -3 -3z"/>
<path d="M495 4163 c-11 -10 -14 -10 -18 0 -3 6 -6 -1 -6 -18 -1 -23 2 -26 9
-15 6 10 10 11 10 3 0 -8 15 -13 41 -13 38 0 40 1 37 28 -2 22 -8 27 -32 27
-16 1 -34 -5 -41 -12z m39 -18 c-7 -17 -20 -20 -28 -6 -7 10 3 21 20 21 8 0
11 -6 8 -15z"/>
<path d="M5270 4160 c0 -5 15 -10 34 -10 19 0 38 5 41 10 4 6 -10 10 -34 10
-23 0 -41 -4 -41 -10z"/>
<path d="M266 3970 c-19 -20 -15 -40 10 -40 9 0 14 11 14 30 0 35 1 34 -24 10z
m14 -20 c0 -5 -4 -10 -10 -10 -5 0 -10 5 -10 10 0 6 5 10 10 10 6 0 10 -4 10
-10z"/>
<path d="M1117 3983 c-4 -3 -7 -18 -7 -31 0 -31 7 -26 14 11 5 28 4 31 -7 20z"/>
<path d="M1691 3964 c-1 -19 4 -31 12 -31 7 0 13 8 13 18 0 10 -3 16 -7 13 -4
-2 -10 4 -12 13 -3 10 -5 4 -6 -13z"/>
<path d="M130 3955 c0 -14 4 -25 9 -25 4 0 6 11 3 25 -2 14 -6 25 -8 25 -2 0
-4 -11 -4 -25z"/>
<path d="M320 3954 c0 -15 3 -23 8 -18 4 5 10 11 13 14 4 3 1 11 -7 18 -12 11
-14 8 -14 -14z"/>
<path d="M780 3954 c0 -15 3 -23 8 -18 4 5 10 11 13 14 4 3 1 11 -7 18 -12 11
-14 8 -14 -14z"/>
<path d="M1052 3955 c0 -16 2 -22 5 -12 2 9 2 23 0 30 -3 6 -5 -1 -5 -18z"/>
<path d="M180 3960 c13 -9 13 -11 0 -20 -13 -8 -12 -10 3 -10 10 0 17 8 17 20
0 12 -7 20 -17 20 -15 0 -16 -2 -3 -10z"/>
<path d="M216 3954 c-9 -23 -8 -24 12 -24 14 0 15 2 2 10 -10 6 -11 10 -2 10
6 0 12 5 12 10 0 16 -17 12 -24 -6z"/>
<path d="M404 3959 c-3 -6 -1 -16 5 -22 9 -9 10 -7 5 7 -6 16 -4 18 10 13 10
-4 15 -3 11 3 -8 13 -22 13 -31 -1z"/>
<path d="M593 3956 c14 -11 15 -15 5 -19 -8 -4 -7 -6 5 -6 25 -1 21 26 -5 32
-21 6 -22 5 -5 -7z"/>
<path d="M636 3955 c-2 -7 -2 -16 1 -19 12 -12 31 -6 35 12 6 21 -27 28 -36 7z"/>
<path d="M713 3945 c10 -18 11 -18 15 -2 2 9 8 14 14 11 6 -4 8 -2 4 4 -3 6
-15 10 -25 9 -17 -1 -18 -4 -8 -22z"/>
<path d="M864 3959 c-3 -6 -1 -16 5 -22 9 -9 10 -7 5 7 -6 16 -4 18 10 13 10
-4 15 -3 11 3 -8 13 -22 13 -31 -1z"/>
<path d="M1072 3950 c0 -14 2 -19 5 -12 2 6 2 18 0 25 -3 6 -5 1 -5 -13z"/>
<path d="M1092 3950 c0 -14 2 -19 5 -12 2 6 2 18 0 25 -3 6 -5 1 -5 -13z"/>
<path d="M1150 3960 c13 -9 13 -11 0 -20 -13 -8 -12 -10 3 -10 10 0 17 8 17
20 0 12 -7 20 -17 20 -15 0 -16 -2 -3 -10z"/>
<path d="M1384 3959 c-3 -6 -1 -16 5 -22 8 -8 11 -5 11 11 0 24 -5 28 -16 11z"/>
<path d="M1444 3954 c3 -8 2 -12 -4 -9 -6 3 -10 1 -10 -4 0 -6 7 -11 15 -11 8
0 15 9 15 20 0 11 -5 20 -11 20 -6 0 -8 -7 -5 -16z"/>
<path d="M1471 3948 c1 -17 3 -18 6 -5 2 9 8 17 13 17 5 0 11 -8 14 -17 4 -14
4 -14 3 2 -3 30 -37 33 -36 3z"/>
<path d="M1614 3959 c-10 -17 13 -36 27 -22 12 12 4 33 -11 33 -5 0 -12 -5
-16 -11z m26 -9 c0 -5 -4 -10 -10 -10 -5 0 -10 5 -10 10 0 6 5 10 10 10 6 0
10 -4 10 -10z"/>
<path d="M1662 3950 c0 -14 2 -19 5 -12 2 6 2 18 0 25 -3 6 -5 1 -5 -13z"/>
<path d="M680 3940 c0 -5 5 -10 10 -10 6 0 10 5 10 10 0 6 -4 10 -10 10 -5 0
-10 -4 -10 -10z"/>
<path d="M1580 3940 c0 -5 5 -10 10 -10 6 0 10 5 10 10 0 6 -4 10 -10 10 -5 0
-10 -4 -10 -10z"/>
<path d="M110 3815 c-10 -12 -10 -18 0 -30 7 -8 17 -15 23 -15 6 0 2 7 -9 15
-19 15 -19 15 0 30 11 8 15 15 9 15 -6 0 -16 -7 -23 -15z"/>
<path d="M156 3815 c3 -8 10 -13 14 -10 5 3 11 -3 13 -12 4 -16 5 -17 6 -1 0
10 -8 22 -19 28 -16 9 -18 8 -14 -5z"/>
<path d="M412 3805 c0 -16 2 -22 5 -12 2 9 2 23 0 30 -3 6 -5 -1 -5 -18z"/>
<path d="M1162 3800 c0 -19 2 -27 5 -17 2 9 2 25 0 35 -3 9 -5 1 -5 -18z"/>
<path d="M1711 3798 c0 -27 2 -29 8 -13 l8 20 5 -20 c5 -17 6 -18 7 -2 0 10
-6 25 -14 33 -13 14 -15 12 -14 -18z"/>
<path d="M2262 3800 c0 -19 2 -27 5 -17 2 9 2 25 0 35 -3 9 -5 1 -5 -18z"/>
<path d="M204 3807 c-7 -19 2 -37 19 -37 8 0 7 3 -2 9 -11 7 -11 9 0 14 11 3
11 7 2 17 -10 11 -14 10 -19 -3z"/>
<path d="M243 3805 c-3 -9 -3 -19 1 -22 3 -4 6 1 6 11 0 21 32 18 42 -4 6 -11
7 -10 5 4 -3 24 -45 32 -54 11z"/>
<path d="M333 3804 c-3 -8 -2 -19 3 -24 5 -5 9 1 9 16 0 28 -3 30 -12 8z"/>
<path d="M373 3813 c4 -3 2 -12 -4 -19 -13 -16 8 -31 23 -16 13 13 3 42 -13
42 -7 0 -9 -3 -6 -7z m17 -23 c0 -5 -5 -10 -11 -10 -5 0 -7 5 -4 10 3 6 8 10
11 10 2 0 4 -4 4 -10z"/>
<path d="M435 3811 c-3 -5 0 -13 6 -17 8 -4 7 -9 -2 -15 -10 -6 -10 -9 -2 -9
16 0 26 17 13 25 -6 4 -8 11 -5 16 4 5 4 9 1 9 -3 0 -7 -4 -11 -9z"/>
<path d="M520 3810 c0 -6 4 -9 9 -5 5 3 12 -2 14 -10 4 -12 5 -12 3 1 -1 19
-26 32 -26 14z"/>
<path d="M564 3806 c-3 -8 -4 -23 -2 -32 3 -16 4 -16 18 1 9 11 10 16 3 11 -8
-4 -13 -1 -13 9 0 10 5 13 12 9 7 -4 8 -3 4 4 -10 16 -15 15 -22 -2z"/>
<path d="M860 3809 c0 -5 5 -7 10 -4 6 3 10 8 10 11 0 2 -4 4 -10 4 -5 0 -10
-5 -10 -11z"/>
<path d="M910 3804 c0 -8 4 -13 9 -9 5 3 12 -3 14 -12 4 -14 5 -14 6 3 0 12
-6 24 -14 28 -9 3 -15 0 -15 -10z"/>
<path d="M1243 3804 c-3 -8 -2 -19 3 -24 5 -5 9 1 9 16 0 28 -3 30 -12 8z"/>
<path d="M1275 3795 c0 -13 3 -21 8 -18 4 2 7 10 7 18 0 8 -3 16 -7 18 -5 3
-8 -5 -8 -18z"/>
<path d="M1340 3796 c0 -31 6 -34 13 -6 3 11 1 23 -4 26 -5 3 -9 -6 -9 -20z"/>
<path d="M1450 3810 c0 -5 5 -10 11 -10 5 0 7 5 4 10 -3 6 -8 10 -11 10 -2 0
-4 -4 -4 -10z"/>
<path d="M1960 3809 c0 -5 5 -7 10 -4 6 3 10 8 10 11 0 2 -4 4 -10 4 -5 0 -10
-5 -10 -11z"/>
<path d="M2010 3804 c0 -8 4 -13 9 -9 5 3 12 -3 14 -12 4 -14 5 -14 6 3 0 12
-6 24 -14 28 -9 3 -15 0 -15 -10z"/>
<path d="M2528 3813 c-11 -3 -18 -13 -17 -26 1 -17 2 -18 6 -4 2 9 8 17 13 17
5 0 10 -8 12 -17 3 -15 5 -14 10 4 7 26 1 31 -24 26z"/>
<path d="M2900 3796 c0 -31 6 -34 13 -6 3 11 1 23 -4 26 -5 3 -9 -6 -9 -20z"/>
<path d="M2972 3795 c0 -16 2 -22 5 -12 2 9 2 23 0 30 -3 6 -5 -1 -5 -18z"/>
<path d="M3033 3810 c-28 -11 -30 -20 -4 -13 13 3 21 -1 24 -14 3 -12 5 -9 6
10 0 15 0 27 -1 26 -2 0 -13 -4 -25 -9z"/>
<path d="M311 3794 c0 -11 3 -14 6 -6 3 7 2 16 -1 19 -3 4 -6 -2 -5 -13z"/>
<path d="M603 3796 c1 -11 9 -21 17 -23 10 -3 11 -2 4 4 -6 4 -14 15 -17 23
-5 11 -6 9 -4 -4z"/>
<path d="M955 3799 c-4 -6 -4 -13 -1 -16 3 -4 6 -1 6 6 0 7 5 9 10 6 6 -3 10
-1 10 4 0 14 -17 14 -25 0z"/>
<path d="M991 3788 c1 -17 2 -19 6 -5 2 9 8 17 13 17 5 0 11 -8 13 -17 4 -15
5 -15 7 2 l1 20 9 -20 c8 -19 9 -19 9 3 1 18 -4 22 -29 22 -25 0 -30 -4 -29
-22z"/>
<path d="M1062 3790 c0 -14 2 -19 5 -12 2 6 2 18 0 25 -3 6 -5 1 -5 -13z"/>
<path d="M1087 3803 c-11 -10 -8 -33 4 -33 5 0 7 5 3 11 -3 6 0 15 7 20 8 5 9
9 3 9 -6 0 -14 -3 -17 -7z"/>
<path d="M1126 3794 c-4 -9 -4 -19 -1 -22 3 -3 5 1 5 9 0 11 2 11 10 -1 8 -12
10 -11 10 8 0 26 -15 29 -24 6z"/>
<path d="M1302 3790 c0 -14 2 -19 5 -12 2 6 2 18 0 25 -3 6 -5 1 -5 -13z"/>
<path d="M1322 3790 c0 -14 2 -19 5 -12 2 6 2 18 0 25 -3 6 -5 1 -5 -13z"/>
<path d="M1370 3799 c0 -5 4 -8 9 -4 5 3 12 -3 14 -12 4 -14 5 -13 6 5 1 13
-5 22 -14 22 -8 0 -15 -5 -15 -11z"/>
<path d="M1412 3790 c0 -14 2 -19 5 -12 2 6 2 18 0 25 -3 6 -5 1 -5 -13z"/>
<path d="M1751 3805 c0 -5 4 -19 8 -29 7 -19 8 -19 13 2 4 12 2 20 -2 17 -5
-3 -11 1 -13 7 -3 7 -5 9 -6 3z"/>
<path d="M1844 3799 c-3 -6 -1 -16 6 -22 10 -9 11 -9 5 2 -4 8 -2 17 6 22 9 6
10 9 2 9 -6 0 -15 -5 -19 -11z"/>
<path d="M1887 3804 c-14 -14 -7 -35 11 -32 9 2 17 10 17 17 0 16 -18 25 -28
15z m23 -14 c0 -5 -4 -10 -10 -10 -5 0 -10 5 -10 10 0 6 5 10 10 10 6 0 10 -4
10 -10z"/>
<path d="M2055 3799 c-4 -6 -4 -13 -1 -16 3 -4 6 -1 6 6 0 7 5 9 10 6 6 -3 10
-1 10 4 0 14 -17 14 -25 0z"/>
<path d="M2091 3788 c1 -17 2 -19 6 -5 2 9 8 17 13 17 5 0 11 -8 13 -17 4 -15
5 -15 7 2 l1 20 9 -20 c8 -19 9 -19 9 3 1 18 -4 22 -29 22 -25 0 -30 -4 -29
-22z"/>
<path d="M2162 3790 c0 -14 2 -19 5 -12 2 6 2 18 0 25 -3 6 -5 1 -5 -13z"/>
<path d="M2187 3803 c-11 -10 -8 -33 4 -33 5 0 7 5 3 11 -3 6 0 15 7 20 8 5 9
9 3 9 -6 0 -14 -3 -17 -7z"/>
<path d="M2226 3794 c-4 -9 -4 -19 -1 -22 3 -3 5 1 5 9 0 11 2 11 10 -1 8 -12
10 -11 10 8 0 26 -15 29 -24 6z"/>
<path d="M2350 3790 c0 -11 2 -20 4 -20 2 0 6 9 9 20 3 11 1 20 -4 20 -5 0 -9
-9 -9 -20z"/>
<path d="M2381 3788 c1 -18 2 -19 6 -5 2 9 9 15 14 12 5 -4 9 -1 9 4 0 6 -7
11 -15 11 -9 0 -15 -9 -14 -22z"/>
<path d="M2420 3778 c0 -30 1 -31 19 -14 11 10 25 15 30 11 6 -3 11 1 11 10 0
10 5 14 13 9 9 -5 9 -3 -1 7 -11 12 -14 12 -21 0 -6 -9 -11 -10 -15 -2 -15 23
-36 11 -36 -21z m30 12 c0 -5 -4 -10 -10 -10 -5 0 -10 5 -10 10 0 6 5 10 10
10 6 0 10 -4 10 -10z"/>
<path d="M2584 3799 c-3 -6 -1 -16 6 -22 10 -9 12 -8 6 7 -5 14 -2 17 9 12 9
-3 13 -2 10 4 -8 13 -22 13 -31 -1z"/>
<path d="M2850 3808 c0 -2 9 -11 20 -21 11 -9 20 -13 20 -7 0 5 -9 14 -20 20
-11 6 -20 9 -20 8z"/>
<path d="M2942 3790 c14 -22 24 -19 15 5 -4 8 -11 15 -17 15 -6 0 -6 -7 2 -20z"/>
<path d="M3094 3799 c-3 -6 -1 -16 6 -22 10 -9 11 -9 5 2 -4 8 -2 17 6 22 9 6
10 9 2 9 -6 0 -15 -5 -19 -11z"/>
<path d="M495 3780 c-3 -5 -1 -10 4 -10 6 0 11 5 11 10 0 6 -2 10 -4 10 -3 0
-8 -4 -11 -10z"/>
<path d="M860 3780 c0 -5 5 -10 11 -10 5 0 7 5 4 10 -3 6 -8 10 -11 10 -2 0
-4 -4 -4 -10z"/>
<path d="M1960 3780 c0 -5 5 -10 11 -10 5 0 7 5 4 10 -3 6 -8 10 -11 10 -2 0
-4 -4 -4 -10z"/>
<path d="M476 3581 c-4 -5 3 -7 14 -4 23 6 26 13 6 13 -8 0 -17 -4 -20 -9z"/>
<path d="M4214 3576 c-9 -22 -1 -48 18 -59 13 -9 22 -5 43 16 16 16 25 33 21
42 -7 20 -75 21 -82 1z"/>
<path d="M521 3553 c1 -17 3 -21 6 -10 6 24 21 21 26 -5 l4 -23 2 22 c0 13 -7
27 -19 33 -18 10 -20 8 -19 -17z"/>
<path d="M822 3555 c0 -16 2 -22 5 -12 2 9 2 23 0 30 -3 6 -5 -1 -5 -18z"/>
<path d="M912 3550 c0 -19 2 -27 5 -17 2 9 2 25 0 35 -3 9 -5 1 -5 -18z"/>
<path d="M1090 3552 c0 -18 4 -32 8 -32 9 0 8 47 -1 57 -4 3 -7 -8 -7 -25z"/>
<path d="M574 3556 c-7 -18 3 -36 19 -36 7 0 6 4 -3 10 -13 8 -12 10 3 10 10
0 17 5 15 12 -7 19 -27 21 -34 4z"/>
<path d="M625 3561 c-3 -6 0 -8 9 -5 9 4 16 -2 19 -18 5 -23 5 -23 4 1 -2 26
-21 39 -32 22z"/>
<path d="M678 3543 c5 -21 7 -23 10 -9 2 10 0 22 -6 28 -6 6 -7 0 -4 -19z"/>
<path d="M735 3560 c-3 -6 1 -7 9 -4 18 7 21 14 7 14 -6 0 -13 -4 -16 -10z"/>
<path d="M788 3562 c11 -7 11 -10 -2 -15 -9 -4 -16 -12 -15 -19 0 -10 2 -10 6
0 2 6 9 12 14 12 6 0 7 -4 4 -10 -3 -5 -1 -10 5 -10 17 0 8 43 -10 47 -12 4
-12 3 -2 -5z"/>
<path d="M846 3562 c-2 -4 2 -16 10 -27 8 -10 14 -14 14 -8 0 7 -5 15 -11 19
-8 4 -7 9 2 15 10 6 10 9 2 9 -6 0 -14 -3 -17 -8z"/>
<path d="M935 3561 c-3 -6 0 -8 9 -5 9 4 16 -2 19 -18 5 -23 5 -23 4 1 -2 26
-21 39 -32 22z"/>
<path d="M986 3561 c-4 -5 3 -7 14 -4 23 6 26 13 6 13 -8 0 -17 -4 -20 -9z"/>
<path d="M460 3551 c0 -10 29 -36 34 -30 1 2 -6 12 -16 22 -10 9 -18 13 -18 8z"/>
<path d="M730 3530 c0 -5 5 -10 11 -10 5 0 7 5 4 10 -3 6 -8 10 -11 10 -2 0
-4 -4 -4 -10z"/>
<path d="M988 3528 c5 -5 16 -8 23 -6 8 3 3 7 -10 11 -17 4 -21 3 -13 -5z"/>
<path d="M1040 3528 c0 -4 6 -8 14 -8 8 0 17 4 20 8 2 4 -4 8 -15 8 -10 0 -19
-4 -19 -8z"/>
<path d="M2556 3518 c-51 -73 21 -192 77 -130 18 20 22 42 8 42 -5 0 -11 -7
-15 -15 -3 -8 -15 -15 -26 -15 -28 0 -47 42 -34 78 12 35 42 40 65 11 l19 -24
0 36 c0 35 -1 36 -39 37 -31 1 -44 -3 -55 -20z"/>
<path d="M2687 3533 c-4 -3 -7 -39 -7 -80 0 -57 3 -73 14 -73 9 0 16 12 18 33
2 24 8 32 23 32 15 0 21 -8 23 -32 2 -21 9 -33 18 -33 12 0 14 14 12 77 -2 50
-7 78 -15 81 -9 2 -13 -8 -13 -32 0 -32 -3 -36 -25 -36 -22 0 -25 4 -25 35 0
33 -8 43 -23 28z"/>
<path d="M2827 3534 c-4 -4 -7 -40 -7 -81 l0 -73 55 0 c30 0 55 5 55 10 0 6
-18 10 -41 10 -36 0 -40 2 -37 23 2 16 11 23 31 25 37 4 35 22 -3 22 -23 0
-30 5 -30 19 0 16 8 20 38 23 20 2 37 8 37 13 0 12 -87 19 -98 9z"/>
<path d="M2967 3533 c-4 -3 -7 -39 -7 -80 0 -58 3 -73 15 -73 11 0 15 12 16
43 1 23 3 34 6 25 2 -10 11 -18 18 -18 7 0 16 8 18 18 3 9 5 -2 6 -25 1 -32 5
-43 16 -43 13 0 15 13 13 77 -3 85 -19 105 -41 51 l-13 -33 -12 33 c-11 31
-22 39 -35 25z"/>
<path d="M3120 3525 c0 -8 5 -15 10 -15 6 0 10 -25 10 -55 0 -30 -4 -55 -10
-55 -5 0 -10 -4 -10 -10 0 -5 16 -10 35 -10 19 0 35 5 35 10 0 6 -4 10 -10 10
-5 0 -10 25 -10 55 0 30 5 55 10 55 6 0 10 7 10 15 0 10 -11 15 -35 15 -24 0
-35 -5 -35 -15z"/>
<path d="M3256 3521 c-58 -64 0 -182 69 -137 14 9 25 23 25 31 0 19 -19 19
-26 0 -7 -18 -35 -20 -52 -3 -17 17 -15 74 3 92 19 18 42 11 50 -15 10 -30 25
-22 25 14 0 31 -2 33 -39 34 -26 1 -44 -4 -55 -16z"/>
<path d="M3417 3533 c-3 -5 -12 -34 -21 -65 -9 -32 -19 -64 -22 -73 -4 -10 0
-15 10 -15 9 0 16 7 16 15 0 21 49 20 65 -1 27 -37 30 -5 7 69 -22 69 -41 94
-55 70z m32 -85 c1 -5 -6 -8 -14 -8 -16 0 -19 9 -8 36 6 16 7 16 14 -2 4 -10
8 -22 8 -26z"/>
<path d="M3520 3461 l0 -81 56 0 c34 0 53 4 49 10 -3 6 -21 10 -40 10 l-34 0
-3 67 c-2 42 -8 68 -15 71 -10 3 -13 -17 -13 -77z"/>
<path d="M1360 2290 c0 -1156 1 -1220 18 -1219 10 0 12 3 5 6 -19 7 -19 2419
0 2426 7 3 5 6 -5 6 -17 1 -18 -63 -18 -1219z"/>
<path d="M2286 3445 c-9 -14 -23 -36 -32 -50 -9 -14 -14 -25 -11 -25 9 0 70
91 64 96 -2 3 -12 -7 -21 -21z"/>
<path d="M2050 3383 c59 -23 123 -42 115 -35 -12 11 -104 42 -119 41 -6 0 -4
-3 4 -6z"/>
<path d="M312 3350 c12 -16 26 -30 31 -30 10 0 -35 59 -46 59 -4 1 2 -12 15
-29z"/>
<path d="M422 3350 c0 -19 2 -27 5 -17 2 9 2 25 0 35 -3 9 -5 1 -5 -18z"/>
<path d="M688 3350 c2 -16 6 -30 8 -30 2 0 4 14 4 30 0 17 -4 30 -8 30 -5 0
-7 -13 -4 -30z"/>
<path d="M723 3364 c-7 -19 7 -46 28 -52 8 -2 5 2 -5 10 -13 10 -17 22 -13 37
6 25 -1 28 -10 5z"/>
<path d="M877 3373 c-12 -11 -8 -40 8 -53 18 -15 45 3 44 29 0 10 -4 8 -10 -7
-12 -31 -34 -23 -34 11 1 30 1 30 -8 20z"/>
<path d="M977 3373 c-12 -11 -8 -40 8 -53 18 -15 45 3 44 29 0 10 -4 8 -10 -7
-12 -31 -34 -23 -34 11 1 30 1 30 -8 20z"/>
<path d="M148 3340 c2 -16 6 -30 8 -30 2 0 4 14 4 30 0 17 -4 30 -8 30 -5 0
-7 -13 -4 -30z"/>
<path d="M364 3345 c-7 -17 3 -35 19 -35 8 0 7 3 -2 9 -8 5 -11 16 -8 25 4 9
4 16 1 16 -2 0 -7 -7 -10 -15z"/>
<path d="M454 3349 c-3 -6 2 -18 12 -27 17 -16 17 -16 5 0 -7 9 -10 22 -6 28
3 5 4 10 1 10 -3 0 -8 -5 -12 -11z"/>
<path d="M544 3345 c-7 -17 3 -35 19 -35 8 0 7 3 -2 9 -8 5 -11 16 -8 25 4 9
4 16 1 16 -2 0 -7 -7 -10 -15z"/>
<path d="M584 3349 c-3 -6 2 -18 12 -27 17 -16 17 -16 5 0 -7 9 -10 22 -6 28
3 5 4 10 1 10 -3 0 -8 -5 -12 -11z"/>
<path d="M1960 3336 c-5 -14 -14 -37 -20 -51 -7 -19 -17 -25 -40 -25 -37 0
-80 -39 -80 -73 0 -40 10 -38 62 11 46 43 107 147 94 160 -3 2 -10 -7 -16 -22z"/>
<path d="M490 3336 c0 -2 8 -10 18 -17 15 -13 16 -12 3 4 -13 16 -21 21 -21
13z"/>
<path d="M2544 3286 c-10 -26 1 -139 14 -144 8 -2 12 7 12 27 0 39 11 39 33 1
10 -16 25 -30 33 -30 18 0 18 5 -3 36 -16 25 -16 27 0 36 20 10 23 58 5 76
-17 17 -87 15 -94 -2z m76 -21 c16 -19 4 -35 -26 -35 -17 0 -24 6 -24 18 0 34
28 43 50 17z"/>
<path d="M2680 3220 l0 -80 55 0 c30 0 55 5 55 10 0 6 -18 10 -40 10 -36 0
-40 3 -40 25 0 21 5 25 30 25 17 0 30 5 30 10 0 6 -14 10 -31 10 -26 0 -30 3
-27 23 2 18 10 23 41 25 57 5 44 22 -18 22 l-55 0 0 -80z"/>
<path d="M2828 3275 c-13 -29 -2 -47 42 -65 33 -14 39 -37 14 -47 -10 -4 -22
1 -29 10 -18 25 -35 21 -35 -8 0 -23 4 -25 44 -25 76 0 90 60 21 93 -38 18
-45 34 -19 44 11 4 22 -1 30 -12 11 -14 17 -16 25 -8 21 21 3 40 -40 41 -35 2
-43 -2 -53 -23z"/>
<path d="M2965 3270 c-8 -16 -15 -38 -15 -50 0 -12 7 -34 15 -50 13 -25 22
-30 50 -30 28 0 37 5 50 30 18 35 19 64 4 93 -16 29 -28 37 -61 37 -20 0 -31
-8 -43 -30z m79 -21 c19 -55 -21 -114 -50 -74 -27 36 -9 109 24 103 9 -2 21
-15 26 -29z"/>
<path d="M3100 3220 l0 -80 55 0 c30 0 55 5 55 10 0 6 -18 10 -40 10 l-40 0 0
70 c0 56 -3 70 -15 70 -12 0 -15 -16 -15 -80z"/>
<path d="M3233 3287 c3 -7 13 -41 23 -76 15 -56 35 -83 50 -68 3 3 16 39 29
81 18 60 21 76 10 76 -8 0 -21 -24 -31 -55 -10 -30 -21 -52 -24 -48 -4 5 -13
29 -20 56 -8 29 -18 47 -27 47 -8 0 -13 -6 -10 -13z"/>
<path d="M3380 3220 l0 -80 49 0 c28 0 53 5 56 10 4 6 -10 10 -34 10 -37 0
-41 2 -41 25 0 21 5 25 30 25 17 0 30 5 30 10 0 6 -13 10 -30 10 -25 0 -30 4
-30 25 0 23 4 25 41 25 24 0 38 4 34 10 -3 6 -28 10 -56 10 l-49 0 0 -80z"/>
<path d="M3520 3220 c0 -64 3 -80 15 -80 10 0 15 10 15 33 l1 32 28 -34 c34
-42 63 -39 30 2 l-22 28 22 15 c26 19 27 60 2 74 -11 5 -36 10 -55 10 l-36 0
0 -80z m64 54 c27 -10 20 -44 -9 -44 -20 0 -25 5 -25 25 0 26 7 29 34 19z"/>
<path d="M4930 3212 c-18 -14 -22 -25 -16 -45 8 -32 31 -35 64 -8 27 23 28 47
3 61 -25 13 -25 13 -51 -8z"/>
<path d="M149 3141 c13 -8 13 -12 1 -28 -13 -17 -13 -17 4 -1 19 16 15 38 -7
38 -8 0 -7 -4 2 -9z"/>
<path d="M293 3134 c-7 -19 7 -46 28 -52 8 -2 5 2 -5 10 -13 10 -17 22 -13 37
6 25 -1 28 -10 5z"/>
<path d="M405 3130 c-7 -22 9 -50 28 -50 6 0 2 6 -9 14 -16 13 -17 18 -6 35 7
12 8 21 3 21 -5 0 -13 -9 -16 -20z"/>
<path d="M463 3134 c-7 -19 7 -46 28 -52 8 -2 5 2 -5 10 -13 10 -17 22 -13 37
6 25 -1 28 -10 5z"/>
<path d="M520 3135 c-7 -9 -11 -17 -9 -20 3 -2 10 5 17 15 14 24 10 26 -8 5z"/>
<path d="M632 3120 c0 -19 2 -27 5 -17 2 9 2 25 0 35 -3 9 -5 1 -5 -18z"/>
<path d="M787 3143 c-12 -11 -8 -40 8 -53 12 -10 18 -10 30 0 16 13 20 46 7
54 -4 2 -8 -8 -7 -22 0 -18 -5 -27 -15 -27 -10 0 -15 10 -15 28 1 30 1 30 -8
20z"/>
<path d="M943 3123 c-17 -36 -16 -43 5 -43 14 0 14 2 3 9 -12 8 -12 12 -2 25
7 8 11 20 9 25 -1 6 -9 -2 -15 -16z"/>
<path d="M1108 3120 c2 -16 6 -30 8 -30 2 0 4 14 4 30 0 17 -4 30 -8 30 -5 0
-7 -13 -4 -30z"/>
<path d="M573 3115 c-3 -9 -3 -18 -1 -21 3 -3 8 4 11 16 6 23 -1 27 -10 5z"/>
<path d="M664 3119 c-3 -6 2 -18 12 -27 17 -16 17 -16 5 0 -7 9 -10 22 -6 28
3 5 4 10 1 10 -3 0 -8 -5 -12 -11z"/>
<path d="M710 3111 c0 -11 4 -22 9 -25 4 -3 6 6 3 19 -5 30 -12 33 -12 6z"/>
<path d="M887 3123 c-12 -12 -7 -31 9 -37 14 -5 15 -4 5 8 -7 8 -10 20 -6 26
7 11 2 14 -8 3z"/>
<path d="M974 3119 c-3 -6 2 -18 12 -27 17 -16 17 -16 5 0 -7 9 -10 22 -6 28
3 5 4 10 1 10 -3 0 -8 -5 -12 -11z"/>
<path d="M1053 3111 c1 -14 9 -26 17 -28 10 -3 11 -2 4 4 -7 4 -14 17 -17 28
-5 16 -5 15 -4 -4z"/>
<path d="M350 3101 c0 -5 7 -12 16 -15 14 -5 15 -4 4 9 -14 17 -20 19 -20 6z"/>
<path d="M527 3089 c7 -7 15 -10 18 -7 3 3 -2 9 -12 12 -14 6 -15 5 -6 -5z"/>
<path d="M2251 2955 c-1 -23 2 -27 9 -15 9 13 11 13 20 0 8 -12 10 -9 10 14 0
23 -3 26 -14 17 -11 -9 -15 -9 -19 1 -3 7 -6 0 -6 -17z"/>
<path d="M2315 2970 c3 -5 8 -10 11 -10 2 0 4 5 4 10 0 6 -5 10 -11 10 -5 0
-7 -4 -4 -10z"/>
<path d="M2628 2973 c7 -3 16 -2 19 1 4 3 -2 6 -13 5 -11 0 -14 -3 -6 -6z"/>
<path d="M2680 2970 c0 -5 5 -10 11 -10 5 0 7 5 4 10 -3 6 -8 10 -11 10 -2 0
-4 -4 -4 -10z"/>
<path d="M2725 2971 c-3 -5 0 -13 6 -17 7 -4 9 -3 5 4 -3 6 2 13 11 15 16 4
16 5 1 6 -9 0 -19 -3 -23 -8z"/>
<path d="M2890 2965 c0 -8 2 -15 4 -15 2 0 6 7 10 15 3 8 1 15 -4 15 -6 0 -10
-7 -10 -15z"/>
<path d="M2930 2955 c1 -26 2 -28 11 -12 8 14 8 22 0 30 -8 8 -11 3 -11 -18z"/>
<path d="M2983 2965 c-3 -9 -3 -18 -1 -21 3 -3 8 4 11 16 6 23 -1 27 -10 5z"/>
<path d="M3100 2969 c0 -5 5 -7 10 -4 6 3 10 8 10 11 0 2 -4 4 -10 4 -5 0 -10
-5 -10 -11z"/>
<path d="M3382 2955 c0 -16 2 -22 5 -12 2 9 2 23 0 30 -3 6 -5 -1 -5 -18z"/>
<path d="M3460 2971 c0 -7 7 -19 15 -27 19 -20 19 -5 0 20 -9 11 -15 14 -15 7z"/>
<path d="M3523 2967 c3 -10 2 -17 -3 -17 -6 0 -10 -4 -10 -8 0 -4 8 -8 19 -8
19 0 18 30 -2 43 -6 4 -8 0 -4 -10z"/>
<path d="M3560 2950 c0 -20 2 -22 10 -10 9 13 11 13 20 0 8 -12 10 -10 10 10
0 19 -5 26 -20 26 -15 0 -20 -7 -20 -26z"/>
<path d="M3617 2973 c-9 -9 -9 -41 1 -46 4 -3 7 8 7 24 1 32 1 32 -8 22z"/>
<path d="M3737 2973 c-4 -3 -7 -18 -6 -32 1 -26 1 -25 10 3 9 31 7 41 -4 29z"/>
<path d="M2090 2951 c0 -25 6 -27 13 -6 4 8 2 17 -3 20 -6 4 -10 -3 -10 -14z"/>
<path d="M2200 2966 c0 -2 8 -10 18 -17 15 -13 16 -12 3 4 -13 16 -21 21 -21
13z"/>
<path d="M2475 2950 c10 -11 20 -20 23 -20 3 0 -3 9 -13 20 -10 11 -20 20 -23
20 -3 0 3 -9 13 -20z"/>
<path d="M2957 2956 c-4 -10 -5 -21 -2 -24 9 -9 17 6 13 25 -3 17 -4 17 -11
-1z"/>
<path d="M1880 2944 c0 -8 5 -12 10 -9 6 4 8 11 5 16 -9 14 -15 11 -15 -7z"/>
<path d="M1961 2944 c0 -11 3 -14 6 -6 3 7 2 16 -1 19 -3 4 -6 -2 -5 -13z"/>
<path d="M2040 2946 c0 -8 4 -17 9 -20 5 -4 7 3 4 14 -6 23 -13 26 -13 6z"/>
<path d="M2121 2944 c0 -11 3 -14 6 -6 3 7 2 16 -1 19 -3 4 -6 -2 -5 -13z"/>
<path d="M2412 2940 c0 -14 2 -19 5 -12 2 6 2 18 0 25 -3 6 -5 1 -5 -13z"/>
<path d="M3271 2944 c0 -11 3 -14 6 -6 3 7 2 16 -1 19 -3 4 -6 -2 -5 -13z"/>
<path d="M3301 2944 c0 -11 3 -14 6 -6 3 7 2 16 -1 19 -3 4 -6 -2 -5 -13z"/>
<path d="M3351 2944 c0 -11 3 -14 6 -6 3 7 2 16 -1 19 -3 4 -6 -2 -5 -13z"/>
<path d="M3782 2940 c0 -14 2 -19 5 -12 2 6 2 18 0 25 -3 6 -5 1 -5 -13z"/>
<path d="M3888 2953 c7 -3 16 -2 19 1 4 3 -2 6 -13 5 -11 0 -14 -3 -6 -6z"/>
<path d="M2670 2942 c0 -4 9 -8 19 -8 11 0 17 4 15 8 -3 4 -12 8 -20 8 -8 0
-14 -4 -14 -8z"/>
<path d="M2746 2933 c-6 -14 -5 -15 5 -6 7 7 10 15 7 18 -3 3 -9 -2 -12 -12z"/>
<path d="M297 2913 c-13 -12 -7 -40 11 -54 15 -13 16 -12 3 3 -7 10 -11 27 -8
38 5 21 4 24 -6 13z"/>
<path d="M467 2913 c-9 -9 -9 -41 1 -46 4 -3 7 8 7 24 0 16 0 29 -1 29 0 0 -4
-3 -7 -7z"/>
<path d="M520 2905 c-7 -9 -11 -17 -9 -20 3 -2 10 5 17 15 14 24 10 26 -8 5z"/>
<path d="M577 2913 c-13 -12 -7 -40 11 -54 15 -13 16 -12 3 3 -7 10 -11 27 -8
38 5 21 4 24 -6 13z"/>
<path d="M747 2913 c-9 -9 -9 -41 1 -46 4 -3 7 8 7 24 0 16 0 29 -1 29 0 0 -4
-3 -7 -7z"/>
<path d="M977 2913 c-9 -9 -9 -41 1 -46 4 -3 7 8 7 24 0 16 0 29 -1 29 0 0 -4
-3 -7 -7z"/>
<path d="M1025 2899 c-4 -12 -2 -26 5 -33 8 -8 10 -7 4 7 -3 9 -1 24 6 32 8 9
8 15 2 15 -6 0 -14 -9 -17 -21z"/>
<path d="M1087 2913 c-13 -12 -7 -40 11 -54 15 -13 16 -12 3 3 -7 10 -11 27
-8 38 5 21 4 24 -6 13z"/>
<path d="M401 2889 c-1 -9 7 -23 17 -30 15 -12 16 -12 6 1 -6 8 -14 22 -17 30
-5 13 -6 12 -6 -1z"/>
<path d="M681 2889 c-1 -9 7 -23 17 -30 15 -12 16 -12 6 1 -6 8 -14 22 -17 30
-5 13 -6 12 -6 -1z"/>
<path d="M911 2889 c-1 -9 7 -23 17 -30 15 -12 16 -12 6 1 -6 8 -14 22 -17 30
-5 13 -6 12 -6 -1z"/>
<path d="M149 2881 c8 -5 10 -14 6 -22 -6 -11 -5 -11 5 -2 14 12 6 33 -13 33
-8 0 -7 -3 2 -9z"/>
<path d="M1136 2875 c4 -8 11 -15 16 -15 6 0 5 6 -2 15 -7 8 -14 15 -16 15 -2
0 -1 -7 2 -15z"/>
<path d="M350 2870 c0 -5 5 -10 11 -10 5 0 7 5 4 10 -3 6 -8 10 -11 10 -2 0
-4 -4 -4 -10z"/>
<path d="M630 2870 c0 -5 5 -10 11 -10 5 0 7 5 4 10 -3 6 -8 10 -11 10 -2 0
-4 -4 -4 -10z"/>
<path d="M860 2870 c0 -5 5 -10 11 -10 5 0 7 5 4 10 -3 6 -8 10 -11 10 -2 0
-4 -4 -4 -10z"/>
<path d="M2360 2841 c0 -25 6 -27 13 -6 4 8 2 17 -3 20 -6 4 -10 -3 -10 -14z"/>
<path d="M2727 2853 c-3 -5 -1 -17 4 -28 7 -17 8 -17 8 8 1 27 -4 34 -12 20z"/>
<path d="M3090 2836 c0 -31 6 -34 13 -6 3 11 1 23 -4 26 -5 3 -9 -6 -9 -20z"/>
<path d="M3316 2847 c-11 -8 -16 -20 -13 -28 4 -10 6 -9 6 4 1 9 6 17 12 17 6
0 9 -7 5 -15 -3 -8 -1 -15 4 -15 6 0 10 11 10 25 0 29 0 29 -24 12z"/>
<path d="M3410 2836 c0 -31 6 -34 13 -6 3 11 1 23 -4 26 -5 3 -9 -6 -9 -20z"/>
<path d="M3512 2835 c0 -16 2 -22 5 -12 2 9 2 23 0 30 -3 6 -5 -1 -5 -18z"/>
<path d="M3901 2844 c0 -11 3 -14 6 -6 3 7 2 16 -1 19 -3 4 -6 -2 -5 -13z"/>
<path d="M2463 2835 c-3 -9 -3 -18 -1 -21 3 -3 8 4 11 16 6 23 -1 27 -10 5z"/>
<path d="M2563 2835 c-3 -9 -3 -19 1 -22 3 -4 6 -1 6 5 0 7 7 12 15 12 8 0 15
5 15 10 0 16 -30 12 -37 -5z"/>
<path d="M2830 2838 c0 -4 4 -8 9 -8 6 0 12 4 15 8 3 5 -1 9 -9 9 -8 0 -15 -4
-15 -9z"/>
<path d="M2883 2835 c-3 -9 -3 -18 -1 -21 3 -3 8 4 11 16 6 23 -1 27 -10 5z"/>
<path d="M3200 2840 c-12 -7 -12 -12 -2 -22 9 -9 12 -8 12 6 0 10 4 14 12 10
7 -4 8 -3 4 4 -9 14 -7 14 -26 2z"/>
<path d="M3377 2829 c4 -13 8 -18 11 -10 2 7 -1 18 -6 23 -8 8 -9 4 -5 -13z"/>
<path d="M3587 2829 c4 -13 8 -18 11 -10 2 7 -1 18 -6 23 -8 8 -9 4 -5 -13z"/>
<path d="M3673 2835 c-3 -9 -3 -19 1 -22 3 -4 6 1 6 11 0 10 5 14 12 10 7 -4
8 -3 4 4 -10 16 -15 15 -23 -3z"/>
<path d="M3797 2829 c4 -13 8 -18 11 -10 2 7 -1 18 -6 23 -8 8 -9 4 -5 -13z"/>
<path d="M3833 2843 c-7 -3 -13 -9 -13 -15 0 -7 5 -6 14 1 11 10 15 8 19 -6 4
-16 5 -16 6 -1 1 19 -9 27 -26 21z"/>
<path d="M3001 2824 c0 -11 3 -14 6 -6 3 7 2 16 -1 19 -3 4 -6 -2 -5 -13z"/>
<path d="M3061 2824 c0 -11 3 -14 6 -6 3 7 2 16 -1 19 -3 4 -6 -2 -5 -13z"/>
<path d="M3116 2823 c-6 -14 -5 -15 5 -6 7 7 10 15 7 18 -3 3 -9 -2 -12 -12z"/>
<path d="M3481 2824 c0 -11 3 -14 6 -6 3 7 2 16 -1 19 -3 4 -6 -2 -5 -13z"/>
<path d="M3536 2823 c-6 -14 -5 -15 5 -6 7 7 10 15 7 18 -3 3 -9 -2 -12 -12z"/>
<path d="M3626 2826 c10 -8 21 -12 24 -10 5 6 -21 24 -34 24 -6 0 -1 -6 10
-14z"/>
<path d="M2422 2715 c0 -16 2 -22 5 -12 2 9 2 23 0 30 -3 6 -5 -1 -5 -18z"/>
<path d="M2582 2715 c0 -16 2 -22 5 -12 2 9 2 23 0 30 -3 6 -5 -1 -5 -18z"/>
<path d="M2670 2730 c0 -5 5 -10 10 -10 6 0 10 5 10 10 0 6 -4 10 -10 10 -5 0
-10 -4 -10 -10z"/>
<path d="M2997 2733 c-3 -5 -1 -17 4 -28 7 -17 8 -17 8 8 1 27 -4 34 -12 20z"/>
<path d="M3140 2718 c0 -19 2 -20 10 -8 9 13 11 13 20 0 6 -9 10 -11 10 -3 0
7 -9 17 -20 23 -17 9 -20 8 -20 -12z"/>
<path d="M3560 2718 c0 -19 2 -20 10 -8 9 13 11 13 20 0 6 -9 10 -11 10 -3 0
7 -9 17 -20 23 -17 9 -20 8 -20 -12z"/>
<path d="M3892 2715 c0 -16 2 -22 5 -12 2 9 2 23 0 30 -3 6 -5 -1 -5 -18z"/>
<path d="M2304 2719 c-3 -6 -1 -16 5 -22 9 -9 11 -8 6 5 -4 11 0 18 12 21 15
4 16 5 1 6 -9 0 -20 -4 -24 -10z"/>
<path d="M2382 2710 c0 -14 2 -19 5 -12 2 6 2 18 0 25 -3 6 -5 1 -5 -13z"/>
<path d="M2465 2720 c-8 -13 3 -30 18 -29 9 0 9 2 0 6 -18 7 -16 21 5 26 15 4
15 5 0 6 -9 0 -20 -3 -23 -9z"/>
<path d="M2642 2710 c0 -14 2 -19 5 -12 2 6 2 18 0 25 -3 6 -5 1 -5 -13z"/>
<path d="M2774 2719 c-3 -6 -2 -15 3 -20 5 -5 9 -1 9 11 0 23 -2 24 -12 9z"/>
<path d="M2934 2719 c-10 -17 13 -36 27 -22 12 12 4 33 -11 33 -5 0 -12 -5
-16 -11z m26 -9 c0 -5 -4 -10 -10 -10 -5 0 -10 5 -10 10 0 6 5 10 10 10 6 0
10 -4 10 -10z"/>
<path d="M3092 2705 c0 -16 2 -22 5 -12 2 9 2 23 0 30 -3 6 -5 -1 -5 -18z"/>
<path d="M3114 2710 c0 -13 4 -16 10 -10 7 7 7 13 0 20 -6 6 -10 3 -10 -10z"/>
<path d="M3310 2710 c0 -11 4 -20 9 -20 5 0 7 9 4 20 -3 11 -7 20 -9 20 -2 0
-4 -9 -4 -20z"/>
<path d="M3354 2719 c-3 -6 -1 -16 5 -22 9 -9 11 -8 6 5 -4 11 0 18 12 21 15
4 16 5 1 6 -9 0 -20 -4 -24 -10z"/>
<path d="M3404 2719 c-3 -6 -1 -16 5 -22 9 -9 11 -8 6 6 -4 9 -3 17 3 17 6 0
13 -8 15 -17 4 -14 5 -12 6 5 1 23 -22 31 -35 11z"/>
<path d="M3614 2719 c-3 -6 -1 -16 5 -22 8 -8 11 -5 11 11 0 24 -5 28 -16 11z"/>
<path d="M3675 2720 c4 -6 11 -8 16 -5 14 9 11 15 -7 15 -8 0 -12 -5 -9 -10z"/>
<path d="M3732 2710 c0 -14 2 -19 5 -12 2 6 2 18 0 25 -3 6 -5 1 -5 -13z"/>
<path d="M3774 2719 c-3 -6 -1 -16 5 -22 9 -9 11 -8 6 5 -4 11 0 18 12 21 15
4 16 5 1 6 -9 0 -20 -4 -24 -10z"/>
<path d="M2513 2710 c6 -22 37 -25 37 -3 0 15 -2 16 -10 3 -9 -13 -11 -13 -21
0 -9 13 -10 13 -6 0z"/>
<path d="M3203 2694 c0 -27 12 -24 19 4 3 11 0 19 -7 19 -7 0 -12 -11 -12 -23z"/>
<path d="M3510 2711 c0 -10 19 -25 25 -20 1 2 -3 10 -11 17 -8 7 -14 8 -14 3z"/>
<path d="M3851 2704 c0 -11 3 -14 6 -6 3 7 2 16 -1 19 -3 4 -6 -2 -5 -13z"/>
<path d="M297 2683 c-9 -9 -9 -41 1 -46 4 -3 7 8 7 24 0 16 0 29 -1 29 0 0 -4
-3 -7 -7z"/>
<path d="M416 2675 c-18 -14 -18 -15 0 -32 17 -17 18 -17 11 1 -4 10 -2 25 4
32 15 18 9 17 -15 -1z"/>
<path d="M566 2674 c-9 -24 -2 -26 12 -4 7 11 8 20 3 20 -5 0 -12 -7 -15 -16z"/>
<path d="M728 2660 c2 -16 6 -30 8 -30 2 0 4 14 4 30 0 17 -4 30 -8 30 -5 0
-7 -13 -4 -30z"/>
<path d="M927 2683 c-9 -9 -9 -41 1 -46 4 -3 7 8 7 24 0 16 0 29 -1 29 0 0 -4
-3 -7 -7z"/>
<path d="M1077 2683 c-9 -9 -9 -41 1 -46 4 -3 7 8 7 24 0 16 0 29 -1 29 0 0
-4 -3 -7 -7z"/>
<path d="M764 2665 c-3 -8 -4 -20 -2 -27 3 -7 7 -1 10 15 6 29 1 36 -8 12z"/>
<path d="M664 2659 c-3 -6 -2 -15 3 -20 5 -5 9 -1 9 11 0 23 -2 24 -12 9z"/>
<path d="M807 2663 c-10 -9 -9 -33 1 -33 4 0 8 9 8 20 0 23 0 22 -9 13z"/>
<path d="M844 2659 c-3 -6 -2 -15 3 -20 5 -5 9 -1 9 11 0 23 -2 24 -12 9z"/>
<path d="M150 2640 c0 -5 5 -10 10 -10 6 0 10 5 10 10 0 6 -4 10 -10 10 -5 0
-10 -4 -10 -10z"/>
<path d="M3720 2610 c0 -5 5 -10 10 -10 6 0 10 5 10 10 0 6 -4 10 -10 10 -5 0
-10 -4 -10 -10z"/>
<path d="M3400 2589 c0 -26 34 -22 36 4 1 12 1 13 -3 2 -2 -8 -9 -15 -15 -15
-5 0 -8 7 -4 15 3 8 1 15 -4 15 -6 0 -10 -9 -10 -21z"/>
<path d="M3460 2590 c0 -11 2 -20 4 -20 2 0 6 9 9 20 3 11 1 20 -4 20 -5 0 -9
-9 -9 -20z"/>
<path d="M3536 2596 c6 -16 4 -18 -12 -12 -15 6 -17 5 -6 -5 9 -10 15 -10 24
-1 9 9 9 15 -1 25 -10 10 -11 8 -5 -7z"/>
<path d="M3561 2587 c-1 -25 1 -27 19 -17 11 6 19 18 19 28 -1 16 -2 16 -6 0
-2 -10 -8 -18 -13 -18 -5 0 -11 8 -13 18 -3 10 -5 6 -6 -11z"/>
<path d="M3617 2603 c-4 -3 -7 -11 -7 -17 0 -6 5 -5 12 2 6 6 9 14 7 17 -3 3
-9 2 -12 -2z"/>
<path d="M3670 2590 c0 -11 2 -20 4 -20 2 0 6 9 9 20 3 11 1 20 -4 20 -5 0 -9
-9 -9 -20z"/>
<path d="M3827 2603 c-4 -3 -7 -11 -7 -17 0 -6 5 -5 12 2 6 6 9 14 7 17 -3 3
-9 2 -12 -2z"/>
<path d="M3780 2580 c0 -5 5 -10 11 -10 5 0 7 5 4 10 -3 6 -8 10 -11 10 -2 0
-4 -4 -4 -10z"/>
<path d="M4717 2482 c-38 -41 -10 -74 43 -52 35 14 40 44 11 60 -27 14 -35 13
-54 -8z"/>
<path d="M297 2453 c-9 -9 -9 -41 1 -46 4 -3 7 8 7 24 0 16 0 29 -1 29 0 0 -4
-3 -7 -7z"/>
<path d="M407 2453 c-9 -9 -9 -41 1 -46 4 -3 7 8 7 24 0 16 0 29 -1 29 0 0 -4
-3 -7 -7z"/>
<path d="M445 2430 c0 -15 3 -26 8 -23 4 2 7 13 7 23 0 10 -3 21 -7 23 -5 3
-8 -8 -8 -23z"/>
<path d="M532 2430 c0 -19 2 -27 5 -17 2 9 2 25 0 35 -3 9 -5 1 -5 -18z"/>
<path d="M798 2430 c2 -16 6 -30 8 -30 2 0 4 14 4 30 0 17 -4 30 -8 30 -5 0
-7 -13 -4 -30z"/>
<path d="M837 2453 c-9 -9 -9 -41 1 -46 4 -3 7 8 7 24 0 16 0 29 -1 29 0 0 -4
-3 -7 -7z"/>
<path d="M920 2456 c0 -2 7 -9 15 -16 13 -11 14 -10 9 4 -5 14 -24 23 -24 12z"/>
<path d="M1087 2453 c-9 -9 -9 -41 1 -46 4 -3 7 8 7 24 0 16 0 29 -1 29 0 0
-4 -3 -7 -7z"/>
<path d="M1125 2430 c0 -15 3 -26 8 -23 4 2 7 13 7 23 0 10 -3 21 -7 23 -5 3
-8 -8 -8 -23z"/>
<path d="M2325 2450 c-3 -5 -1 -10 4 -10 6 0 11 5 11 10 0 6 -2 10 -4 10 -3 0
-8 -4 -11 -10z"/>
<path d="M2505 2450 c-3 -5 -1 -10 4 -10 6 0 11 5 11 10 0 6 -2 10 -4 10 -3 0
-8 -4 -11 -10z"/>
<path d="M2546 2447 c3 -10 9 -15 12 -12 3 3 0 11 -7 18 -10 9 -11 8 -5 -6z"/>
<path d="M2755 2450 c-3 -5 -1 -10 4 -10 6 0 11 5 11 10 0 6 -2 10 -4 10 -3 0
-8 -4 -11 -10z"/>
<path d="M2796 2447 c3 -10 9 -15 12 -12 3 3 0 11 -7 18 -10 9 -11 8 -5 -6z"/>
<path d="M2935 2450 c-3 -5 -1 -10 4 -10 6 0 11 5 11 10 0 6 -2 10 -4 10 -3 0
-8 -4 -11 -10z"/>
<path d="M3580 2450 c0 -5 5 -10 11 -10 5 0 7 5 4 10 -3 6 -8 10 -11 10 -2 0
-4 -4 -4 -10z"/>
<path d="M3795 2450 c3 -5 8 -10 11 -10 2 0 4 5 4 10 0 6 -5 10 -11 10 -5 0
-7 -4 -4 -10z"/>
<path d="M480 2435 c-11 -13 -11 -18 0 -28 10 -9 11 -9 6 1 -4 7 -2 19 4 27 7
8 10 15 7 15 -2 0 -10 -7 -17 -15z"/>
<path d="M570 2435 c-11 -13 -11 -18 0 -28 10 -9 11 -9 6 1 -4 7 -2 19 4 27 7
8 10 15 7 15 -2 0 -10 -7 -17 -15z"/>
<path d="M614 2435 c-3 -8 -4 -20 -1 -27 3 -7 6 -3 6 9 1 12 7 24 14 26 9 4 9
6 -1 6 -7 1 -15 -6 -18 -14z"/>
<path d="M660 2435 c-11 -13 -11 -18 0 -28 10 -9 11 -9 6 1 -4 7 -2 19 4 27 7
8 10 15 7 15 -2 0 -10 -7 -17 -15z"/>
<path d="M700 2435 c-11 -13 -11 -18 0 -28 10 -9 11 -9 6 1 -4 7 -2 19 4 27 7
8 10 15 7 15 -2 0 -10 -7 -17 -15z"/>
<path d="M143 2429 c9 -5 17 -14 17 -19 0 -5 -8 -11 -17 -13 -16 -4 -16 -5 -1
-6 9 0 20 4 23 9 8 13 -12 40 -29 40 -6 0 -3 -5 7 -11z"/>
<path d="M742 2420 c0 -14 2 -19 5 -12 2 6 2 18 0 25 -3 6 -5 1 -5 -13z"/>
<path d="M921 2414 c0 -11 3 -14 6 -6 3 7 2 16 -1 19 -3 4 -6 -2 -5 -13z"/>
<path d="M350 2410 c0 -5 5 -10 11 -10 5 0 7 5 4 10 -3 6 -8 10 -11 10 -2 0
-4 -4 -4 -10z"/>
<path d="M955 2410 c3 -5 8 -10 11 -10 2 0 4 5 4 10 0 6 -5 10 -11 10 -5 0 -7
-4 -4 -10z"/>
<path d="M1761 2258 c0 -27 2 -29 8 -13 l8 20 5 -20 c5 -17 6 -18 7 -2 0 10
-6 25 -14 33 -13 14 -15 12 -14 -18z"/>
<path d="M1842 2265 c-10 -12 -10 -15 0 -15 9 0 9 -3 -2 -10 -13 -8 -13 -10 1
-10 11 0 17 9 17 25 0 14 -1 25 -2 25 0 -1 -7 -7 -14 -15z"/>
<path d="M1550 2266 c0 -1 9 -9 20 -19 15 -13 20 -14 20 -3 0 7 -9 16 -20 19
-11 3 -20 4 -20 3z"/>
<path d="M1604 2259 c-3 -6 -1 -16 5 -22 9 -9 11 -8 6 6 -4 9 -4 17 1 17 4 0
16 -8 27 -17 11 -10 17 -12 13 -5 -4 6 -3 12 3 12 5 0 12 -6 14 -12 3 -7 6 -3
6 10 1 24 -9 28 -26 11 -8 -8 -13 -8 -17 0 -9 14 -23 14 -32 0z"/>
<path d="M1690 2250 c0 -11 2 -20 4 -20 2 0 6 9 9 20 3 11 1 20 -4 20 -5 0 -9
-9 -9 -20z"/>
<path d="M1724 2259 c-3 -6 -1 -16 6 -22 10 -9 11 -9 5 2 -4 8 -2 17 6 22 9 6
10 9 2 9 -6 0 -15 -5 -19 -11z"/>
<path d="M1870 2250 c0 -12 7 -20 18 -20 14 0 15 2 2 10 -13 9 -13 11 0 20 13
8 12 10 -2 10 -11 0 -18 -8 -18 -20z"/>
<path d="M1914 2251 c0 -10 6 -18 13 -18 7 0 13 4 13 7 0 4 -6 12 -13 18 -10
8 -13 6 -13 -7z"/>
<path d="M297 2223 c-9 -9 -9 -41 1 -46 4 -3 7 8 7 24 0 16 0 29 -1 29 0 0 -4
-3 -7 -7z"/>
<path d="M417 2223 c-9 -9 -9 -41 1 -46 4 -3 7 8 7 24 0 16 0 29 -1 29 0 0 -4
-3 -7 -7z"/>
<path d="M466 2215 c-7 -19 3 -45 16 -45 6 0 5 6 -2 15 -10 12 -10 18 0 30 7
9 8 15 2 15 -5 0 -12 -7 -16 -15z"/>
<path d="M527 2223 c-9 -9 -9 -41 1 -46 4 -3 7 8 7 24 0 16 0 29 -1 29 0 0 -4
-3 -7 -7z"/>
<path d="M565 2200 c0 -15 3 -26 8 -23 4 2 7 13 7 23 0 10 -3 21 -7 23 -5 3
-8 -8 -8 -23z"/>
<path d="M597 2223 c-9 -9 -9 -41 1 -46 4 -3 7 8 7 24 0 16 0 29 -1 29 0 0 -4
-3 -7 -7z"/>
<path d="M747 2223 c-9 -9 -9 -41 1 -46 4 -3 7 8 7 24 0 16 0 29 -1 29 0 0 -4
-3 -7 -7z"/>
<path d="M785 2200 c0 -15 3 -26 8 -23 4 2 7 13 7 23 0 10 -3 21 -7 23 -5 3
-8 -8 -8 -23z"/>
<path d="M847 2223 c-9 -9 -9 -41 1 -46 4 -3 7 8 7 24 0 16 0 29 -1 29 0 0 -4
-3 -7 -7z"/>
<path d="M987 2223 c-9 -9 -9 -41 1 -46 4 -3 7 8 7 24 0 16 0 29 -1 29 0 0 -4
-3 -7 -7z"/>
<path d="M1077 2223 c-9 -9 -9 -41 1 -46 4 -3 7 8 7 24 0 16 0 29 -1 29 0 0
-4 -3 -7 -7z"/>
<path d="M134 2185 c1 -23 30 -28 32 -5 0 9 -1 10 -3 3 -6 -19 -21 -16 -26 5
-3 13 -4 12 -3 -3z"/>
<path d="M5703 2054 c-3 -8 -2 -19 3 -24 5 -5 9 1 9 16 0 28 -3 30 -12 8z"/>
<path d="M5751 2043 c1 -17 3 -21 6 -10 2 9 8 17 13 17 5 0 11 -8 13 -17 4
-17 5 -17 6 -1 0 10 -8 22 -19 28 -18 10 -20 8 -19 -17z"/>
<path d="M6012 2045 c0 -16 2 -22 5 -12 2 9 2 23 0 30 -3 6 -5 -1 -5 -18z"/>
<path d="M5430 2056 c0 -3 9 -10 20 -16 11 -6 20 -8 20 -6 0 3 -9 10 -20 16
-11 6 -20 8 -20 6z"/>
<path d="M5485 2049 c-4 -6 -4 -13 -1 -16 3 -4 6 -1 6 6 0 7 5 9 10 6 6 -3 10
-1 10 4 0 14 -17 14 -25 0z"/>
<path d="M5526 2044 c-4 -9 -4 -19 -1 -22 3 -3 5 0 5 6 0 7 5 12 11 12 5 0 7
-4 4 -10 -3 -5 -1 -10 5 -10 14 0 9 32 -6 37 -6 2 -14 -4 -18 -13z"/>
<path d="M5570 2049 c0 -5 5 -7 10 -4 6 3 10 8 10 11 0 2 -4 4 -10 4 -5 0 -10
-5 -10 -11z"/>
<path d="M5600 2040 c0 -11 2 -20 4 -20 2 0 6 9 9 20 3 11 1 20 -4 20 -5 0 -9
-9 -9 -20z"/>
<path d="M5646 2053 c6 -4 14 -15 17 -23 5 -11 6 -9 4 4 -1 11 -9 21 -17 23
-10 3 -11 2 -4 -4z"/>
<path d="M5801 2038 c1 -18 2 -19 6 -5 2 9 9 14 15 11 7 -4 8 -2 4 4 -12 20
-26 13 -25 -10z"/>
<path d="M5841 2038 c1 -17 3 -18 6 -5 6 21 40 23 46 2 4 -11 4 -10 3 2 -1 12
-11 19 -29 21 -23 3 -27 0 -26 -20z"/>
<path d="M5930 2049 c0 -5 5 -7 10 -4 6 3 10 8 10 11 0 2 -4 4 -10 4 -5 0 -10
-5 -10 -11z"/>
<path d="M5967 2046 c-4 -9 -1 -18 5 -22 7 -4 8 -3 4 4 -4 7 -3 12 3 12 5 0
12 -6 15 -12 3 -7 5 -4 3 6 -3 24 -23 32 -30 12z"/>
<path d="M5911 2034 c0 -11 3 -14 6 -6 3 7 2 16 -1 19 -3 4 -6 -2 -5 -13z"/>
<path d="M138 1993 c6 -2 18 -2 25 0 6 3 1 5 -13 5 -14 0 -19 -2 -12 -5z"/>
<path d="M297 1993 c-9 -9 -9 -41 1 -46 4 -3 7 8 7 24 0 16 0 29 -1 29 0 0 -4
-3 -7 -7z"/>
<path d="M418 1970 c2 -16 6 -30 8 -30 2 0 4 14 4 30 0 17 -4 30 -8 30 -5 0
-7 -13 -4 -30z"/>
<path d="M516 1985 c-7 -19 3 -45 16 -45 7 0 6 5 -1 14 -6 7 -9 21 -5 30 3 9
4 16 1 16 -3 0 -7 -7 -11 -15z"/>
<path d="M577 1993 c-9 -9 -9 -41 1 -46 4 -3 7 8 7 24 0 16 0 29 -1 29 0 0 -4
-3 -7 -7z"/>
<path d="M727 1993 c-9 -9 -9 -41 1 -46 4 -3 7 8 7 24 0 16 0 29 -1 29 0 0 -4
-3 -7 -7z"/>
<path d="M765 1970 c0 -15 3 -26 8 -23 4 2 7 13 7 23 0 10 -3 21 -7 23 -5 3
-8 -8 -8 -23z"/>
<path d="M827 1993 c-9 -9 -9 -41 1 -46 4 -3 7 8 7 24 0 16 0 29 -1 29 0 0 -4
-3 -7 -7z"/>
<path d="M876 1985 c-7 -19 3 -45 16 -45 6 0 5 6 -2 15 -10 12 -10 18 0 30 7
9 8 15 2 15 -5 0 -12 -7 -16 -15z"/>
<path d="M967 1993 c-9 -9 -9 -41 1 -46 4 -3 7 8 7 24 0 16 0 29 -1 29 0 0 -4
-3 -7 -7z"/>
<path d="M1087 1993 c-9 -9 -9 -41 1 -46 4 -3 7 8 7 24 0 16 0 29 -1 29 0 0
-4 -3 -7 -7z"/>
<path d="M1238 1970 c2 -16 6 -30 8 -30 2 0 4 14 4 30 0 17 -4 30 -8 30 -5 0
-7 -13 -4 -30z"/>
<path d="M1560 1805 c-10 -12 -10 -18 0 -30 7 -8 17 -15 23 -15 6 0 2 7 -9 15
-19 15 -19 15 0 30 11 8 15 15 9 15 -6 0 -16 -7 -23 -15z"/>
<path d="M1601 1792 c0 -16 3 -21 6 -12 3 8 10 18 15 21 5 3 3 9 -6 12 -12 5
-16 0 -15 -21z"/>
<path d="M2180 1805 c-9 -11 -10 -16 -2 -11 7 4 12 1 12 -9 0 -10 -5 -14 -12
-9 -10 5 -10 4 -1 -6 17 -18 25 -8 21 26 -3 26 -4 26 -18 9z"/>
<path d="M2245 1811 c-3 -7 0 -8 9 -5 12 4 16 0 16 -16 0 -17 -4 -21 -17 -15
-15 5 -16 4 -5 -6 15 -16 35 1 30 27 -4 21 -23 30 -33 15z"/>
<path d="M2558 1815 c-4 -4 -4 -14 -1 -22 3 -8 0 -19 -8 -24 -10 -6 -11 -9 -1
-9 7 0 15 6 18 14 7 19 1 50 -8 41z"/>
<path d="M2712 1795 c0 -16 2 -22 5 -12 2 9 2 23 0 30 -3 6 -5 -1 -5 -18z"/>
<path d="M1648 1796 c-19 -14 -25 -32 -8 -21 6 3 10 1 10 -4 0 -17 20 -13 27
5 8 23 -9 35 -29 20z m22 -12 c0 -8 -5 -12 -10 -9 -6 4 -8 11 -5 16 9 14 15
11 15 -7z"/>
<path d="M1693 1794 c-7 -20 12 -41 22 -23 5 8 4 10 -3 5 -7 -4 -12 -1 -12 9
0 10 5 13 12 9 7 -4 8 -3 4 4 -10 16 -15 15 -23 -4z"/>
<path d="M1735 1800 c-3 -6 1 -13 10 -16 11 -5 13 -9 5 -14 -6 -4 4 -7 22 -7
18 0 27 2 19 5 -11 4 -11 6 0 13 11 6 11 11 2 20 -10 10 -14 9 -18 -4 -4 -9
-13 -13 -22 -10 -12 5 -12 7 -1 14 9 6 9 9 1 9 -6 0 -15 -5 -18 -10z"/>
<path d="M1914 1799 c-4 -8 -3 -9 4 -5 7 4 12 1 12 -9 0 -9 -4 -13 -10 -10 -5
3 -10 -1 -10 -11 0 -13 3 -14 15 -4 8 7 15 18 15 26 0 18 -17 27 -26 13z"/>
<path d="M1990 1799 c0 -5 5 -7 10 -4 6 3 10 8 10 11 0 2 -4 4 -10 4 -5 0 -10
-5 -10 -11z"/>
<path d="M2025 1801 c-3 -5 0 -13 6 -17 8 -4 7 -9 -2 -15 -10 -6 -10 -9 -2 -9
16 0 26 17 13 25 -6 4 -8 11 -5 16 4 5 4 9 1 9 -3 0 -7 -4 -11 -9z"/>
<path d="M2134 1799 c-4 -7 -3 -9 4 -5 6 3 13 -2 15 -11 4 -16 5 -16 6 -1 1
21 -15 32 -25 17z"/>
<path d="M2345 1799 c-5 -8 -4 -10 3 -5 7 4 12 1 12 -8 0 -8 -6 -17 -12 -19
-10 -4 -10 -6 0 -6 17 -1 27 28 14 41 -6 6 -12 6 -17 -3z"/>
<path d="M2420 1791 c0 -11 3 -22 8 -24 4 -3 7 6 7 19 0 13 -3 24 -7 24 -5 0
-8 -9 -8 -19z"/>
<path d="M2454 1799 c-3 -6 0 -15 7 -20 12 -7 12 -9 0 -9 -8 0 -12 -3 -8 -6
12 -12 28 7 18 20 -6 7 -8 16 -4 19 3 4 4 7 0 7 -3 0 -9 -5 -13 -11z"/>
<path d="M2584 1797 c-7 -19 2 -37 19 -37 8 0 7 3 -2 9 -11 7 -11 9 0 14 11 3
11 7 2 17 -10 11 -14 10 -19 -3z"/>
<path d="M2754 1795 c-7 -17 3 -35 19 -35 7 0 6 4 -3 10 -13 9 -13 10 0 10 12
0 13 2 1 9 -11 7 -11 9 0 14 11 4 11 6 1 6 -7 1 -15 -6 -18 -14z"/>
<path d="M1954 1781 c1 -17 26 -28 26 -11 0 6 -4 9 -9 5 -5 -3 -11 0 -14 7 -2
9 -4 8 -3 -1z"/>
<path d="M2085 1790 c-8 -13 3 -30 18 -29 9 0 9 2 0 6 -7 2 -13 9 -13 14 0 6
5 7 10 4 6 -3 10 -1 10 4 0 14 -17 14 -25 1z"/>
<path d="M2293 1786 c1 -11 9 -21 17 -23 10 -3 11 -2 4 4 -6 4 -14 15 -17 23
-5 11 -6 9 -4 -4z"/>
<path d="M2384 1781 c1 -17 26 -28 26 -11 0 6 -4 9 -9 5 -5 -3 -11 0 -14 7 -2
9 -4 8 -3 -1z"/>
<path d="M2621 1784 c0 -11 3 -14 6 -6 3 7 2 16 -1 19 -3 4 -6 -2 -5 -13z"/>
<path d="M2691 1784 c0 -11 3 -14 6 -6 3 7 2 16 -1 19 -3 4 -6 -2 -5 -13z"/>
<path d="M2731 1784 c0 -11 3 -14 6 -6 3 7 2 16 -1 19 -3 4 -6 -2 -5 -13z"/>
<path d="M302 1768 c-14 -14 -16 -44 -4 -52 4 -2 8 8 7 22 0 18 5 27 15 27 10
0 15 -9 15 -27 -1 -14 3 -24 7 -22 18 12 0 64 -22 64 -3 0 -11 -5 -18 -12z"/>
<path d="M602 1768 c-14 -14 -16 -44 -4 -52 4 -2 8 8 7 22 0 18 5 27 15 27 10
0 15 -9 15 -27 -1 -14 3 -24 7 -22 18 12 0 64 -22 64 -3 0 -11 -5 -18 -12z"/>
<path d="M1840 1768 c0 -4 4 -8 9 -8 6 0 12 4 15 8 3 5 -1 9 -9 9 -8 0 -15 -4
-15 -9z"/>
<path d="M137 1763 c-3 -4 -4 -19 -3 -33 2 -37 31 -33 31 4 0 28 -18 46 -28
29z m23 -13 c0 -5 -4 -10 -10 -10 -5 0 -10 5 -10 10 0 6 5 10 10 10 6 0 10 -4
10 -10z m0 -30 c0 -5 -4 -10 -10 -10 -5 0 -10 5 -10 10 0 6 5 10 10 10 6 0 10
-4 10 -10z"/>
<path d="M478 1740 c2 -16 6 -30 8 -30 2 0 4 14 4 30 0 17 -4 30 -8 30 -5 0
-7 -13 -4 -30z"/>
<path d="M520 1745 c-11 -13 -11 -18 0 -28 10 -9 11 -9 6 1 -4 7 -2 19 4 27 7
8 10 15 7 15 -2 0 -10 -7 -17 -15z"/>
<path d="M697 1753 c-11 -10 -8 -43 3 -43 5 0 7 7 3 16 -3 9 0 20 8 25 8 5 9
9 3 9 -6 0 -14 -3 -17 -7z"/>
<path d="M420 1731 c0 -6 4 -13 10 -16 6 -3 7 1 4 9 -7 18 -14 21 -14 7z"/>
<path d="M1898 1621 l-26 -28 29 -1 c26 -1 29 3 29 29 0 16 -1 29 -2 29 -2 -1
-15 -14 -30 -29z m22 -11 c0 -5 -4 -10 -10 -10 -5 0 -10 5 -10 10 0 6 5 10 10
10 6 0 10 -4 10 -10z"/>
<path d="M2072 1620 c0 -19 2 -27 5 -17 2 9 2 25 0 35 -3 9 -5 1 -5 -18z"/>
<path d="M4356 1641 c-4 -7 -5 -15 -2 -18 9 -9 19 4 14 18 -4 11 -6 11 -12 0z"/>
<path d="M1780 1630 c0 -5 5 -10 11 -10 5 0 7 5 4 10 -3 6 -8 10 -11 10 -2 0
-4 -4 -4 -10z"/>
<path d="M2020 1630 c0 -5 5 -10 10 -10 6 0 10 5 10 10 0 6 -4 10 -10 10 -5 0
-10 -4 -10 -10z"/>
<path d="M3931 1623 c-1 -26 -11 -29 -30 -10 -10 10 -11 9 -6 -5 4 -10 14 -18
21 -18 17 0 28 24 21 42 -3 7 -6 3 -6 -9z"/>
<path d="M3990 1630 c0 -5 5 -10 10 -10 6 0 10 5 10 10 0 6 -4 10 -10 10 -5 0
-10 -4 -10 -10z"/>
<path d="M4162 1615 c0 -16 2 -22 5 -12 2 9 2 23 0 30 -3 6 -5 -1 -5 -18z"/>
<path d="M4191 1626 c-14 -16 -7 -36 12 -36 7 0 6 4 -3 10 -13 9 -13 11 0 19
8 6 12 13 9 16 -4 3 -12 -1 -18 -9z"/>
<path d="M4310 1621 c0 -11 4 -22 9 -25 4 -3 6 6 3 19 -5 30 -12 33 -12 6z"/>
<path d="M1650 1616 c0 -8 -6 -17 -12 -19 -8 -3 -6 -6 5 -6 9 -1 17 5 17 13 0
8 6 17 13 19 7 3 5 6 -5 6 -10 1 -18 -5 -18 -13z"/>
<path d="M1710 1619 c11 -8 12 -12 3 -16 -7 -2 -13 -9 -13 -15 0 -6 6 -6 15 2
20 17 19 40 -2 40 -16 0 -16 -2 -3 -11z"/>
<path d="M1741 1613 c-1 -14 5 -23 14 -23 8 0 15 5 15 11 0 5 -4 8 -9 4 -5 -3
-12 3 -14 12 -4 14 -5 13 -6 -4z"/>
<path d="M1942 1610 c0 -14 2 -19 5 -12 2 6 2 18 0 25 -3 6 -5 1 -5 -13z"/>
<path d="M1981 1608 c0 -16 2 -18 6 -8 3 8 11 18 17 22 7 5 4 8 -6 8 -12 0
-18 -7 -17 -22z"/>
<path d="M2052 1610 c0 -14 2 -19 5 -12 2 6 2 18 0 25 -3 6 -5 1 -5 -13z"/>
<path d="M2092 1610 c0 -14 2 -19 5 -12 2 6 2 18 0 25 -3 6 -5 1 -5 -13z"/>
<path d="M2114 1619 c-3 -6 -1 -16 5 -22 9 -9 11 -8 5 6 -5 13 -2 16 12 10 12
-4 15 -3 10 5 -9 15 -23 15 -32 1z"/>
<path d="M3953 1616 c1 -11 9 -21 17 -23 10 -3 11 -2 4 4 -6 4 -14 15 -17 23
-5 11 -6 9 -4 -4z"/>
<path d="M4021 1602 c-1 -28 1 -31 13 -20 8 7 10 15 6 18 -4 3 -10 12 -13 20
-3 8 -6 0 -6 -18z"/>
<path d="M4064 1610 c1 -17 36 -27 36 -11 0 6 -6 8 -14 5 -8 -3 -16 0 -19 8
-3 9 -4 8 -3 -2z"/>
<path d="M4224 1619 c-3 -6 -1 -16 5 -22 8 -8 11 -5 11 11 0 24 -5 28 -16 11z"/>
<path d="M4272 1610 c0 -14 2 -19 5 -12 2 6 2 18 0 25 -3 6 -5 1 -5 -13z"/>
<path d="M4292 1610 c0 -14 2 -19 5 -12 2 6 2 18 0 25 -3 6 -5 1 -5 -13z"/>
<path d="M4382 1610 c0 -14 2 -19 5 -12 2 6 2 18 0 25 -3 6 -5 1 -5 -13z"/>
<path d="M4401 1614 c0 -11 3 -14 6 -6 3 7 2 16 -1 19 -3 4 -6 -2 -5 -13z"/>
<path d="M4440 1610 c0 -11 2 -20 4 -20 2 0 6 9 9 20 3 11 1 20 -4 20 -5 0 -9
-9 -9 -20z"/>
<path d="M302 1538 c-14 -14 -16 -44 -4 -52 4 -2 8 8 7 22 0 18 5 27 15 27 10
0 15 -9 15 -27 -1 -14 3 -24 7 -22 18 12 0 64 -22 64 -3 0 -11 -5 -18 -12z"/>
<path d="M539 1533 c-13 -17 -13 -17 6 -3 11 8 22 16 24 17 2 2 0 3 -6 3 -6 0
-17 -8 -24 -17z"/>
<path d="M698 1543 c17 -7 15 -23 -5 -45 -9 -10 -12 -18 -6 -18 14 0 37 46 29
59 -4 6 -13 11 -19 10 -9 0 -9 -2 1 -6z"/>
<path d="M1012 1538 c-14 -14 -16 -44 -4 -52 4 -2 8 8 7 22 0 18 5 27 15 27
10 0 15 -9 15 -27 -1 -14 3 -24 7 -22 18 12 0 64 -22 64 -3 0 -11 -5 -18 -12z"/>
<path d="M134 1525 c-4 -9 -4 -19 0 -22 3 -4 6 1 6 10 0 25 18 21 23 -5 5 -21
5 -21 4 1 -2 29 -24 40 -33 16z"/>
<path d="M427 1533 c-9 -9 -9 -41 1 -46 4 -3 7 8 7 24 0 16 0 29 -1 29 0 0 -4
-3 -7 -7z"/>
<path d="M498 1510 c2 -16 6 -30 8 -30 2 0 4 14 4 30 0 17 -4 30 -8 30 -5 0
-7 -13 -4 -30z"/>
<path d="M1088 1510 c2 -16 6 -30 8 -30 2 0 4 14 4 30 0 17 -4 30 -8 30 -5 0
-7 -13 -4 -30z"/>
<path d="M647 1523 c-11 -10 -8 -43 3 -43 5 0 7 7 3 16 -3 9 0 20 8 25 8 5 9
9 3 9 -6 0 -14 -3 -17 -7z"/>
<path d="M779 1513 c-13 -17 -13 -17 6 -3 11 8 22 16 24 17 2 2 0 3 -6 3 -6 0
-17 -8 -24 -17z"/>
<path d="M827 1523 c-11 -10 -8 -43 3 -43 5 0 7 7 3 16 -3 9 0 20 8 25 8 5 9
9 3 9 -6 0 -14 -3 -17 -7z"/>
<path d="M870 1515 c-11 -13 -11 -18 0 -28 10 -9 11 -9 6 1 -4 7 -2 19 4 27 7
8 10 15 7 15 -2 0 -10 -7 -17 -15z"/>
<path d="M915 1520 c-3 -6 1 -7 9 -4 18 7 21 14 7 14 -6 0 -13 -4 -16 -10z"/>
<path d="M583 1506 c1 -11 9 -21 17 -23 10 -3 11 -2 4 4 -6 4 -14 15 -17 23
-5 11 -6 9 -4 -4z"/>
<path d="M730 1501 c0 -6 4 -13 10 -16 6 -3 7 1 4 9 -7 18 -14 21 -14 7z"/>
<path d="M4122 1355 c0 -16 2 -22 5 -12 2 9 2 23 0 30 -3 6 -5 -1 -5 -18z"/>
<path d="M4147 1360 c-3 -11 -1 -23 4 -26 5 -3 9 6 9 20 0 31 -6 34 -13 6z"/>
<path d="M4221 1355 c0 -26 2 -27 9 -10 6 13 9 15 9 5 1 -13 3 -13 10 -1 7 11
10 10 14 -5 3 -13 5 -10 6 10 1 22 -2 26 -12 17 -10 -8 -17 -7 -25 1 -9 9 -12
5 -11 -17z"/>
<path d="M4280 1355 c0 -14 5 -25 11 -25 5 0 8 4 5 9 -4 5 -2 11 3 13 5 1 3 9
-5 16 -12 11 -14 9 -14 -13z"/>
<path d="M5111 1364 c0 -11 3 -14 6 -6 3 7 2 16 -1 19 -3 4 -6 -2 -5 -13z"/>
<path d="M5130 1361 c0 -11 -6 -22 -12 -24 -8 -4 -7 -6 3 -6 10 -1 19 9 21 24
3 14 1 25 -3 25 -5 0 -9 -9 -9 -19z"/>
<path d="M5162 1355 c0 -16 2 -22 5 -12 2 9 2 23 0 30 -3 6 -5 -1 -5 -18z"/>
<path d="M5183 1364 c-3 -8 -2 -19 3 -24 5 -5 9 1 9 16 0 28 -3 30 -12 8z"/>
<path d="M5230 1355 c0 -23 3 -27 10 -15 9 13 11 13 20 0 7 -12 10 -8 10 15 0
23 -3 27 -10 15 -9 -13 -11 -13 -20 0 -7 12 -10 8 -10 -15z"/>
<path d="M4196 1347 c3 -10 9 -15 12 -12 3 3 0 11 -7 18 -10 9 -11 8 -5 -6z"/>
<path d="M302 1308 c-14 -14 -16 -44 -4 -52 4 -2 8 8 7 22 0 18 5 27 15 27 10
0 15 -9 15 -27 -1 -14 3 -24 7 -22 18 12 0 64 -22 64 -3 0 -11 -5 -18 -12z"/>
<path d="M432 1308 c-14 -14 -16 -44 -3 -52 5 -4 7 4 4 15 -4 15 0 27 12 35
11 8 14 14 9 14 -6 0 -15 -5 -22 -12z"/>
<path d="M492 1308 c-14 -14 -16 -44 -3 -52 5 -4 7 4 4 15 -4 15 0 27 12 35
11 8 14 14 9 14 -6 0 -15 -5 -22 -12z"/>
<path d="M147 1303 c-2 -5 0 -21 4 -38 7 -29 7 -29 8 8 1 35 -3 46 -12 30z"/>
<path d="M185 1300 c-4 -6 -4 -14 -1 -17 3 -4 6 -1 6 5 0 7 5 12 10 12 6 0 10
-11 10 -25 0 -25 -14 -34 -23 -15 -3 6 -4 5 -3 -2 5 -27 31 -13 31 16 0 30
-18 46 -30 26z"/>
<path d="M596 1293 c-4 -10 0 -23 11 -32 15 -15 16 -15 5 0 -7 9 -10 24 -6 33
3 9 4 16 1 16 -3 0 -8 -8 -11 -17z"/>
<path d="M708 1280 c2 -16 6 -30 8 -30 2 0 4 14 4 30 0 17 -4 30 -8 30 -5 0
-7 -13 -4 -30z"/>
<path d="M978 1280 c2 -16 6 -30 8 -30 2 0 4 14 4 30 0 17 -4 30 -8 30 -5 0
-7 -13 -4 -30z"/>
<path d="M653 1284 c-3 -8 0 -21 6 -27 9 -9 11 -8 5 7 -4 11 -2 21 7 27 10 6
11 9 1 9 -7 0 -15 -7 -19 -16z"/>
<path d="M750 1285 c-11 -13 -11 -18 0 -28 10 -10 11 -9 5 2 -5 9 -1 19 10 28
11 7 14 13 8 13 -6 0 -16 -7 -23 -15z"/>
<path d="M797 1293 c-11 -10 -8 -43 3 -43 5 0 7 7 3 16 -3 9 0 20 8 25 8 5 9
9 3 9 -6 0 -14 -3 -17 -7z"/>
<path d="M880 1285 c-11 -13 -11 -18 0 -28 10 -10 11 -9 5 2 -5 9 -1 19 10 28
11 7 14 13 8 13 -6 0 -16 -7 -23 -15z"/>
<path d="M927 1293 c-11 -10 -8 -43 3 -43 5 0 7 7 3 16 -3 9 0 20 8 25 8 5 9
9 3 9 -6 0 -14 -3 -17 -7z"/>
<path d="M830 1276 c0 -8 4 -17 9 -20 5 -4 7 3 4 14 -6 23 -13 26 -13 6z"/>
<path d="M378 1263 c7 -3 16 -2 19 1 4 3 -2 6 -13 5 -11 0 -14 -3 -6 -6z"/>
<path d="M1665 1221 c-3 -5 0 -13 6 -17 7 -4 9 -3 5 4 -3 6 2 13 11 15 16 4
16 5 1 6 -9 0 -19 -3 -23 -8z"/>
<path d="M1716 1222 c-10 -17 2 -47 20 -49 14 -2 15 -1 4 5 -8 4 -15 14 -15
22 0 8 7 18 15 22 13 5 12 7 -2 7 -9 1 -19 -3 -22 -7z"/>
<path d="M1761 1204 c-1 -31 1 -32 37 -32 20 0 30 3 22 7 -8 3 -15 13 -15 21
0 8 7 18 15 22 11 6 10 7 -5 5 -12 -1 -20 -10 -20 -21 0 -31 -23 -30 -28 1 -4
28 -4 28 -6 -3z"/>
<path d="M1844 1215 c-9 -23 3 -45 23 -44 17 1 17 2 1 6 -29 7 -23 43 7 43 19
0 25 -5 26 -22 1 -21 2 -21 6 -3 3 11 10 23 17 27 6 4 -8 8 -32 8 -29 0 -44
-5 -48 -15z"/>
<path d="M1682 1184 c-7 -8 -8 -14 -3 -14 10 0 25 19 20 25 -2 1 -10 -3 -17
-11z"/>
<path d="M1666 1102 c-3 -5 4 -16 15 -25 10 -9 19 -12 19 -7 0 6 -8 14 -17 17
-15 6 -15 7 3 14 16 6 16 8 2 8 -9 1 -19 -3 -22 -7z"/>
<path d="M1762 1085 c0 -16 2 -22 5 -12 2 9 2 23 0 30 -3 6 -5 -1 -5 -18z"/>
<path d="M1844 1095 c-3 -8 -4 -20 -1 -27 3 -7 6 -3 6 10 1 16 7 22 25 22 18
0 26 -6 28 -22 3 -21 4 -21 9 5 6 25 4 27 -28 27 -20 0 -36 -6 -39 -15z"/>
<path d="M302 1078 c-14 -14 -16 -44 -4 -52 4 -2 8 8 7 22 0 18 5 27 15 27 10
0 15 -9 15 -27 -1 -14 3 -24 7 -22 18 12 0 64 -22 64 -3 0 -11 -5 -18 -12z"/>
<path d="M430 1075 c-14 -17 -10 -47 8 -51 7 -1 8 0 2 3 -16 8 -12 41 8 52 9
6 12 11 6 11 -6 0 -17 -7 -24 -15z"/>
<path d="M522 1078 c-14 -14 -16 -44 -4 -52 4 -2 8 7 7 21 0 34 22 41 34 11 6
-13 10 -17 10 -7 1 15 -17 39 -29 39 -3 0 -11 -5 -18 -12z"/>
<path d="M622 1078 c-14 -14 -16 -44 -3 -52 5 -4 7 4 4 15 -4 15 0 27 12 35
11 8 14 14 9 14 -6 0 -15 -5 -22 -12z"/>
<path d="M675 1080 c-3 -6 1 -7 9 -4 18 7 21 14 7 14 -6 0 -13 -4 -16 -10z"/>
<path d="M1030 1086 c0 -2 7 -7 16 -10 8 -3 12 -2 9 4 -6 10 -25 14 -25 6z"/>
<path d="M1160 1086 c0 -2 7 -7 16 -10 8 -3 12 -2 9 4 -6 10 -25 14 -25 6z"/>
<path d="M147 1073 c-2 -5 0 -21 4 -38 7 -29 7 -29 8 8 1 35 -3 46 -12 30z"/>
<path d="M197 1073 c-2 -5 0 -21 4 -38 7 -29 7 -29 8 8 1 35 -3 46 -12 30z"/>
<path d="M755 1070 c3 -5 11 -10 16 -10 6 0 7 5 4 10 -3 6 -11 10 -16 10 -6 0
-7 -4 -4 -10z"/>
<path d="M1006 1063 c-4 -10 0 -23 11 -32 15 -15 16 -15 5 0 -7 9 -10 24 -6
33 3 9 4 16 1 16 -3 0 -8 -8 -11 -17z"/>
<path d="M4125 1059 c-11 -16 -1 -19 13 -3 7 8 8 14 3 14 -5 0 -13 -5 -16 -11z"/>
<path d="M4171 1045 c0 -16 3 -24 6 -16 5 11 7 11 14 0 5 -8 9 -9 9 -3 0 5 -7
19 -15 30 -14 18 -14 18 -14 -11z"/>
<path d="M4212 1045 c0 -16 2 -22 5 -12 2 9 2 23 0 30 -3 6 -5 -1 -5 -18z"/>
<path d="M4235 1060 c3 -5 8 -10 11 -10 2 0 4 5 4 10 0 6 -5 10 -11 10 -5 0
-7 -4 -4 -10z"/>
<path d="M4294 1055 c-8 -20 2 -45 18 -45 8 0 9 3 3 8 -5 4 -10 14 -10 22 0 8
5 18 10 22 6 5 5 8 -3 8 -7 0 -15 -7 -18 -15z"/>
<path d="M4345 1059 c-11 -16 -1 -19 13 -3 7 8 8 14 3 14 -5 0 -13 -5 -16 -11z"/>
<path d="M5115 1059 c-11 -16 -1 -19 13 -3 7 8 8 14 3 14 -5 0 -13 -5 -16 -11z"/>
<path d="M5215 1059 c-11 -16 -1 -19 13 -3 7 8 8 14 3 14 -5 0 -13 -5 -16 -11z"/>
<path d="M660 1054 c0 -13 18 -39 24 -34 2 3 -2 14 -10 24 -8 11 -14 16 -14
10z"/>
<path d="M835 1050 c-3 -5 1 -10 10 -10 9 0 13 5 10 10 -3 6 -8 10 -10 10 -2
0 -7 -4 -10 -10z"/>
<path d="M1051 1037 c-13 -21 -12 -21 5 -5 10 10 16 20 13 22 -3 3 -11 -5 -18
-17z"/>
<path d="M786 1035 c4 -8 11 -15 16 -15 6 0 5 6 -2 15 -7 8 -14 15 -16 15 -2
0 -1 -7 2 -15z"/>
<path d="M378 1033 c7 -3 16 -2 19 1 4 3 -2 6 -13 5 -11 0 -14 -3 -6 -6z"/>
<path d="M4145 1031 c3 -5 -2 -12 -10 -14 -12 -4 -12 -5 1 -3 19 1 32 26 14
26 -6 0 -9 -4 -5 -9z"/>
<path d="M4364 1032 c3 -6 -2 -13 -11 -15 -16 -4 -16 -5 -1 -6 21 -1 32 15 17
25 -7 4 -9 3 -5 -4z"/>
<path d="M5160 1036 c0 -2 9 -6 20 -9 11 -3 18 -1 14 4 -5 9 -34 13 -34 5z"/>
<path d="M5234 1032 c3 -6 -2 -13 -11 -15 -16 -4 -16 -5 -1 -6 21 -1 32 15 17
25 -7 4 -9 3 -5 -4z"/>
<path d="M5118 1018 c6 -6 18 -8 28 -6 14 3 12 5 -9 10 -19 3 -25 2 -19 -4z"/>
<path d="M1765 1000 c3 -5 8 -10 11 -10 2 0 4 5 4 10 0 6 -5 10 -11 10 -5 0
-7 -4 -4 -10z"/>
<path d="M1800 999 c0 -5 5 -7 10 -4 6 3 10 8 10 11 0 2 -4 4 -10 4 -5 0 -10
-5 -10 -11z"/>
<path d="M1720 978 c0 -4 7 -8 15 -8 8 0 15 4 15 8 0 5 -7 9 -15 9 -8 0 -15
-4 -15 -9z"/>
<path d="M1838 983 c7 -3 16 -2 19 1 4 3 -2 6 -13 5 -11 0 -14 -3 -6 -6z"/>
<path d="M1640 885 l0 -45 1030 0 1030 0 0 45 0 45 -1030 0 -1030 0 0 -45z
m97 15 c9 -10 12 -11 13 -2 0 27 20 10 20 -18 0 -26 -3 -29 -17 -22 -10 6 -27
6 -45 0 -21 -8 -33 -7 -41 1 -8 8 -6 11 8 11 18 0 18 0 0 13 -10 8 -15 19 -11
26 10 16 58 10 73 -9z m70 9 c6 -6 9 -18 6 -25 -3 -8 1 -14 11 -14 10 0 16 9
16 24 0 21 5 23 40 23 22 0 40 -4 40 -8 0 -5 -6 -9 -12 -9 -7 0 -5 -5 5 -11
14 -8 16 -14 6 -25 -13 -16 -39 -19 -39 -5 0 5 8 12 18 14 9 3 1 5 -18 5 -19
0 -29 -2 -22 -5 27 -11 10 -23 -33 -23 -45 0 -45 0 -45 35 0 36 8 43 27 24z"/>
<path d="M1680 896 c0 -2 7 -6 15 -10 8 -3 15 -1 15 4 0 6 -7 10 -15 10 -8 0
-15 -2 -15 -4z"/>
<path d="M1858 893 c7 -3 16 -2 19 1 4 3 -2 6 -13 5 -11 0 -14 -3 -6 -6z"/>
<path d="M302 848 c-14 -14 -16 -44 -4 -52 4 -2 8 8 7 22 0 18 5 27 15 27 10
0 15 -9 15 -27 -1 -14 3 -24 7 -22 18 12 0 64 -22 64 -3 0 -11 -5 -18 -12z"/>
<path d="M732 848 c-14 -14 -16 -44 -4 -52 4 -2 8 8 7 22 0 18 5 27 15 27 10
0 15 -9 15 -27 -1 -14 3 -24 7 -22 18 12 0 64 -22 64 -3 0 -11 -5 -18 -12z"/>
<path d="M147 843 c-2 -5 -1 -19 4 -33 7 -23 7 -23 8 8 1 31 -3 40 -12 25z"/>
<path d="M200 840 c12 -8 12 -11 -3 -28 -22 -24 -22 -32 1 -31 11 0 12 2 4 6
-10 4 -10 9 3 23 17 19 13 40 -8 40 -7 0 -6 -4 3 -10z"/>
<path d="M418 820 c2 -16 6 -30 8 -30 2 0 4 14 4 30 0 17 -4 30 -8 30 -5 0 -7
-13 -4 -30z"/>
<path d="M688 820 c2 -16 6 -30 8 -30 2 0 4 14 4 30 0 17 -4 30 -8 30 -5 0 -7
-13 -4 -30z"/>
<path d="M363 824 c-3 -8 0 -21 6 -27 9 -9 11 -8 5 7 -4 11 -2 21 7 27 10 6
11 9 1 9 -7 0 -15 -7 -19 -16z"/>
<path d="M503 829 c-13 -13 -6 -39 9 -39 6 0 6 6 -1 14 -10 11 -8 17 6 25 10
6 13 11 8 11 -6 0 -16 -5 -22 -11z"/>
<path d="M543 824 c-3 -8 0 -21 6 -27 9 -9 11 -8 5 7 -4 11 -2 21 7 27 10 6
11 9 1 9 -7 0 -15 -7 -19 -16z"/>
<path d="M590 825 c-11 -13 -11 -18 0 -28 10 -9 11 -9 6 1 -4 7 -2 19 4 27 7
8 10 15 7 15 -2 0 -10 -7 -17 -15z"/>
<path d="M635 830 c-3 -6 1 -7 9 -4 18 7 21 14 7 14 -6 0 -13 -4 -16 -10z"/>
<path d="M450 811 c0 -6 4 -13 10 -16 6 -3 7 1 4 9 -7 18 -14 21 -14 7z"/>
<path d="M630 800 c0 -5 5 -10 11 -10 5 0 7 5 4 10 -3 6 -8 10 -11 10 -2 0 -4
-4 -4 -10z"/>
<path d="M1672 785 c0 -16 2 -22 5 -12 2 9 2 23 0 30 -3 6 -5 -1 -5 -18z"/>
<path d="M1692 785 c0 -16 2 -22 5 -12 2 9 2 23 0 30 -3 6 -5 -1 -5 -18z"/>
<path d="M1717 790 c-3 -11 -1 -23 4 -26 5 -3 9 6 9 20 0 31 -6 34 -13 6z"/>
<path d="M1743 794 c-3 -8 -2 -19 3 -24 5 -5 9 1 9 16 0 28 -3 30 -12 8z"/>
<path d="M1790 785 c0 -23 3 -27 10 -15 9 13 11 13 20 0 7 -12 10 -8 10 15 0
23 -3 27 -10 15 -9 -13 -11 -13 -20 0 -7 12 -10 8 -10 -15z"/>
<path d="M1760 696 c0 -1 9 -9 20 -19 15 -13 20 -14 20 -3 0 7 -9 16 -20 19
-11 3 -20 4 -20 3z"/>
<path d="M1555 681 c-3 -5 0 -13 6 -17 7 -4 9 -3 5 4 -3 6 2 13 11 15 16 4 16
5 1 6 -9 0 -19 -3 -23 -8z"/>
<path d="M1712 674 c-7 -8 -8 -14 -3 -14 10 0 25 19 20 25 -2 1 -10 -3 -17
-11z"/>
<path d="M1600 661 c0 -11 3 -22 8 -24 4 -3 7 6 7 19 0 13 -3 24 -7 24 -5 0
-8 -9 -8 -19z"/>
<path d="M1572 644 c-7 -8 -8 -14 -3 -14 10 0 25 19 20 25 -2 1 -10 -3 -17
-11z"/>
<path d="M520 626 c0 -2 7 -7 16 -10 8 -3 12 -2 9 4 -6 10 -25 14 -25 6z"/>
<path d="M772 616 c7 -8 15 -12 17 -11 5 6 -10 25 -20 25 -5 0 -4 -6 3 -14z"/>
<path d="M146 593 c10 -40 14 -41 14 -5 0 18 -5 32 -10 32 -6 0 -8 -11 -4 -27z"/>
<path d="M190 616 c0 -2 7 -7 16 -10 8 -3 12 -2 9 4 -6 10 -25 14 -25 6z"/>
<path d="M348 590 c2 -16 6 -30 8 -30 2 0 4 14 4 30 0 17 -4 30 -8 30 -5 0 -7
-13 -4 -30z"/>
<path d="M858 590 c2 -16 6 -30 8 -30 2 0 4 14 4 30 0 17 -4 30 -8 30 -5 0 -7
-13 -4 -30z"/>
<path d="M293 594 c-3 -8 0 -21 6 -27 9 -9 11 -8 5 7 -4 11 -2 21 7 27 10 6
11 9 1 9 -7 0 -15 -7 -19 -16z"/>
<path d="M390 595 c-11 -13 -11 -18 0 -28 10 -10 11 -9 5 2 -5 9 -1 19 10 28
11 7 14 13 8 13 -6 0 -16 -7 -23 -15z"/>
<path d="M437 603 c-14 -14 -7 -43 11 -42 10 0 12 3 5 6 -7 2 -13 11 -13 18 0
7 6 16 13 18 6 3 7 6 1 6 -6 1 -14 -2 -17 -6z"/>
<path d="M473 594 c-3 -8 0 -21 6 -27 9 -9 11 -8 5 7 -4 11 -2 21 7 27 10 6
11 9 1 9 -7 0 -15 -7 -19 -16z"/>
<path d="M570 595 c-10 -11 -10 -19 -2 -27 15 -15 44 -2 40 19 -4 23 -22 27
-38 8z m30 -10 c0 -8 -7 -15 -15 -15 -16 0 -20 12 -8 23 11 12 23 8 23 -8z"/>
<path d="M623 594 c-3 -8 0 -21 6 -27 9 -9 11 -8 5 7 -4 11 -2 21 7 27 10 6
11 9 1 9 -7 0 -15 -7 -19 -16z"/>
<path d="M670 595 c-11 -13 -11 -18 0 -28 10 -9 11 -9 6 1 -4 7 -2 19 4 27 7
8 10 15 7 15 -2 0 -10 -7 -17 -15z"/>
<path d="M715 600 c-3 -6 1 -7 9 -4 18 7 21 14 7 14 -6 0 -13 -4 -16 -10z"/>
<path d="M803 594 c-3 -8 0 -21 6 -27 9 -9 11 -8 5 7 -4 11 -2 21 7 27 10 6
11 9 1 9 -7 0 -15 -7 -19 -16z"/>
<path d="M530 585 c-7 -9 -11 -17 -9 -20 3 -2 10 5 17 15 14 24 10 26 -8 5z"/>
<path d="M200 583 c15 -7 12 -21 -5 -26 -11 -4 -10 -4 2 -3 21 2 25 28 5 32
-7 1 -8 0 -2 -3z"/>
<path d="M710 570 c0 -5 5 -10 11 -10 5 0 7 5 4 10 -3 6 -8 10 -11 10 -2 0 -4
-4 -4 -10z"/>
<path d="M3564 469 c-4 -7 1 -16 12 -22 17 -10 17 -11 -1 -18 -16 -6 -17 -8
-3 -8 25 -1 34 20 13 31 -14 8 -15 12 -4 19 9 6 10 9 2 9 -6 0 -15 -5 -19 -11z"/>
<path d="M3760 455 c0 -19 4 -23 17 -18 11 4 12 8 5 11 -7 2 -12 8 -12 14 0 6
7 7 16 4 8 -3 12 -2 9 4 -12 20 -35 10 -35 -15z"/>
<path d="M3611 448 c-1 -23 3 -27 26 -25 17 2 29 9 31 20 4 22 -11 22 -29 1
-12 -15 -14 -14 -20 7 -7 24 -7 23 -8 -3z m49 -8 c0 -5 -5 -10 -11 -10 -5 0
-7 5 -4 10 3 6 8 10 11 10 2 0 4 -4 4 -10z"/>
<path d="M3708 445 c2 -14 8 -25 12 -25 4 0 5 11 2 25 -2 14 -8 25 -12 25 -4
0 -5 -11 -2 -25z"/>
<path d="M3814 457 c-7 -19 2 -37 19 -37 8 0 7 3 -2 9 -11 7 -11 9 0 14 11 3
11 7 2 17 -10 11 -14 10 -19 -3z"/>
<path d="M3855 461 c-3 -5 0 -13 6 -17 7 -4 9 -3 5 4 -3 5 0 13 6 15 9 4 10 6
1 6 -6 1 -14 -3 -18 -8z"/>
<path d="M3884 446 l-21 -24 24 2 c12 2 26 6 31 11 4 4 1 5 -5 1 -8 -4 -13 -1
-13 9 0 10 5 13 12 9 7 -4 8 -3 4 4 -9 15 -7 16 -32 -12z"/>
<path d="M3994 457 c-7 -19 2 -37 19 -37 8 0 7 3 -2 9 -11 7 -11 9 0 14 11 3
11 7 2 17 -10 11 -14 10 -19 -3z"/>
<path d="M3681 444 c0 -11 3 -14 6 -6 3 7 2 16 -1 19 -3 4 -6 -2 -5 -13z"/>
<path d="M3950 455 c0 -5 5 -17 10 -25 5 -8 10 -10 10 -5 0 6 -5 17 -10 25 -5
8 -10 11 -10 5z"/>
<path d="M4031 444 c0 -11 3 -14 6 -6 3 7 2 16 -1 19 -3 4 -6 -2 -5 -13z"/>
<path d="M5871 244 c0 -11 3 -14 6 -6 3 7 2 16 -1 19 -3 4 -6 -2 -5 -13z"/>
<path d="M5963 235 c0 -8 4 -15 9 -15 4 0 8 7 8 15 0 8 -4 15 -8 15 -5 0 -9
-7 -9 -15z"/>
<path d="M523 198 c3 -9 1 -18 -6 -21 -6 -2 -2 -6 11 -9 19 -5 21 -4 10 15
-14 28 -23 37 -15 15z"/>
<path d="M570 195 c-6 -8 -10 -20 -7 -27 3 -8 6 -6 6 5 1 10 6 15 11 12 6 -3
10 1 10 9 0 20 -4 20 -20 1z"/>
<path d="M618 199 c-19 -10 -24 -34 -10 -43 4 -2 14 0 22 6 12 8 12 9 -2 4
-10 -3 -18 0 -18 6 0 6 8 17 18 24 20 16 14 18 -10 3z"/>
<path d="M673 194 c-3 -8 -1 -20 5 -26 8 -8 9 -5 6 10 -4 14 0 22 13 25 17 4
17 5 0 6 -10 0 -20 -6 -24 -15z"/>
<path d="M721 182 c0 -16 3 -21 6 -12 3 8 10 18 15 21 5 3 3 9 -6 12 -12 5
-16 0 -15 -21z"/>
<path d="M767 193 c-10 -10 -8 -23 4 -23 5 0 7 5 3 12 -5 8 -2 9 10 5 10 -4
15 -3 11 3 -7 12 -19 13 -28 3z"/>
<path d="M810 189 c0 -5 4 -8 9 -4 5 3 12 -3 14 -12 4 -14 5 -13 6 5 1 13 -5
22 -14 22 -8 0 -15 -5 -15 -11z"/>
<path d="M936 183 c-8 -20 9 -40 19 -22 5 8 4 10 -3 5 -7 -4 -12 -2 -12 3 0 6
5 11 10 11 6 0 10 5 10 10 0 16 -17 11 -24 -7z"/>
<path d="M995 191 c-6 -11 13 -26 22 -17 4 3 0 6 -8 6 -11 0 -11 2 1 10 9 6
10 10 3 10 -6 0 -14 -4 -18 -9z"/>
<path d="M890 176 c0 -2 8 -10 18 -17 15 -13 16 -12 3 4 -13 16 -21 21 -21 13z"/>
</g>
</svg>
