<?xml version="1.0" standalone="no"?>
<!DOCTYPE svg PUBLIC "-//W3C//DTD SVG 20010904//EN"
 "http://www.w3.org/TR/2001/REC-SVG-20010904/DTD/svg10.dtd">
<svg version="1.0" xmlns="http://www.w3.org/2000/svg"
 width="501.000000pt" height="152.000000pt" viewBox="0 0 501.000000 152.000000"
 preserveAspectRatio="xMidYMid meet">

<g transform="translate(0.000000,152.000000) scale(0.100000,-0.100000)"
fill="#000000" stroke="none">
<path d="M4740 1403 c0 -4 10 -17 22 -30 l21 -23 -23 -25 c-31 -32 -17 -46 15
-15 l25 23 25 -23 c32 -31 46 -17 15 15 l-23 25 23 25 c31 32 17 46 -15 15
l-25 -23 -23 21 c-24 22 -37 28 -37 15z"/>
<path d="M300 1345 c0 -30 5 -55 10 -55 6 0 10 25 10 55 0 30 -4 55 -10 55 -5
0 -10 -25 -10 -55z"/>
<path d="M430 1385 c0 -16 -7 -18 -57 -15 -32 1 -33 0 -33 -39 0 -49 17 -55
22 -8 2 17 8 32 13 32 6 0 11 -15 13 -32 4 -44 22 -42 22 2 0 19 5 35 10 35 6
0 10 -16 10 -35 0 -19 5 -35 10 -35 6 0 10 16 10 35 0 19 5 35 11 35 6 0 8 -7
5 -16 -17 -44 52 -76 74 -34 18 33 -4 61 -45 58 -39 -2 -56 9 -35 22 12 8 10
10 -7 10 -14 0 -23 -6 -23 -15z m94 -40 c7 -20 -3 -45 -19 -45 -16 0 -26 25
-19 45 4 8 12 15 19 15 7 0 15 -7 19 -15z"/>
<path d="M55 1319 c-11 -17 1 -21 15 -4 8 9 8 15 2 15 -6 0 -14 -5 -17 -11z"/>
<path d="M291 1048 c-88 -19 -162 -130 -144 -220 14 -75 72 -139 144 -158 141
-38 277 98 239 239 -27 101 -131 162 -239 139z m77 -14 l23 -7 -23 -13 c-13
-8 -31 -17 -40 -20 -10 -3 -18 -10 -18 -15 0 -5 -6 -9 -12 -9 -7 0 -39 -16
-71 -35 -55 -33 -58 -34 -52 -13 25 82 114 133 193 112z m-8 -89 c0 -8 -9 -15
-20 -15 -11 0 -20 7 -20 15 0 8 9 15 20 15 11 0 20 -7 20 -15z m-10 -115 c0
-40 -4 -70 -10 -70 -6 0 -10 30 -10 70 0 40 4 70 10 70 6 0 10 -30 10 -70z"/>
<path d="M760 955 c0 -30 5 -55 10 -55 6 0 10 11 10 25 0 14 5 25 10 25 6 0
16 -11 22 -25 6 -14 15 -25 20 -25 5 0 1 11 -8 25 -12 19 -14 28 -5 39 18 22
2 46 -30 46 -28 0 -29 -1 -29 -55z m55 25 c0 -8 -8 -16 -17 -18 -13 -2 -18 3
-18 18 0 15 5 20 18 18 9 -2 17 -10 17 -18z"/>
<path d="M1272 955 c1 -47 2 -52 7 -25 4 22 12 35 21 35 9 0 18 -13 22 -35 l6
-35 -1 40 c-2 33 -6 40 -22 40 -11 0 -23 9 -27 20 -3 11 -6 -7 -6 -40z"/>
<path d="M1392 955 c1 -47 2 -52 7 -25 4 22 12 35 21 35 9 0 18 -13 22 -35 l6
-35 -1 40 c-2 33 -6 40 -22 40 -11 0 -23 9 -27 20 -3 11 -6 -7 -6 -40z"/>
<path d="M1651 960 c-1 -55 -1 -56 29 -58 24 -2 31 2 36 23 8 33 -1 55 -23 55
-17 -1 -17 -1 0 -11 21 -13 22 -48 1 -56 -17 -6 -36 15 -30 34 3 6 1 24 -4 40
-7 24 -8 19 -9 -27z"/>
<path d="M2080 992 c0 -13 -8 -18 -27 -17 -25 0 -28 -3 -28 -35 0 -33 2 -35
33 -36 l32 -1 0 54 c0 29 -2 53 -5 53 -3 0 -5 -8 -5 -18z m-6 -37 c8 -21 -3
-45 -20 -45 -18 0 -28 24 -20 45 3 8 12 15 20 15 7 0 16 -7 20 -15z"/>
<path d="M2360 988 c0 -19 2 -20 10 -8 13 19 13 30 0 30 -5 0 -10 -10 -10 -22z"/>
<path d="M2440 955 c0 -30 5 -55 10 -55 6 0 10 25 10 55 0 30 -4 55 -10 55 -5
0 -10 -25 -10 -55z"/>
<path d="M2616 994 c-19 -18 -21 -65 -4 -82 7 -7 23 -11 38 -11 20 1 21 2 5 6
-30 8 -45 23 -45 48 0 25 15 40 45 48 19 4 18 5 -2 6 -12 0 -29 -6 -37 -15z"/>
<path d="M2692 955 c1 -47 2 -52 7 -25 4 22 12 35 21 35 9 0 18 -13 22 -35 l6
-35 -1 40 c-2 33 -6 40 -22 40 -11 0 -23 9 -27 20 -3 11 -6 -7 -6 -40z"/>
<path d="M3173 955 c0 -33 2 -45 4 -27 2 18 2 45 0 60 -2 15 -4 0 -4 -33z"/>
<path d="M3322 998 c-7 -7 -12 -26 -12 -43 0 -36 15 -55 45 -55 30 0 45 19 45
55 0 36 -15 55 -45 55 -12 0 -26 -5 -33 -12z m56 -10 c30 -30 -2 -93 -36 -71
-21 13 -27 50 -12 69 15 17 32 18 48 2z"/>
<path d="M4372 993 c-4 -10 -5 -36 -1 -58 l6 -40 2 38 c0 22 6 37 14 37 8 0 7
4 -3 10 -13 9 -13 11 0 20 9 6 11 10 3 10 -7 0 -16 -8 -21 -17z"/>
<path d="M4590 992 c0 -13 -8 -18 -27 -17 -25 0 -28 -3 -28 -35 0 -33 2 -35
33 -36 l32 -1 0 54 c0 29 -2 53 -5 53 -3 0 -5 -8 -5 -18z m-6 -37 c8 -21 -3
-45 -20 -45 -8 0 -17 7 -20 15 -8 21 2 45 20 45 7 0 16 -7 20 -15z"/>
<path d="M4712 955 c1 -47 2 -52 7 -25 4 22 12 35 21 35 9 0 18 -13 22 -35 l6
-35 -1 40 c-2 33 -6 40 -22 40 -11 0 -23 9 -27 20 -3 11 -6 -7 -6 -40z"/>
<path d="M3502 983 c-8 -8 -9 -13 -2 -13 5 0 10 -16 10 -35 0 -27 4 -35 18
-34 10 0 12 3 5 6 -15 5 -18 60 -4 65 5 2 4 8 -3 14 -8 8 -15 7 -24 -3z"/>
<path d="M3722 983 c-8 -8 -9 -13 -2 -13 5 0 10 -16 10 -35 0 -27 4 -35 18
-34 10 0 12 3 5 6 -15 5 -18 60 -4 65 5 2 4 8 -3 14 -8 8 -15 7 -24 -3z"/>
<path d="M4662 983 c-8 -8 -9 -13 -2 -13 5 0 10 -16 10 -35 0 -27 4 -35 18
-34 10 0 12 3 5 6 -15 5 -18 60 -4 65 5 2 4 8 -3 14 -8 8 -15 7 -24 -3z"/>
<path d="M861 966 c-27 -33 11 -88 40 -59 6 6 1 9 -12 9 -12 -1 -24 5 -26 12
-3 7 5 12 22 12 20 0 26 4 23 17 -4 23 -31 28 -47 9z m39 -6 c0 -5 -9 -10 -21
-10 -11 0 -17 5 -14 10 3 6 13 10 21 10 8 0 14 -4 14 -10z"/>
<path d="M933 964 c-4 -10 0 -20 10 -26 22 -12 22 -25 0 -31 -17 -4 -17 -5 0
-6 24 -1 34 29 14 41 -22 12 -22 25 1 31 16 4 16 5 -1 6 -10 0 -20 -6 -24 -15z"/>
<path d="M1001 966 c-27 -33 11 -88 40 -59 6 6 1 9 -12 9 -12 -1 -24 5 -26 12
-3 7 5 12 22 12 20 0 26 4 23 17 -4 23 -31 28 -47 9z m39 -6 c0 -5 -9 -10 -21
-10 -11 0 -17 5 -14 10 3 6 13 10 21 10 8 0 14 -4 14 -10z"/>
<path d="M1100 969 l25 -11 -28 -10 c-37 -13 -33 -43 6 -44 26 -1 28 1 25 35
-3 30 -7 36 -28 38 l-25 3 25 -11z m20 -39 c0 -12 -28 -25 -36 -17 -9 9 6 27
22 27 8 0 14 -5 14 -10z"/>
<path d="M1151 935 c2 -33 3 -35 6 -10 2 17 11 35 20 42 13 10 13 12 -6 10
-18 -1 -21 -7 -20 -42z"/>
<path d="M1210 966 c-20 -25 -8 -61 20 -63 25 -3 25 -3 3 7 -13 5 -23 18 -23
30 0 12 9 24 23 30 15 6 17 9 6 9 -9 1 -22 -6 -29 -13z"/>
<path d="M1500 969 l25 -11 -28 -10 c-37 -13 -33 -43 6 -44 26 -1 28 1 25 35
-3 30 -7 36 -28 38 l-25 3 25 -11z m20 -39 c0 -12 -28 -25 -36 -17 -9 9 6 27
22 27 8 0 14 -5 14 -10z"/>
<path d="M1553 964 c-4 -10 0 -20 10 -26 22 -12 22 -25 0 -31 -17 -4 -17 -5 0
-6 24 -1 34 29 14 41 -22 12 -22 25 1 31 16 4 16 5 -1 6 -10 0 -20 -6 -24 -15z"/>
<path d="M1751 966 c-27 -33 11 -88 40 -59 6 6 1 9 -12 9 -12 -1 -24 5 -26 12
-3 7 5 12 22 12 20 0 26 4 23 17 -4 23 -31 28 -47 9z m39 -6 c0 -5 -9 -10 -21
-10 -11 0 -17 5 -14 10 3 6 13 10 21 10 8 0 14 -4 14 -10z"/>
<path d="M1831 966 c-27 -33 11 -88 40 -59 6 6 1 9 -12 9 -12 -1 -24 5 -26 12
-3 7 5 12 22 12 20 0 26 4 23 17 -4 23 -31 28 -47 9z m39 -6 c0 -5 -9 -10 -21
-10 -11 0 -17 5 -14 10 3 6 13 10 21 10 8 0 14 -4 14 -10z"/>
<path d="M1901 936 l2 -41 6 35 c4 22 12 35 21 35 9 0 18 -13 22 -35 l6 -35
-1 40 c-2 36 -5 40 -29 41 -26 1 -28 -1 -27 -40z"/>
<path d="M2122 968 c-19 -19 -15 -56 8 -63 28 -9 52 13 48 44 -3 29 -35 40
-56 19z m43 -28 c0 -16 -6 -26 -18 -28 -19 -4 -32 20 -23 44 9 25 41 13 41
-16z"/>
<path d="M2201 936 l2 -41 6 35 c4 22 12 35 21 35 9 0 18 -13 22 -35 l6 -35
-1 40 c-2 36 -5 40 -29 41 -26 1 -28 -1 -27 -40z"/>
<path d="M2291 966 c-27 -33 11 -88 40 -59 6 6 1 9 -12 9 -12 -1 -24 5 -26 12
-3 7 5 12 22 12 20 0 26 4 23 17 -4 23 -31 28 -47 9z m39 -6 c0 -5 -9 -10 -21
-10 -11 0 -17 5 -14 10 3 6 13 10 21 10 8 0 14 -4 14 -10z"/>
<path d="M2481 936 l2 -41 6 35 c4 22 12 35 21 35 9 0 18 -13 22 -35 l6 -35
-1 40 c-2 36 -5 40 -29 41 -26 1 -28 -1 -27 -40z"/>
<path d="M2781 966 c-27 -33 11 -88 40 -59 6 6 1 9 -12 9 -12 -1 -24 5 -26 12
-3 7 5 12 22 12 20 0 26 4 23 17 -4 23 -31 28 -47 9z m39 -6 c0 -5 -9 -10 -21
-10 -11 0 -17 5 -14 10 3 6 13 10 21 10 8 0 14 -4 14 -10z"/>
<path d="M2851 936 c1 -42 3 -41 13 7 10 42 36 35 37 -10 l2 -38 6 35 c4 22
12 35 21 35 9 0 18 -13 22 -35 l6 -35 -1 40 -2 40 -52 1 -53 1 1 -41z"/>
<path d="M2983 940 c0 -25 2 -35 4 -22 2 12 2 32 0 45 -2 12 -4 2 -4 -23z"/>
<path d="M3030 966 c-20 -25 -8 -61 20 -63 25 -3 25 -3 3 7 -13 5 -23 18 -23
30 0 12 9 24 23 30 15 6 17 9 6 9 -9 1 -22 -6 -29 -13z"/>
<path d="M3120 969 l25 -11 -28 -10 c-37 -13 -33 -43 6 -44 26 -1 28 1 25 35
-3 30 -7 36 -28 38 l-25 3 25 -11z m20 -39 c0 -12 -28 -25 -36 -17 -9 9 6 27
22 27 8 0 14 -5 14 -10z"/>
<path d="M3213 964 c-4 -10 0 -20 10 -26 22 -12 22 -25 0 -31 -17 -4 -17 -5 0
-6 24 -1 34 29 14 41 -22 12 -22 25 1 31 16 4 16 5 -1 6 -10 0 -20 -6 -24 -15z"/>
<path d="M3423 945 c2 -36 5 -40 30 -41 25 -1 27 1 26 40 l-2 41 -6 -35 c-4
-22 -12 -35 -21 -35 -9 0 -18 13 -22 35 l-6 35 1 -40z"/>
<path d="M3551 923 c1 -32 4 -49 6 -37 3 16 10 20 28 16 19 -3 25 1 31 22 8
34 -1 56 -23 56 -17 -1 -17 -1 0 -11 21 -13 22 -48 1 -56 -19 -7 -36 15 -28
39 2 9 0 19 -6 23 -6 4 -10 -14 -9 -52z"/>
<path d="M3643 945 c2 -36 5 -40 30 -41 25 -1 27 1 26 40 l-2 41 -6 -35 c-4
-22 -12 -35 -21 -35 -9 0 -18 13 -22 35 l-6 35 1 -40z"/>
<path d="M3816 938 c14 -39 13 -44 -3 -55 -16 -12 -16 -13 0 -13 9 0 17 1 17
3 0 1 9 26 20 55 22 57 19 72 -4 20 l-14 -33 -7 33 c-4 17 -11 32 -16 32 -4 0
-1 -19 7 -42z"/>
<path d="M3892 968 c-19 -19 -15 -56 8 -63 28 -9 52 13 48 44 -3 29 -35 40
-56 19z m43 -28 c0 -16 -6 -26 -18 -28 -19 -4 -32 20 -23 44 9 25 41 13 41
-16z"/>
<path d="M3973 945 c2 -36 5 -40 30 -41 25 -1 27 1 26 40 l-2 41 -6 -35 c-4
-22 -12 -35 -21 -35 -9 0 -18 13 -22 35 l-6 35 1 -40z"/>
<path d="M4100 966 c-20 -25 -8 -61 20 -63 25 -3 25 -3 3 7 -13 5 -23 18 -23
30 0 12 9 24 23 30 15 6 17 9 6 9 -9 1 -22 -6 -29 -13z"/>
<path d="M4190 969 l25 -11 -28 -10 c-37 -13 -33 -43 6 -44 26 -1 28 1 25 35
-3 30 -7 36 -28 38 l-25 3 25 -11z m20 -39 c0 -12 -28 -25 -36 -17 -9 9 6 27
22 27 8 0 14 -5 14 -10z"/>
<path d="M4241 936 l2 -41 6 35 c4 22 12 35 21 35 9 0 18 -13 22 -35 l6 -35
-1 40 c-2 36 -5 40 -29 41 -26 1 -28 -1 -27 -40z"/>
<path d="M4413 940 c0 -25 2 -35 4 -22 2 12 2 32 0 45 -2 12 -4 2 -4 -23z"/>
<path d="M4451 936 l2 -41 6 35 c4 22 12 35 21 35 9 0 18 -13 22 -35 l6 -35
-1 40 c-2 36 -5 40 -29 41 -26 1 -28 -1 -27 -40z"/>
<path d="M4801 966 c-27 -33 11 -88 40 -59 6 6 1 9 -12 9 -12 -1 -24 5 -26 12
-3 7 5 12 22 12 20 0 26 4 23 17 -4 23 -31 28 -47 9z m39 -6 c0 -5 -9 -10 -21
-10 -11 0 -17 5 -14 10 3 6 13 10 21 10 8 0 14 -4 14 -10z"/>
<path d="M2360 910 c0 -5 5 -10 10 -10 6 0 10 5 10 10 0 6 -4 10 -10 10 -5 0
-10 -4 -10 -10z"/>
<path d="M1033 755 c0 -33 2 -45 4 -27 2 18 2 45 0 60 -2 15 -4 0 -4 -33z"/>
<path d="M1072 783 c-8 -8 -9 -13 -2 -13 5 0 10 -16 10 -35 0 -27 4 -35 18
-34 10 0 12 3 5 6 -15 5 -18 60 -4 65 5 2 4 8 -3 14 -8 8 -15 7 -24 -3z"/>
<path d="M761 735 c2 -33 3 -35 6 -10 2 17 11 35 20 42 13 10 13 12 -6 10 -18
-1 -21 -7 -20 -42z"/>
<path d="M821 766 c-27 -33 11 -88 40 -59 6 6 1 9 -12 9 -12 -1 -24 5 -26 12
-3 7 5 12 22 12 20 0 26 4 23 17 -4 23 -31 28 -47 9z m39 -6 c0 -5 -9 -10 -21
-10 -11 0 -17 5 -14 10 3 6 13 10 21 10 8 0 14 -4 14 -10z"/>
<path d="M893 764 c-4 -10 0 -20 10 -26 22 -12 22 -25 0 -31 -17 -4 -17 -5 0
-6 24 -1 34 29 14 41 -22 12 -22 25 1 31 16 4 16 5 -1 6 -10 0 -20 -6 -24 -15z"/>
<path d="M953 745 c2 -36 5 -40 30 -41 25 -1 27 1 26 40 l-2 41 -6 -35 c-4
-22 -12 -35 -21 -35 -9 0 -18 13 -22 35 l-6 35 1 -40z"/>
<path d="M4203 413 c120 -2 314 -2 430 0 117 1 19 2 -218 2 -236 0 -332 -1
-212 -2z"/>
<path d="M3964 285 c0 -60 1 -84 3 -52 2 32 2 81 0 110 -2 29 -3 3 -3 -58z"/>
<path d="M4864 285 c0 -60 1 -84 3 -52 2 32 2 81 0 110 -2 29 -3 3 -3 -58z"/>
<path d="M4332 318 c-7 -7 -12 -26 -12 -43 0 -36 15 -55 45 -55 30 0 45 19 45
55 0 36 -15 55 -45 55 -12 0 -26 -5 -33 -12z m56 -10 c30 -30 -2 -93 -36 -71
-21 13 -27 50 -12 69 15 17 32 18 48 2z"/>
<path d="M4443 275 c0 -33 2 -49 4 -35 3 14 16 41 31 60 l25 35 -25 -23 -26
-24 -5 24 c-2 12 -4 -4 -4 -37z"/>
<path d="M4460 263 c0 -12 38 -48 45 -41 3 2 -6 15 -20 28 -14 13 -25 19 -25
13z"/>
<path d="M4203 153 c120 -2 314 -2 430 0 117 1 19 2 -218 2 -236 0 -332 -1
-212 -2z"/>
</g>
</svg>
